<?xml version="1.0" encoding="UTF-8"?>
<svg id="Livello_2" data-name="Livello 2" xmlns="http://www.w3.org/2000/svg" viewBox="0 0 15.78 30.04">
  <defs>
    <style>
      .cls-1 {
        fill: #fff;
      }

      .cls-2 {
        fill: #d0a0ef;
      }
    </style>
  </defs>
  <g id="Symptoms">
    <g id="ic_anorexia">
      <g>
        <path class="cls-1" d="m15.68,24.1l-2.74,5.39c-.17.34-.51.55-.89.55s-.72-.21-.89-.55l-3.27-6.45-3.26,6.45c-.17.34-.51.55-.89.55s-.72-.21-.89-.55L.11,24.1c-.14-.28-.14-.62,0-.9l3.94-7.77L.85,9.12C-.54,6.39.45,3.05,3.07,1.47c.46-.34,1.01-.64,1.63-.88.15-.07.33-.13.5-.19l.22-.07c.72-.21,1.49-.33,2.27-.33h.15c.06,0,.12,0,.17,0,.18,0,.36.02.53.03,1.17.09,2.3.4,3.25.91.38.18.63.33.63.33,2.82,1.42,3.98,4.96,2.52,7.84l-3.2,6.31,3.94,7.77c.14.28.14.62,0,.9Z"/>
        <path class="cls-2" d="m14.78,23.65l-4.16-8.21,3.42-6.77c1.21-2.39.25-5.32-2.14-6.53v.03h-.01v-.03s-.2-.13-.57-.3c-.82-.44-1.8-.72-2.88-.79-.16-.02-.31-.03-.47-.03-.04,0-.08,0-.13,0-.03,0-.06,0-.08,0-.66,0-1.36.08-2.08.29-.06.02-.11.03-.17.05-.15.05-.3.11-.45.17-.54.21-1.02.47-1.44.78C1.43,3.59.57,6.37,1.74,8.67l3.42,6.77L1,23.65l2.74,5.39,4.15-8.21,4.15,8.21,2.74-5.39ZM7.69,4.78h0c1.31-.04,2.19,1.34,1.6,2.51l-1.4,2.77-1.53-3.02c-.51-1.01.2-2.22,1.33-2.25Z"/>
      </g>
    </g>
  </g>
</svg>