<?xml version="1.0" encoding="UTF-8"?>
<svg id="Livello_2" data-name="Livello 2" xmlns="http://www.w3.org/2000/svg" viewBox="0 0 24.61 18.73">
  <defs>
    <style>
      .cls-1 {
        fill: #f7f8f9;
      }

      .cls-2 {
        fill: #f2f2f2;
      }

      .cls-3 {
        fill: #fff;
      }

      .cls-4 {
        fill: #9b9b9b;
      }

      .cls-5 {
        fill: #77a8c7;
      }

      .cls-6 {
        fill: #82b7d9;
      }

      .cls-7 {
        opacity: .9;
      }
    </style>
  </defs>
  <g id="Who_is_at_risk" data-name="Who is at risk">
    <g id="ic_artificial_insemination_technicians_rendering_plants_workers" data-name="ic_artificial insemination technicians +rendering plants workers">
      <g>
        <g class="cls-7">
          <path class="cls-3" d="m23.43,6.45c-.06,0-.12,0-.18-.02l-3.62-.62-.23-.31.25-.93.36-.19,3.6.71c.43.09.7.46.61.83-.08.32-.41.54-.79.54Z"/>
          <path class="cls-3" d="m19.59,5.86l.25-1.09,3.6.83c.27.06.44.33.38.61h0c-.06.27-.34.44-.61.38l-3.63-.73Z"/>
          <path class="cls-3" d="m17.79,5.27q-2.94-.81-3.02-1.06l.67-.22-.33.11.16-.33c.08.04.48.16,1.01.31l-.18-.62,3.06-1.02c.5-.16,1.03.13,1.18.66.16.53-.12,1.1-.62,1.26l-1.68.89-.24.03Zm-.81-1.51c.43.12.93.26,1.41.4l1.62-.85c.18-.06.25-.21.21-.35s-.17-.21-.31-.17l-2.93.98Z"/>
          <path class="cls-3" d="m17.02,3.41l.31-.1.52-.16.61-.19.58-.18.43-.13.17-.05c.27-.08.55.06.64.33s-.07.55-.33.64l-1.48.73s-2.36-.6-2.37-.65"/>
          <path class="cls-3" d="m23.76,8.06c-.07,0-.15,0-.22-.02l-4.19-.87-.23-.36.26-1.14.36-.22,4.16,1.03c.22.05.41.17.54.35.14.19.19.42.14.63-.08.36-.42.61-.83.61Z"/>
          <path class="cls-3" d="m19.56,6.7l.26-1.14,4.16,1.03c.32.07.52.35.46.63h0c-.06.27-.37.44-.69.36l-4.19-.87Z"/>
          <path class="cls-3" d="m22.9,9.12c-.06,0-.12,0-.18-.02l-3.61-.75-.23-.36.26-1.13.36-.22,3.59.9c.2.05.38.17.5.36.11.18.15.4.1.61-.08.37-.41.62-.79.62Z"/>
          <path class="cls-3" d="m19.17,8.25l.26-1.13,3.59.9c.27.06.44.33.38.61h0c-.06.27-.34.44-.61.38l-3.62-.75Z"/>
          <path class="cls-3" d="m21.66,10.14l-2.82-.65-.22-.36.24-1.06.36-.22,2.8.71c.37.08.59.51.49.94-.09.37-.39.64-.72.64l-.14-.02Z"/>
          <path class="cls-3" d="m18.96,9.27l.24-1.06,2.8.71c.21.05.34.31.27.58h0c-.06.27-.29.45-.5.41l-2.82-.65Z"/>
          <path class="cls-3" d="m18.45,9.38c-.26-.06-.53-.11-.8-.16-.58-.11-1.18-.22-1.74-.4-.28-.09-.59-.13-.86-.15l-.17-.02c-.34-.03-.7-.07-1.05-.16-.2-.05-.32-.09-.43-.09-.07,0-.13.01-.19.02-.09.01-.18.03-.27.03h0c-.26,0-.47-.08-.66-.14l-.18-.06c-.36-.11-.75-.12-1.16-.12-.16,0-.32,0-.48-.02-.73-.04-1.45-.21-2.07-.36-.19-.05-.36-.09-.52-.09-.1,0-.16.01-.21.02-.09.01-.18.02-.28.02-.19,0-.36-.04-.51-.08l-1.5-.36c-.33-.08-.7-.17-1.03-.36-.07-.04-.14-.08-.2-.13-.11-.07-.21-.14-.31-.17-.09-.03-.21-.05-.36-.05-.09,0-.18,0-.26,0-.1,0-.2,0-.29,0-.22,0-.5-.02-.76-.18-.08-.05-.16-.12-.23-.18-.08-.07-.15-.13-.21-.15,0,0-.02,0-.02,0-.15,0-.28.06-.41.11-.18.07-.37.15-.58.15-.15,0-.28-.04-.4-.12-.31-.2-.34-.59-.25-.88.04-.13.11-.24.17-.36.04-.07.08-.14.11-.22.09-.21.09-.46.09-.72,0-.28,0-.57.11-.86.09-.26.25-.47.4-.68.14-.19.27-.37.33-.56.04-.14.06-.28.07-.42.02-.24.05-.51.2-.76.1-.16.23-.28.38-.34.09-.03.18-.05.28-.05.06,0,.11,0,.17.01.31.05.57.21.8.35.17.1.33.2.49.25.15.04.32.05.5.06.1,0,.2,0,.29.02.39.04.78.16,1.12.36.15.09.25.15.32.15.03,0,.09-.02.13-.04.07-.03.15-.06.25-.07h.11c.21,0,.39.07.55.14.11.05.22.1.3.1h0c.05,0,.1,0,.14-.02.06,0,.13-.02.19-.02h0c.34,0,.59.12.81.22.07.03.14.06.2.09.32.13.68.16,1.06.2.42.04.86.09,1.27.27.11-.04.22-.07.35-.07.21,0,.39.06.51.11.11.05.22.11.32.17.11.06.21.12.33.17.19.07.42.07.65.07h.32c.58.02,1.14.15,1.61.27.22.06.44.13.65.2.28.09.57.19.86.25.91.19,1.82.39,2.74.59l1.31.29.22.33-1.11,4.53-.36.21-.84-.18Z"/>
          <path class="cls-3" d="m15.12,8.31c-.39-.04-.79-.07-1.17-.18-.18-.05-.35-.11-.53-.1-.15,0-.3.05-.45.05-.26,0-.5-.12-.75-.2-.55-.18-1.14-.13-1.72-.16-.68-.04-1.35-.2-2.01-.38-.22-.06-.44-.12-.66-.11-.14,0-.29.05-.43.05-.15,0-.3-.04-.44-.07-.5-.13-1-.26-1.5-.38-.33-.08-.66-.17-.95-.35-.19-.11-.35-.27-.56-.34-.52-.2-1.16.11-1.62-.2-.18-.12-.31-.33-.52-.39-.45-.13-.95.46-1.33.2-.18-.13-.2-.39-.14-.6s.2-.39.28-.6c.21-.53.03-1.15.21-1.7.16-.48.58-.84.73-1.33.12-.39.05-.84.25-1.2.05-.1.13-.19.24-.24.09-.04.19-.04.28-.02.46.08.8.49,1.25.63.27.08.57.06.85.09.35.04.7.15,1,.34.16.1.32.21.5.2.14,0,.26-.1.4-.12.32-.05.59.25.91.26.12,0,.24-.03.35-.04.32-.02.6.18.89.3.78.33,1.72.15,2.46.57.2-.17.49-.13.73-.02s.43.28.67.37c.34.13.71.09,1.07.1.52.01,1.04.14,1.54.28.51.15,1.01.37,1.53.48,1.36.3,2.71.62,4.06.93,0,0-1.11,4.82-1.11,4.82l-.85-.19c-.83-.19-1.72-.31-2.52-.58-.3-.1-.61-.14-.93-.18Z"/>
          <path class="cls-3" d="m10.55,16.82c-.14-.01-.26-.07-.38-.18-.21-.19-.3-.44-.38-.67-.05-.15-.1-.29-.18-.39-.07-.09-.18-.16-.3-.24-.07-.05-.14-.09-.2-.14-.27-.21-.48-.49-.61-.82-.04-.11-.08-.2-.1-.22-.16-.02-.24-.03-.32-.06-.24-.09-.34-.29-.42-.44-.04-.08-.08-.15-.12-.18-.02-.01-.06-.02-.09-.04-.05-.02-.11-.04-.16-.06-.26-.13-.38-.37-.48-.57-.03-.05-.06-.11-.09-.16-.14-.23-.36-.41-.6-.6-.27-.21-.55-.43-.73-.75-.24-.03-.46-.19-.6-.44-.05-.09-.09-.19-.13-.29-.04-.1-.07-.19-.12-.26-.09-.13-.26-.23-.43-.34l-.18-.11c-.41-.26-.73-.62-.99-.93-.12-.14-.23-.3-.34-.45-.14-.2-.28-.39-.45-.56-.41-.42-.62-.68-.83-.95-.18-.23-.37-.46-.71-.82-.26-.09-.41-.41-.44-.94C.07,3.86.81.32,2.23,0h.02c.32,0,.57.25,1.65,1.74.16.23.29.4.33.45.15.16.31.31.47.47.35.34.7.69,1,1.09.14.19.33.34.5.48l.11.08c.23.17.46.36.66.59.11.13.17.2.24.24.04.02.08.04.13.05.08.03.15.06.22.1.2.11.31.28.41.43l.09.12c.18.23.44.4.72.58.11.07.23.14.33.22.5.35.91.8,1.26,1.2.11.13.21.24.32.3.04.02.08.03.12.05.08.03.15.06.22.1.15.09.25.2.34.3l.83.92c.2.23.42.47.54.78.03.06.05.13.07.2.03.1.06.19.1.25.07.11.22.19.39.27.25.13.56.29.68.64.03.08.04.17.06.27,0,.06.02.15.04.17.03.04.22.05.32.06.26.02.66.05.78.44.1.33-.12.67-.34.85-.1.09-.22.16-.33.23-.07.04-.15.09-.22.14-.2.15-.35.36-.52.59-.17.23-.34.47-.58.67-.22.18-.45.29-.68.4-.22.1-.42.2-.58.34-.12.1-.21.22-.31.34-.17.2-.34.4-.58.55-.15.09-.29.13-.42.13h-.06Z"/>
          <path class="cls-3" d="m5.84,4.3c.26.2.52.39.74.64.1.11.19.24.32.31.11.06.25.09.36.15.19.11.29.31.42.48.29.38.75.59,1.14.87.47.32.86.74,1.23,1.16.12.14.25.28.41.37.11.06.23.09.34.15.11.06.19.15.27.25.29.32.57.63.86.95.19.21.38.42.48.69.07.17.1.37.2.52.26.38.9.41,1.05.85.06.18.04.4.15.54.25.3.95.03,1.07.41.06.18-.08.4-.25.55s-.37.23-.55.36c-.46.34-.69.92-1.13,1.28-.39.32-.91.43-1.29.76-.31.27-.52.66-.87.87-.1.06-.21.1-.31.09-.08,0-.16-.05-.21-.1-.29-.26-.29-.74-.54-1.04-.15-.19-.37-.29-.56-.44-.23-.18-.41-.42-.52-.7-.06-.14-.1-.31-.24-.37-.11-.05-.24-.04-.36-.08-.25-.1-.28-.46-.5-.6-.08-.05-.19-.07-.28-.12-.24-.12-.32-.4-.46-.62-.37-.6-1.15-.85-1.44-1.51-.24.05-.43-.11-.53-.29s-.15-.41-.27-.58c-.17-.25-.46-.38-.71-.54-.37-.23-.67-.55-.94-.88-.28-.34-.51-.73-.82-1.04-.8-.82-.83-1.03-1.63-1.85C-.37,5.67.55.42,2.04.09c.23-.05,1.59,1.96,1.76,2.13.49.51,1.05.98,1.48,1.55.16.21.36.38.57.54Z"/>
        </g>
        <path class="cls-1" d="m9.2,7.95c-.15,0-.27-.08-.35-.14-.11-.07-.23-.16-.34-.29-.05-.06-.1-.13-.15-.2-.04-.06-.08-.12-.12-.17-.03-.03-.06-.06-.1-.09-.28-.24-.48-.5-.67-.75-.13-.17-.27-.35-.41-.5-.23-.23-.47-.39-.73-.55-.23-.15-.41-.26-.59-.41-.04-.03-.08-.07-.12-.11-.1-.08-.15-.13-.19-.16-.13-.09-.26-.15-.38-.21-.18-.09-.35-.18-.53-.31-.33-.25-.62-.62-.88-.94-.21-.27-.42-.53-.61-.84-.23-.37-.4-.68-.29-.92l.29-.21s0,0,.01,0c.19,0,.31.08.38.13.1.07.23.15.34.28.05.06.1.13.15.19.04.06.08.12.13.16.03.03.07.06.1.08.29.23.5.49.69.73.14.17.27.34.42.48.23.23.48.37.74.53.24.14.42.25.6.39.11.08.21.18.3.29.15.1.27.17.4.24.18.09.35.19.52.32.32.25.6.63.85.97.2.27.41.54.59.85.26.44.37.71.26.93l-.3.2h-.04Z"/>
        <path class="cls-1" d="m9.02,6.98c-.17-.3-.37-.56-.57-.82-.25-.34-.52-.68-.8-.91-.29-.23-.59-.32-.89-.54-.02-.02-.05-.04-.07-.06-.08-.1-.17-.18-.26-.25-.17-.13-.34-.24-.51-.34-.29-.17-.58-.33-.85-.61-.36-.35-.67-.86-1.04-1.16-.06-.05-.12-.09-.18-.15-.1-.11-.19-.26-.29-.37-.09-.1-.19-.17-.29-.23-.07-.04-.13-.09-.19-.08-.21.03.12.52.21.67.18.29.39.55.59.81.26.33.53.67.82.89.3.23.6.31.91.51.07.05.13.1.2.16.04.04.09.09.13.13.17.14.33.25.5.35.28.18.57.35.84.63.35.36.65.88,1.01,1.18.06.05.12.09.17.15.1.11.18.26.28.38.09.1.19.17.28.24.06.05.13.09.19.09.21-.02-.11-.52-.19-.68Z"/>
      </g>
      <g>
        <g class="cls-7">
          <path class="cls-6" d="m19.74,5.74l.24-1.03,3.4.78c.26.06.42.32.36.58h0c-.06.26-.32.42-.58.36l-3.43-.69Z"/>
          <path class="cls-6" d="m16.91,3.58l.3-.09.49-.15.57-.18.54-.17.41-.13.16-.05c.25-.08.52.06.6.31s-.06.52-.31.6l-1.4.69s-2.23-.57-2.24-.62"/>
          <path class="cls-6" d="m19.46,6.94l.25-1.08,3.93.97c.3.07.49.33.44.59h0c-.06.26-.35.41-.65.34l-3.96-.83Z"/>
          <path class="cls-6" d="m19.19,8.14l.25-1.07,3.39.85c.26.06.42.32.36.58h0c-.06.26-.32.42-.58.36l-3.42-.71Z"/>
          <path class="cls-6" d="m18.93,9.28l.23-1,2.65.68c.2.05.32.29.26.55h0c-.06.26-.27.43-.47.38l-2.66-.61Z"/>
          <path class="cls-6" d="m14.87,8.38c-.37-.04-.74-.07-1.1-.17-.17-.05-.33-.1-.5-.1-.14,0-.28.05-.43.05-.25,0-.48-.12-.71-.19-.52-.17-1.08-.12-1.63-.15-.65-.04-1.28-.19-1.9-.36-.2-.05-.41-.11-.62-.1-.14,0-.27.04-.41.04-.14,0-.28-.03-.42-.07-.47-.12-.95-.24-1.42-.36-.31-.08-.63-.16-.9-.33-.18-.11-.33-.25-.53-.33-.49-.19-1.1.1-1.53-.19-.17-.11-.3-.31-.49-.37-.42-.12-.89.44-1.25.19-.17-.12-.19-.37-.13-.57s.19-.37.27-.57c.2-.51.03-1.09.2-1.61.15-.46.55-.8.69-1.26.11-.37.05-.8.23-1.14.05-.09.12-.18.22-.22.08-.03.18-.03.27-.02.44.08.76.46,1.18.59.26.08.54.06.8.09.33.03.66.15.95.32.15.09.3.2.47.19.13,0,.25-.09.38-.11.3-.04.56.24.86.25.11,0,.22-.03.34-.04.3-.02.56.17.84.29.73.31,1.63.14,2.32.54.18-.16.47-.12.69-.02s.41.26.64.35c.32.12.67.08,1.01.09.49.01.98.13,1.45.27.48.14.96.35,1.45.46,1.28.29,2.56.59,3.84.88,0,0-1.05,4.57-1.05,4.57l-.8-.18c-.78-.18-1.62-.3-2.38-.55-.28-.1-.58-.14-.88-.17Z"/>
          <path class="cls-6" d="m6.1,4.58c.24.19.5.37.7.61.09.11.18.22.31.3.11.06.23.08.34.14.18.1.28.3.4.46.28.36.71.56,1.08.82.44.31.81.7,1.16,1.1.12.13.23.27.39.35.1.05.22.08.32.14.1.06.18.15.26.23.27.3.54.6.81.9.18.2.36.4.46.65.06.16.09.35.19.49.24.36.85.39.99.81.06.17.03.38.14.51.23.28.9.03,1.01.39.05.17-.08.38-.24.52s-.35.22-.52.34c-.43.32-.65.87-1.07,1.21-.37.3-.86.41-1.22.72-.3.25-.49.62-.82.82-.09.05-.19.09-.29.08-.08,0-.15-.05-.2-.1-.27-.25-.28-.7-.51-.99-.14-.18-.35-.28-.53-.42-.22-.17-.39-.4-.49-.66-.05-.14-.1-.29-.23-.35-.1-.05-.23-.03-.34-.07-.24-.09-.26-.43-.47-.57-.08-.05-.18-.07-.26-.11-.22-.11-.31-.38-.44-.59-.35-.57-1.09-.81-1.36-1.43-.22.05-.41-.1-.5-.28s-.14-.39-.26-.55c-.16-.23-.43-.36-.67-.51-.35-.22-.63-.52-.89-.84-.27-.32-.49-.69-.78-.99-.76-.78-.79-.97-1.54-1.76-.79-.08.08-5.05,1.49-5.37.22-.05,1.5,1.86,1.66,2.02.46.48,1,.93,1.39,1.47.15.2.34.36.53.51Z"/>
        </g>
        <path class="cls-5" d="m9.19,7.05c-.16-.28-.35-.53-.53-.77-.24-.32-.48-.64-.75-.86-.28-.22-.56-.3-.84-.51-.02-.02-.05-.04-.07-.06-.08-.09-.16-.17-.24-.23-.16-.12-.32-.22-.48-.32-.27-.16-.54-.31-.8-.57-.33-.33-.63-.81-.97-1.09-.06-.04-.11-.08-.17-.14-.1-.1-.18-.24-.27-.35-.09-.1-.18-.16-.27-.22-.06-.04-.13-.08-.18-.08-.19.02.11.49.2.63.17.28.36.52.55.76.25.31.5.63.77.84.28.21.57.29.85.48.06.04.12.1.19.15.04.04.08.09.13.12.16.13.31.23.47.33.26.17.53.33.79.59.33.34.61.83.94,1.11.05.05.11.09.16.14.09.1.17.25.26.35.08.1.17.16.26.22.06.04.12.09.18.08.2-.02-.1-.49-.18-.63Z"/>
      </g>
      <g>
        <g>
          <path class="cls-3" d="m11.56,12.35c0,.08.09.15-.08.63-.29.86-1.34,1.51-1.49,1.61-.51.35-1.07.62-1.64.84-.6.23-1.25.36-1.88.48-.53.1-1.07.2-1.61.22s-1.06,0-1.59-.03c-1.4-.09-1.55-.69-1.55-.69,0,0-.03-.08-.07-.21-.09-.29-.26-.84-.35-1.42-.13-.85-.08-1.67.24-2.69.17-.55.44-1.07.78-1.54.55-.76,1.36-1.37,2.27-1.62.57-.15,1.17-.2,1.76-.24.97-.07,2.11-.13,2.94.49.24.18.41.41.6.64.21.24.4.5.57.77.34.54.62,1.12.81,1.73.11.34.21.68.29,1.03,0,0,.65.27.75.64.13.49-.24.95-.55,1.28-.43.46-.96.84-1.4,1.28-.67.66-1.32,1.34-2.01,1.99-.87.82-2.1,1.05-3.25,1.14-1.04.08-2.09.09-3.1-.22-.11-.03-.22-.07-.32-.11-.44-.17-.87-.47-.98-.96-.1-.46.11-.92.34-1.31.1-.16.2-.31.31-.46.1-.13.19-.3.31-.41"/>
          <path class="cls-3" d="m7.03,7.66c-.26.23-.92.81-1.17,1.03-.55.46-.99.95-1,1.7,0,.17.01.34.05.51h0c-.03-.08-.06-.16-.08-.25-.18-.93.32-1.48,1-2.01.26-.21.94-.77,1.21-.99,0,0,0,0,0,0h0Z"/>
          <path class="cls-3" d="m6.05,7.74c-.26.23-.92.81-1.17,1.03-.55.46-.99.95-1,1.7,0,.17.01.34.05.51h0c-.03-.08-.06-.16-.08-.25-.18-.93.32-1.48,1-2.01.26-.21.94-.77,1.21-.99,0,0,0,0,0,0h0Z"/>
          <path class="cls-3" d="m1.67,15.29c.09.52.67.7,1.13.79.48.09.98.12,1.47.12,1.23,0,2.44-.27,3.62-.63,1.18-.34,2.29-.96,3.13-1.85.34-.35.61-.82.53-1.32.1.5-.17.98-.51,1.33-.68.72-1.52,1.28-2.44,1.64-.92.35-1.88.6-2.86.75-.97.15-1.97.16-2.94-.02-.46-.09-1.04-.29-1.12-.81h0Z"/>
        </g>
        <g>
          <path class="cls-2" d="m11.35,12.38c0,.08.09.14-.07.61-.28.82-1.29,1.46-1.43,1.55-.49.33-1.03.6-1.58.81-.58.22-1.2.35-1.81.47-.51.1-1.03.19-1.55.21s-1.02,0-1.53-.03c-1.35-.09-1.49-.67-1.49-.67,0,0-.03-.07-.07-.2-.09-.28-.25-.81-.33-1.37-.13-.81-.08-1.61.23-2.59.17-.53.43-1.03.75-1.48.53-.74,1.31-1.32,2.19-1.56.55-.15,1.13-.19,1.69-.24.94-.07,2.04-.13,2.83.47.23.18.39.4.58.61.2.23.38.48.55.74.33.52.59,1.08.78,1.67.1.33.2.66.28.99,0,0,.63.26.72.61.12.47-.23.91-.53,1.23-.41.44-.92.81-1.35,1.23-.65.64-1.27,1.29-1.93,1.91-.83.79-2.03,1.01-3.13,1.1-1,.08-2.01.08-2.98-.21-.1-.03-.21-.07-.31-.11-.43-.16-.84-.45-.94-.93-.1-.45.1-.89.33-1.26.09-.15.19-.3.3-.44.09-.13.18-.29.3-.4"/>
          <path class="cls-4" d="m6.99,7.86c-.25.22-.88.78-1.13.99-.53.44-.95.91-.97,1.63,0,.16.01.33.05.49h0c-.03-.07-.06-.16-.08-.24-.18-.89.31-1.42.96-1.94.25-.21.91-.74,1.16-.95,0,0,0,0,0,0h0Z"/>
          <path class="cls-4" d="m6.05,7.93c-.25.22-.88.78-1.13.99-.53.44-.95.91-.97,1.63,0,.16.01.33.05.49h0c-.03-.07-.06-.16-.08-.24-.18-.89.31-1.42.96-1.94.25-.21.91-.74,1.16-.95,0,0,0,0,0,0h0Z"/>
          <path class="cls-4" d="m1.83,15.21c.09.5.65.68,1.09.76.47.08.94.12,1.41.12,1.18,0,2.35-.26,3.48-.61,1.13-.33,2.2-.92,3.02-1.78.32-.33.59-.79.51-1.27.09.48-.17.94-.49,1.28-.65.69-1.46,1.23-2.35,1.58-.89.34-1.81.58-2.75.72-.94.14-1.9.16-2.84-.02-.44-.09-1-.28-1.08-.78h0Z"/>
        </g>
      </g>
    </g>
  </g>
</svg>