<?xml version="1.0" encoding="UTF-8"?>
<svg id="Where_is_found" data-name="Where is found" xmlns="http://www.w3.org/2000/svg" viewBox="0 0 32 32">
  <defs>
    <style>
      .cls-1 {
        fill: #fad0c0;
      }

      .cls-2 {
        fill: #f28d57;
      }

      .cls-3 {
        fill: #f5a275;
      }

      .cls-4 {
        fill: #f5fbff;
      }

      .cls-5 {
        fill: #fce1d6;
      }

      .cls-6 {
        fill: #fffdf8;
      }

      .cls-7 {
        fill: #e47c67;
      }

      .cls-8 {
        fill: #e69461;
      }

      .cls-9 {
        fill: #fde3ca;
      }

      .cls-10 {
        fill: #8cbd60;
      }

      .cls-11 {
        fill: #cbced3;
      }

      .cls-12 {
        fill: #c85555;
      }

      .cls-13 {
        fill: #d9dde3;
      }

      .cls-14 {
        fill: #db5d5d;
      }

      .cls-15, .cls-16 {
        fill: #c5dda6;
      }

      .cls-17 {
        fill: #a1cb78;
      }

      .cls-16 {
        isolation: isolate;
        opacity: .8;
      }
    </style>
  </defs>
  <ellipse class="cls-13" cx="14.94" cy="16.4" rx="6.63" ry="12.83" transform="translate(-1.94 30.8) rotate(-88.13)"/>
  <ellipse class="cls-4" cx="15.01" cy="16.02" rx="6.63" ry="12.83" transform="translate(-1.49 30.5) rotate(-88.13)"/>
  <path class="cls-13" d="m24.6,16.36s-.67-1.53-3.17-3.2c-1.5-1-4.53-1.56-6.47-1.63-5.18-.17-8.5,2.32-7.49,1.59,1.72-1.26,4.63-2.03,7.9-1.92,5.18.17,9.32,2.48,9.23,5.16Z"/>
  <g>
    <path class="cls-13" d="m15.8,14.95l6.52,1.94s-.14.4.97.91,6.18,1.22,6.39,1.69-.22.73-1.98.3-5.5-1.72-5.67-2.02c-.39.04-.6,0-.93-.08-.64-.16-5.38-2.13-5.29-2.75Z"/>
    <path class="cls-11" d="m21.92,17.66s.07-.05.09-.18c0-.04.02.12.35.29s2.39,1.05,4.26,1.53,2.63.28,2.71.4-.13.22-.96.13-5.43-1.4-6.44-2.17Z"/>
  </g>
  <path id="Tracciato_213" data-name="Tracciato 213" class="cls-17" d="m6.3,14.73s-.34-.66-.4-.83-.1-.49.22-.67.64-.38.69-.71.69-.32,1.52,1.09c0,0,.4-1.56,2.33-2.42,1.94-.85,2.3-.16,2.3-.16,0,0,.19.36,1.01.39s1.39.51,1.74,1.07c.24.39.67.61,1.12.6.2-.02.9-.52,1.2.03s.01,1.09.06,1.48.49.13.3.84-.48.34-.81.8-4.95,4.58-9-.02c-.39-.42-.58-.66-1.2-.59s-1.09-.91-1.09-.91Z"/>
  <path id="Tracciato_218" data-name="Tracciato 218" class="cls-15" d="m7.04,12.88s-.31.5-.68.69c-.37.19.38,1.25.38,1.25,0,0,.25.39.44.46s.68-.3,1.1.08,2.04,1.97,3.04,2.08.27-.21.27-.21c0,0-1.57-.54-2.3-1.65s2.15,2.2,4.77,1.76,1.25-.6,1.25-.6c0,0-3.26.5-4.65-1.19,0,0,3.51,1.12,5.42.38.3-.12.55-.22.78-.33,1.11-.51,1.05-.76.77-.91-.33-.18-1.39.38-2.88.53-1.49.14-3.01-.07-3.01-.07,1.38-.55,3.25-2.42,2.44-2.51-.33-.05-3.33,2.5-4.1,2.19-.61-.24-.71-.76.89-1.83,2.63-1.7,1.55-1.53,1.44-1.52-2.54.28-3.33,1.97-3.73,2.71-.26-.09-.31-.07-.39-.15-.31-.22-.58-.81-.8-1.09-.11-.14-.44-.07-.44-.07Z"/>
  <path id="Tracciato_214" data-name="Tracciato 214" class="cls-10" d="m14.74,20.32s-1.16,1.23-4.14.21c-2.98-1.02-4.1-3.15-4.61-4.64-.51-1.49-1.17-1.63-1.17-1.63,0,0-.99-.53-.01-1.03.97-.5,2.35.24,2.35.24.43.06.87,0,1.28-.17.62-.27,3.11.8,3.93,1.89.82,1.09.93,2.48,3.7,3.39,0,0-1.12.8-1.32,1.72Z"/>
  <path id="Tracciato_219" data-name="Tracciato 219" class="cls-16" d="m15.56,20.07c-.53.11-2.56.68-3.57.23s-.21-.34-.21-.34c0,0,1.7.37,2.73-.24s-2.73.83-5.19-1.01c-2.46-1.85-1.06-1.23-1.06-1.23,0,0,3.08,2.24,4.92,1.47,0,0-3.77-.91-5.45-2.63-.27-.27-.49-.51-.68-.73-.95-1.07-.83-1.27-.51-1.25.38.02,1.27,1.12,2.7,2.06.95.61,1.95,1.14,2.99,1.58-1.21-1.26-2.54-3.99-1.72-3.64.34.14,2.59,4.11,3.44,4.25,1.79-.08,2.15,1.36,1.62,1.47Z"/>
  <g>
    <path class="cls-6" d="m13.45,14.42s.47-.48,1.07-.33.78.83,1.89.76c1.12-.06,1.57,1.12,1.57,1.12,0,0-.48.03-.64-.02s-.4-.33-.73-.48c-.48-.21-1.34-.37-1.53-.41-.29-.07-1.59-.16-1.63-.64Z"/>
    <path class="cls-9" d="m13.8,14.34s.09-.18.48-.13.58.12.74.26.34.28.34.28c0,0-.22-.03-.39-.18s-.42-.27-.67-.26-.49.03-.49.03Z"/>
  </g>
  <g>
    <path class="cls-6" d="m8.11,15.05s.16-.65.76-.82,1.09.32,2.02-.29,1.92.19,1.92.19c0,0-.4.27-.56.3s-.51-.09-.87-.05c-.52.06-1.34.35-1.53.41-.28.08-1.45.66-1.73.26Z"/>
    <path class="cls-9" d="m8.38,14.8s-.01-.2.35-.35.56-.19.77-.14.43.07.43.07c0,0-.21.09-.43.04s-.5-.02-.71.11-.41.28-.41.28Z"/>
  </g>
  <g>
    <path class="cls-6" d="m9.15,15.66s.16-.65.76-.82,1.09.32,2.02-.29,1.92.19,1.92.19c0,0-.4.27-.56.3s-.51-.09-.87-.05c-.52.06-1.34.35-1.53.41-.28.08-1.45.66-1.73.26Z"/>
    <path class="cls-9" d="m9.42,15.41s-.01-.2.35-.35.56-.19.77-.14.43.07.43.07c0,0-.21.09-.43.04s-.5-.02-.71.11-.41.28-.41.28Z"/>
  </g>
  <g>
    <path class="cls-6" d="m14.44,13.21s.23-.63.83-.74,1.05.43,2.04-.08,1.89.38,1.89.38c0,0-.43.23-.59.24s-.5-.14-.86-.14c-.53,0-1.37.22-1.56.25-.29.05-1.51.51-1.75.09Z"/>
    <path class="cls-9" d="m14.73,12.99s0-.2.38-.32.57-.13.78-.06.42.11.42.11c0,0-.21.07-.43,0s-.5-.07-.72.04-.44.23-.44.23Z"/>
  </g>
  <g>
    <path class="cls-6" d="m8.28,16.21s.53-.41,1.1-.18.65.93,1.77,1.02,1.39,1.33,1.39,1.33c0,0-.48-.04-.63-.11s-.35-.39-.65-.58c-.45-.28-1.27-.55-1.45-.62-.27-.11-1.55-.38-1.52-.87Z"/>
    <path class="cls-9" d="m8.65,16.18s.11-.16.49-.06.55.2.7.37.3.32.3.32c0,0-.21-.06-.36-.23s-.38-.33-.63-.36-.49-.04-.49-.04Z"/>
  </g>
  <g>
    <path class="cls-6" d="m6.73,15.65s.61-.28,1.11.07.43,1.05,1.49,1.39,1.06,1.61,1.06,1.61c0,0-.46-.14-.59-.25s-.25-.45-.51-.71c-.37-.37-1.11-.82-1.28-.93-.24-.17-1.42-.72-1.29-1.19Z"/>
    <path class="cls-9" d="m7.09,15.7s.15-.13.49.05.5.31.6.51.22.38.22.38c0,0-.2-.11-.3-.31s-.3-.41-.53-.49-.47-.15-.47-.15Z"/>
  </g>
  <g>
    <path class="cls-6" d="m13.42,13.36s.53-.41,1.1-.18.65.93,1.77,1.02,1.39,1.33,1.39,1.33c0,0-.48-.04-.63-.11s-.35-.39-.65-.58c-.45-.28-1.27-.55-1.45-.62-.27-.11-1.55-.38-1.52-.87Z"/>
    <path class="cls-9" d="m13.78,13.33s.11-.16.49-.06.55.2.7.37.3.32.3.32c0,0-.21-.06-.36-.23s-.38-.33-.63-.36-.49-.04-.49-.04Z"/>
  </g>
  <g>
    <path class="cls-13" d="m27.92,21.6c-.18.19-.4.4-.5.41s-1.16-.21-2.06-.73-4.82-2.73-5.71-2.89c-.8-.14-1.09.11-1.33.17-.16.05-.85.13-1.74-.68-.87-.79-2.06-2.22-2.06-2.22l.79-.59s2.6,1.97,3.34,2.31.67.56.67.56c.08-.01.74-.04,1.77.38,1.9.78,4.92,2.29,6.89,2.66.35.2-.03.6-.06.63Z"/>
    <path class="cls-11" d="m18.36,18.51c-.4.16-1.04-.15-1.04-.15-.7-.25-2.79-2.71-2.79-2.71.03-.02,1.93,2.18,2.74,2.61s1.47-.05,1.74-.13c.16-.02.91.04,1.75.36,1.38.53,4.57,2.36,5.03,2.6.95.51,1.48.56,1.6.56.02,0,.05-.02.05-.02l.53-.58c.11.06.12.19.02.34-.1.15-.49.53-.56.54-.06,0-.49-.03-1.39-.42-.48-.2-3.65-2.06-5.45-2.84-.44-.2-.81-.33-1.1-.36-.43-.05-.72.03-1.11.19Z"/>
    <path class="cls-11" d="m14.74,15.49s1.67,1.72,1.94,1.91.43.21.43.21l-.12-.11-2.26-2.01Z"/>
    <path class="cls-11" d="m14.96,15.36s1.71,1.68,1.99,1.86.44.2.44.2l-.12-.11-2.3-1.96Z"/>
    <path class="cls-11" d="m15.2,15.2s1.76,1.63,2.04,1.8.44.19.44.19l-.13-.1-2.35-1.89Z"/>
  </g>
  <g>
    <path class="cls-5" d="m9.3,14.11s-.07.18-.19.25-.21.11-.31.24-.14.19-.25.2-.21.03-.21.03c0,0-.26-.02-.34-.13s-.06-.22-.06-.22c0,0,.01-.04-.01-.11s-.07-.18.04-.3.19-.17.33-.15.27,0,.32-.01.22.09.22.09c0,0,.13.04.17.02s.35-.02.29.09Z"/>
    <path class="cls-7" d="m5.79,13.39s-.05-.03-.04-.08.27-.61.28-.62.17-.39.23-.46c0,0,0,.07.04.02s.04-.21.19-.37.15-.08.15-.08c0,0,.03.12.08.03s.07-.12.12-.03.15,0,.15,0c0,0,.1-.05-.01.25s-.19,1.37-.6,1.38c0,0-.07-.09-.27-.12s-.32.07-.32.07Z"/>
    <path class="cls-3" d="m5.8,13.41s-.15-.1-.22.42c-.1.54.18.88.18.88-.25.49.22.74.22.74,0,0-.17.46.66.85s.73.1.81.17.51-.01.84-.13.47-.49.47-.49c.55-.44.45-.94.45-.94.07-.06.02-.18.09-.41s0-.38,0-.38c0,0-.07.18-.19.25s-.21.11-.31.24-.14.19-.25.2-.21.03-.21.03c0,0-.25-.02-.34-.13-.06.03-.04.14-.04.14-.19.09-.3.3-.3.3-.18-.09-.4.11-.4.11,0,0-.26-.29-.41-.27.09-.25-.15-.36-.15-.36.23-.26-.33-1.15-.32-1.15,0,0-.06-.08-.28-.12s-.32.06-.32.06Z"/>
    <path class="cls-2" d="m8.01,14.74s-.04.04,0,.09.29.1.36.09.2-.09.23-.09-.01-.03-.18,0-.33-.03-.4-.1Z"/>
    <path class="cls-2" d="m9.18,14.94s-.19.18-.45.24c0,0,.04.03.12,0s.32-.11.33-.18c0-.08,0-.07,0-.07Z"/>
    <path class="cls-2" d="m8.72,15.85s-.2.09-.52-.15c0,0,0,.04.05.07.14.1.35.22.41.18.03-.03.05-.04.05-.1Z"/>
    <path class="cls-2" d="m7.4,16.43c-.08-.2-.13-.41-.15-.63,0,0-.06.61.02.67.08.02.13-.04.13-.04Z"/>
    <path class="cls-2" d="m6.01,15.39s.26-.26.45-.28c0,0-.21-.03-.51.22,0,0,0,.04.06.06Z"/>
    <path class="cls-2" d="m5.8,14.67s.26-.18.48-.13c0,0-.21-.08-.47.02-.08.04,0,.11,0,.11Z"/>
    <path class="cls-1" d="m9.22,14.06s.09,0,.05.06-.04.08-.08.13c-.05.07-.17.11-.27.18-.03-.03.1-.13.15-.17.08-.04.09-.08.1-.11s0-.1.05-.1Z"/>
  </g>
  <g>
    <path class="cls-12" d="m10.17,12.06s-.16.61.56.88,1.22.18,1.22.18c0,0,.29-.03.54-.2s.59-.48.55-.8c0,0-.37.58-1.05.61s-1.29-.01-1.83-.67Z"/>
    <ellipse class="cls-14" cx="11.62" cy="12.04" rx="1.44" ry=".86" transform="translate(-.23 .23) rotate(-1.13)"/>
    <path class="cls-12" d="m11.18,11.38s.6-.24,1.06.06c.12.07-.02.13-.08.14-.03,0-.13.05-.2.11-.08.07-.1.08-.11.11-.02.05-.06-.04-.15-.05s-.2.1-.23.06c-.05-.06-.14-.09-.15-.13-.03-.07-.25-.15-.14-.28Z"/>
    <path class="cls-12" d="m12.65,11.59s.22.14.22.39c0,.13-.11.32-.24.48-.1.11-.34.2-.35.14,0-.03.01-.12-.05-.21-.03-.05-.07-.08-.11-.11-.04-.03-.04-.06.05-.07.08,0,.16-.04.17-.13.02-.21-.09-.12-.12-.14s.03-.12.08-.13c.09-.01.21-.36.36-.21Z"/>
    <path class="cls-12" d="m12.01,12.72s-.71.2-1.22-.17c-.13-.09.05-.16.11-.17.03,0,.16-.05.25-.12.07-.05.12-.12.15-.16.01-.02-.01.08.17.08s.19-.05.2-.02c.03.06.04.12.05.16.02.09.43.26.28.41Z"/>
    <path class="cls-12" d="m10.56,12.36s-.18-.14-.15-.37c.01-.12.13-.28.26-.41.1-.09.32-.16.32-.1,0,.03-.02.1.03.19.05.09.14.16.16.18.05.03-.1.02-.13.1s.14.13.1.15c-.08.04-.17.06-.22.06-.08,0-.25.34-.37.2Z"/>
    <ellipse class="cls-8" cx="10.97" cy="11.81" rx=".01" ry=".05" transform="translate(-4.87 14.81) rotate(-57.85)"/>
    <ellipse class="cls-8" cx="10.95" cy="11.84" rx=".01" ry=".05" transform="translate(-4.23 17.31) rotate(-67.06)"/>
    <ellipse class="cls-8" cx="10.93" cy="11.89" rx=".01" ry=".05" transform="translate(-2.67 20.6) rotate(-80.04)"/>
    <ellipse class="cls-8" cx="10.92" cy="11.94" rx=".05" ry=".01" transform="translate(-1.23 1.26) rotate(-6.24)"/>
    <ellipse class="cls-8" cx="10.92" cy="11.98" rx=".05" ry=".01" transform="translate(-2.79 3.34) rotate(-15.43)"/>
    <ellipse class="cls-8" cx="10.94" cy="12.03" rx=".05" ry=".01" transform="translate(-4.39 6.6) rotate(-28.22)"/>
    <ellipse class="cls-8" cx="11.57" cy="12.29" rx=".01" ry=".05" transform="translate(-2.71 3.3) rotate(-14.53)"/>
    <ellipse class="cls-8" cx="11.53" cy="12.3" rx=".01" ry=".05" transform="translate(-1.17 1.21) rotate(-5.72)"/>
    <ellipse class="cls-8" cx="11.48" cy="12.3" rx=".05" ry=".01" transform="translate(-2.05 22.3) rotate(-83.41)"/>
    <ellipse class="cls-8" cx="11.44" cy="12.3" rx=".05" ry=".01" transform="translate(-4.24 18.31) rotate(-68.06)"/>
    <ellipse class="cls-8" cx="11.4" cy="12.28" rx=".05" ry=".01" transform="translate(-4.98 15.81) rotate(-59.27)"/>
    <ellipse class="cls-8" cx="11.36" cy="12.26" rx=".05" ry=".01" transform="translate(-5.35 12.16) rotate(-46.83)"/>
    <ellipse class="cls-8" cx="11.56" cy="11.65" rx=".01" ry=".05" transform="translate(-3.58 5.31) rotate(-22.51)"/>
    <ellipse class="cls-8" cx="11.6" cy="11.63" rx=".01" ry=".05" transform="translate(-2.42 3.06) rotate(-13.65)"/>
    <ellipse class="cls-8" cx="11.64" cy="11.62" rx=".01" ry=".05" transform="translate(-.26 .27) rotate(-1.29)"/>
    <ellipse class="cls-8" cx="11.69" cy="11.62" rx=".05" ry=".01" transform="translate(-2.42 20.13) rotate(-75.94)"/>
    <ellipse class="cls-8" cx="11.73" cy="11.63" rx=".05" ry=".01" transform="translate(-3.54 17.92) rotate(-67.17)"/>
    <ellipse class="cls-8" cx="11.77" cy="11.65" rx=".05" ry=".01" transform="translate(-4.53 14.55) rotate(-54.81)"/>
    <ellipse class="cls-8" cx="12.43" cy="11.96" rx=".05" ry=".01" transform="translate(-3.85 6.25) rotate(-24.55)"/>
    <ellipse class="cls-8" cx="12.45" cy="12" rx=".05" ry=".01" transform="translate(-2.74 3.74) rotate(-15.43)"/>
    <ellipse class="cls-8" cx="12.46" cy="12.05" rx=".05" ry=".01" transform="translate(-.52 .56) rotate(-2.51)"/>
    <ellipse class="cls-8" cx="12.46" cy="12.1" rx=".01" ry=".05" transform="translate(-2.24 21.34) rotate(-76.3)"/>
    <ellipse class="cls-8" cx="12.45" cy="12.13" rx=".01" ry=".05" transform="translate(-3.58 18.87) rotate(-67.06)"/>
    <ellipse class="cls-8" cx="12.43" cy="12.18" rx=".01" ry=".05" transform="translate(-4.72 15.12) rotate(-54.15)"/>
  </g>
  <g>
    <path class="cls-12" d="m10.63,15.19s-.24.59.44.94,1.19.34,1.19.34c0,0,.29,0,.56-.13s.64-.4.65-.72c0,0-.44.52-1.12.47s-1.28-.18-1.73-.9Z"/>
    <ellipse class="cls-14" cx="12.07" cy="15.35" rx=".86" ry="1.44" transform="translate(-4.49 25.7) rotate(-83.85)"/>
    <path class="cls-12" d="m11.71,14.64s.62-.16,1.05.19c.11.09-.04.13-.09.13-.03,0-.14.03-.21.08-.09.06-.11.07-.12.09-.03.05-.06-.05-.15-.07s-.21.07-.24.03c-.04-.07-.13-.11-.14-.15-.02-.07-.23-.18-.1-.3Z"/>
    <path class="cls-12" d="m13.15,15.03s.2.16.17.41c-.02.13-.15.31-.3.44-.11.1-.37.16-.37.09,0-.03.03-.11-.03-.21-.03-.05-.06-.09-.09-.13-.04-.04-.03-.07.06-.06.08,0,.16-.02.19-.11.05-.21-.08-.13-.1-.15s.04-.12.09-.12c.09,0,.26-.33.39-.16Z"/>
    <path class="cls-12" d="m12.37,16.07s-.73.11-1.18-.33c-.11-.11.07-.15.13-.16.03,0,.16-.03.26-.08.08-.04.13-.1.17-.14.02-.02-.02.08.15.1s.2-.03.21,0c.02.06.03.12.03.16,0,.09.4.31.23.44Z"/>
    <path class="cls-12" d="m10.98,15.54s-.16-.16-.1-.38c.03-.11.16-.26.31-.37.11-.08.34-.11.33-.06,0,.03-.04.1,0,.19.04.1.11.18.14.2.05.04-.1,0-.14.08s.12.15.08.16c-.08.03-.17.03-.23.03-.08,0-.29.31-.39.15Z"/>
    <ellipse class="cls-8" cx="11.45" cy="15.04" rx=".01" ry=".05" transform="translate(-7.44 14.34) rotate(-50.58)"/>
    <ellipse class="cls-8" cx="11.43" cy="15.07" rx=".01" ry=".05" transform="translate(-7.35 17.36) rotate(-59.78)"/>
    <ellipse class="cls-8" cx="11.4" cy="15.12" rx=".01" ry=".05" transform="translate(-6.41 21.53) rotate(-72.76)"/>
    <ellipse class="cls-8" cx="11.39" cy="15.16" rx=".01" ry=".05" transform="translate(-3.98 26.27) rotate(-88.96)"/>
    <ellipse class="cls-8" cx="11.39" cy="15.2" rx=".05" ry=".01" transform="translate(-2.04 1.77) rotate(-8.15)"/>
    <ellipse class="cls-8" cx="11.39" cy="15.25" rx=".05" ry=".01" transform="translate(-4.7 5.08) rotate(-20.95)"/>
    <ellipse class="cls-8" cx="11.99" cy="15.59" rx=".01" ry=".05" transform="translate(-1.87 1.64) rotate(-7.26)"/>
    <ellipse class="cls-8" cx="11.95" cy="15.6" rx=".05" ry=".01" transform="translate(-3.96 27.12) rotate(-88.45)"/>
    <ellipse class="cls-8" cx="11.9" cy="15.6" rx=".05" ry=".01" transform="translate(-6.09 23.41) rotate(-76.14)"/>
    <ellipse class="cls-8" cx="11.86" cy="15.58" rx=".05" ry=".01" transform="translate(-7.53 18.32) rotate(-60.78)"/>
    <ellipse class="cls-8" cx="11.82" cy="15.57" rx=".05" ry=".01" transform="translate(-7.72 15.3) rotate(-51.99)"/>
    <ellipse class="cls-8" cx="11.78" cy="15.53" rx=".05" ry=".01" transform="translate(-7.19 11.06) rotate(-39.56)"/>
    <ellipse class="cls-8" cx="12.06" cy="14.96" rx=".01" ry=".05" transform="translate(-3.51 3.69) rotate(-15.23)"/>
    <ellipse class="cls-8" cx="12.1" cy="14.94" rx=".01" ry=".05" transform="translate(-1.58 1.43) rotate(-6.37)"/>
    <ellipse class="cls-8" cx="12.15" cy="14.94" rx=".05" ry=".01" transform="translate(-3.98 25.46) rotate(-84.02)"/>
    <ellipse class="cls-8" cx="12.19" cy="14.94" rx=".05" ry=".01" transform="translate(-6.16 20.86) rotate(-68.66)"/>
    <ellipse class="cls-8" cx="12.23" cy="14.96" rx=".05" ry=".01" transform="translate(-6.84 18.03) rotate(-59.9)"/>
    <ellipse class="cls-8" cx="12.27" cy="14.98" rx=".05" ry=".01" transform="translate(-7.06 13.92) rotate(-47.53)"/>
    <ellipse class="cls-8" cx="12.88" cy="15.38" rx=".05" ry=".01" transform="translate(-3.99 4.52) rotate(-17.27)"/>
    <ellipse class="cls-8" cx="12.89" cy="15.42" rx=".05" ry=".01" transform="translate(-2.06 1.98) rotate(-8.15)"/>
    <ellipse class="cls-8" cx="12.9" cy="15.47" rx=".01" ry=".05" transform="translate(-3.58 27.04) rotate(-85.23)"/>
    <ellipse class="cls-8" cx="12.9" cy="15.51" rx=".01" ry=".05" transform="translate(-6.21 22) rotate(-69.02)"/>
    <ellipse class="cls-8" cx="12.88" cy="15.55" rx=".01" ry=".05" transform="translate(-7.04 18.86) rotate(-59.78)"/>
    <ellipse class="cls-8" cx="12.86" cy="15.59" rx=".01" ry=".05" transform="translate(-7.31 14.32) rotate(-46.87)"/>
  </g>
  <g>
    <path class="cls-12" d="m9.38,15.93s-.24.59.44.94,1.19.34,1.19.34c0,0,.29,0,.56-.13s.64-.4.65-.72c0,0-.44.52-1.12.47s-1.28-.18-1.73-.9Z"/>
    <ellipse class="cls-14" cx="10.81" cy="16.09" rx=".86" ry="1.44" transform="translate(-6.35 25.12) rotate(-83.85)"/>
    <path class="cls-12" d="m10.46,15.38s.62-.16,1.05.19c.11.09-.04.13-.09.13-.03,0-.14.03-.21.08-.09.06-.11.07-.12.09-.03.05-.06-.05-.15-.07s-.21.07-.24.03c-.04-.07-.13-.11-.14-.15-.02-.07-.23-.18-.1-.3Z"/>
    <path class="cls-12" d="m11.9,15.77s.2.16.17.41c-.02.13-.15.31-.3.44-.11.1-.37.16-.37.09,0-.03.03-.11-.03-.21-.03-.05-.06-.09-.09-.13-.04-.04-.03-.07.06-.06.08,0,.16-.02.19-.11.05-.21-.08-.13-.1-.15s.04-.12.09-.12c.09,0,.26-.33.39-.16Z"/>
    <path class="cls-12" d="m11.12,16.81s-.73.11-1.18-.33c-.11-.11.07-.15.13-.16.03,0,.16-.03.26-.08.08-.04.13-.1.17-.14.02-.02-.02.08.15.1s.2-.03.21,0c.02.06.03.12.03.16,0,.09.4.31.23.44Z"/>
    <path class="cls-12" d="m9.73,16.28s-.16-.16-.1-.38c.03-.11.16-.26.31-.37.11-.08.34-.11.33-.06,0,.03-.04.1,0,.19.04.1.11.18.14.2.05.04-.1,0-.14.08s.12.15.08.16c-.08.03-.17.03-.23.03-.08,0-.29.31-.39.15Z"/>
    <ellipse class="cls-8" cx="10.2" cy="15.78" rx=".01" ry=".05" transform="translate(-8.47 13.64) rotate(-50.58)"/>
    <ellipse class="cls-8" cx="10.18" cy="15.81" rx=".01" ry=".05" transform="translate(-8.61 16.65) rotate(-59.78)"/>
    <ellipse class="cls-8" cx="10.15" cy="15.86" rx=".01" ry=".05" transform="translate(-8 20.85) rotate(-72.76)"/>
    <ellipse class="cls-8" cx="10.14" cy="15.9" rx=".01" ry=".05" transform="translate(-5.95 25.75) rotate(-88.96)"/>
    <ellipse class="cls-8" cx="10.14" cy="15.94" rx=".05" ry=".01" transform="translate(-2.16 1.6) rotate(-8.15)"/>
    <ellipse class="cls-8" cx="10.14" cy="15.99" rx=".05" ry=".01" transform="translate(-5.05 4.68) rotate(-20.95)"/>
    <ellipse class="cls-8" cx="10.74" cy="16.33" rx=".01" ry=".05" transform="translate(-1.98 1.49) rotate(-7.26)"/>
    <ellipse class="cls-8" cx="10.7" cy="16.34" rx=".05" ry=".01" transform="translate(-5.92 26.59) rotate(-88.45)"/>
    <ellipse class="cls-8" cx="10.65" cy="16.34" rx=".05" ry=".01" transform="translate(-7.76 22.76) rotate(-76.14)"/>
    <ellipse class="cls-8" cx="10.6" cy="16.33" rx=".05" ry=".01" transform="translate(-8.82 17.61) rotate(-60.78)"/>
    <ellipse class="cls-8" cx="10.57" cy="16.31" rx=".05" ry=".01" transform="translate(-8.79 14.59) rotate(-51.99)"/>
    <ellipse class="cls-8" cx="10.53" cy="16.28" rx=".05" ry=".01" transform="translate(-7.95 10.43) rotate(-39.56)"/>
    <ellipse class="cls-8" cx="10.81" cy="15.7" rx=".01" ry=".05" transform="translate(-3.74 3.39) rotate(-15.23)"/>
    <ellipse class="cls-8" cx="10.84" cy="15.68" rx=".01" ry=".05" transform="translate(-1.67 1.3) rotate(-6.37)"/>
    <ellipse class="cls-8" cx="10.89" cy="15.68" rx=".05" ry=".01" transform="translate(-5.84 24.88) rotate(-84.02)"/>
    <ellipse class="cls-8" cx="10.94" cy="15.68" rx=".05" ry=".01" transform="translate(-7.65 20.17) rotate(-68.66)"/>
    <ellipse class="cls-8" cx="10.98" cy="15.7" rx=".05" ry=".01" transform="translate(-8.11 17.32) rotate(-59.9)"/>
    <ellipse class="cls-8" cx="11.02" cy="15.72" rx=".05" ry=".01" transform="translate(-8.02 13.23) rotate(-47.53)"/>
    <ellipse class="cls-8" cx="11.63" cy="16.12" rx=".05" ry=".01" transform="translate(-4.26 4.18) rotate(-17.27)"/>
    <ellipse class="cls-8" cx="11.64" cy="16.16" rx=".05" ry=".01" transform="translate(-2.17 1.81) rotate(-8.15)"/>
    <ellipse class="cls-8" cx="11.65" cy="16.21" rx=".01" ry=".05" transform="translate(-5.47 26.47) rotate(-85.23)"/>
    <ellipse class="cls-8" cx="11.64" cy="16.25" rx=".01" ry=".05" transform="translate(-7.7 21.31) rotate(-69.02)"/>
    <ellipse class="cls-8" cx="11.63" cy="16.29" rx=".01" ry=".05" transform="translate(-8.3 18.14) rotate(-59.78)"/>
    <ellipse class="cls-8" cx="11.61" cy="16.33" rx=".01" ry=".05" transform="translate(-8.25 13.64) rotate(-46.87)"/>
  </g>
  <g>
    <path class="cls-5" d="m7.97,12.9s.19-.04.32.02.21.12.37.14.24.02.3.11.13.16.13.16c0,0,.13.23.07.36s-.15.17-.15.17c0,0-.04.01-.09.07s-.11.16-.28.13-.24-.07-.3-.2-.15-.22-.18-.27-.04-.23-.04-.23c0,0-.04-.13-.07-.16s-.2-.28-.08-.29Z"/>
    <path class="cls-7" d="m9.25,16.25s0,.06-.05.08-.66.1-.68.1-.42.07-.51.06c0,0,.06-.05,0-.05s-.19.08-.41.04-.15-.09-.15-.09c0,0,.08-.09-.02-.09s-.14,0-.08-.09-.08-.13-.08-.13c0,0-.1-.06.22-.13s1.26-.58,1.49-.24c0,0-.03.11.05.29s.23.24.23.24Z"/>
    <path class="cls-3" d="m9.26,16.24s0,.18.47-.04c.51-.21.65-.63.65-.63.54-.05.5-.59.5-.59,0,0,.48-.1.36-1.02s-.31-.68-.29-.77-.29-.42-.56-.64-.67-.13-.67-.13c-.66-.22-1.03.13-1.03.13-.08-.03-.16.08-.39.14s-.32.21-.32.21c0,0,.19-.04.32.02s.21.12.37.14.24.02.3.11.13.16.13.16c0,0,.12.22.07.36.06.03.14-.04.14-.04.18.11.41.09.41.09.02.2.31.28.31.28,0,0-.1.37,0,.49-.26.06-.22.32-.22.32-.34-.06-.79.9-.8.89,0,0-.03.1.05.3s.22.23.22.23Z"/>
    <path class="cls-2" d="m9.19,13.66s.05.01.08-.04-.07-.3-.11-.35-.18-.12-.2-.14-.02.03.1.15.15.3.13.39Z"/>
    <path class="cls-2" d="m8.73,12.56s.25.06.45.25c0,0,0-.05-.06-.11s-.26-.21-.33-.18c-.07.03-.06.04-.06.04Z"/>
    <path class="cls-2" d="m9.74,12.46s.18.12.15.51c0,0,.03-.02.03-.08.02-.17,0-.41-.07-.44-.04,0-.06-.02-.11,0Z"/>
    <path class="cls-2" d="m10.95,13.25c-.12.17-.28.33-.45.46,0,0,.55-.28.56-.37-.02-.08-.11-.09-.11-.09Z"/>
    <path class="cls-2" d="m10.81,14.99s-.36-.08-.48-.23c0,0,.08.19.46.31,0,0,.04-.02.02-.09Z"/>
    <path class="cls-2" d="m10.32,15.55s-.29-.12-.37-.33c0,0,.05.22.27.38.08.05.1-.05.1-.05Z"/>
    <path class="cls-1" d="m7.97,13s-.04-.07.03-.07.09,0,.16,0c.08,0,.19.09.29.13-.01.05-.17,0-.22-.04-.08-.04-.11-.03-.15-.02s-.09.04-.11.01Z"/>
  </g>
  <g>
    <path class="cls-12" d="m22.31,15.52s-.07.63.69.78,1.24,0,1.24,0c0,0,.28-.08.51-.28s.51-.56.42-.87c0,0-.28.63-.94.77s-1.28.19-1.91-.39Z"/>
    <ellipse class="cls-14" cx="23.73" cy="15.28" rx="1.44" ry=".86" transform="translate(-2.29 4.34) rotate(-9.97)"/>
    <path class="cls-12" d="m23.2,14.69s.56-.33,1.06-.11c.13.05,0,.13-.05.15-.03,0-.12.07-.18.14-.07.08-.09.09-.09.12-.01.05-.07-.03-.16-.03s-.18.13-.22.09c-.06-.05-.15-.07-.17-.11-.04-.07-.27-.11-.18-.26Z"/>
    <path class="cls-12" d="m24.69,14.67s.24.1.28.35c.02.13-.06.34-.17.51-.08.13-.31.25-.33.19,0-.03,0-.12-.09-.2-.04-.04-.09-.07-.13-.09-.05-.03-.05-.06.04-.08.08-.02.15-.06.15-.16-.01-.21-.11-.1-.14-.12s0-.13.06-.14c.08-.03.15-.39.33-.26Z"/>
    <path class="cls-12" d="m24.23,15.88s-.67.31-1.23.02c-.14-.07.02-.17.08-.19.03,0,.15-.07.23-.15.06-.06.1-.13.13-.18.01-.02,0,.08.18.05s.18-.08.2-.06c.03.05.06.11.07.15.03.09.47.19.34.36Z"/>
    <path class="cls-12" d="m22.74,15.75s-.2-.11-.21-.34c0-.12.08-.3.2-.45.08-.11.29-.2.3-.15,0,.03,0,.11.06.18.07.09.16.14.19.15.05.03-.09.03-.12.12s.16.11.12.14c-.07.05-.16.08-.21.09-.08.02-.2.38-.33.25Z"/>
    <ellipse class="cls-8" cx="23.06" cy="15.15" rx=".01" ry=".05" transform="translate(.03 30.33) rotate(-66.7)"/>
    <ellipse class="cls-8" cx="23.04" cy="15.18" rx=".01" ry=".05" transform="translate(2.7 33.83) rotate(-75.9)"/>
    <ellipse class="cls-8" cx="23.03" cy="15.23" rx=".01" ry=".05" transform="translate(7.35 37.96) rotate(-88.88)"/>
    <ellipse class="cls-8" cx="23.03" cy="15.28" rx=".05" ry=".01" transform="translate(-3.18 6.52) rotate(-15.08)"/>
    <ellipse class="cls-8" cx="23.04" cy="15.32" rx=".05" ry=".01" transform="translate(-4.26 10.82) rotate(-24.27)"/>
    <ellipse class="cls-8" cx="23.06" cy="15.36" rx=".05" ry=".01" transform="translate(-4.6 17) rotate(-37.07)"/>
    <ellipse class="cls-8" cx="23.73" cy="15.52" rx=".01" ry=".05" transform="translate(-4.21 10.69) rotate(-23.38)"/>
    <ellipse class="cls-8" cx="23.69" cy="15.54" rx=".01" ry=".05" transform="translate(-3.15 6.46) rotate(-14.57)"/>
    <ellipse class="cls-8" cx="23.64" cy="15.55" rx=".01" ry=".05" transform="translate(-.59 .94) rotate(-2.26)"/>
    <ellipse class="cls-8" cx="23.6" cy="15.56" rx=".05" ry=".01" transform="translate(3.1 35.01) rotate(-76.9)"/>
    <ellipse class="cls-8" cx="23.56" cy="15.55" rx=".05" ry=".01" transform="translate(.35 31.61) rotate(-68.11)"/>
    <ellipse class="cls-8" cx="23.51" cy="15.53" rx=".05" ry=".01" transform="translate(-2.57 26.19) rotate(-55.68)"/>
    <ellipse class="cls-8" cx="23.62" cy="14.89" rx=".01" ry=".05" transform="translate(-4.3 14.46) rotate(-31.35)"/>
    <ellipse class="cls-8" cx="23.65" cy="14.87" rx=".01" ry=".05" transform="translate(-3.89 10.18) rotate(-22.49)"/>
    <ellipse class="cls-8" cx="23.69" cy="14.85" rx=".01" ry=".05" transform="translate(-2.24 4.4) rotate(-10.14)"/>
    <ellipse class="cls-8" cx="23.74" cy="14.84" rx=".05" ry=".01" transform="translate(6.8 37.14) rotate(-84.78)"/>
    <ellipse class="cls-8" cx="23.78" cy="14.85" rx=".05" ry=".01" transform="translate(3.63 34.34) rotate(-76.02)"/>
    <ellipse class="cls-8" cx="23.83" cy="14.86" rx=".05" ry=".01" transform="translate(-.06 29.62) rotate(-63.65)"/>
    <ellipse class="cls-8" cx="24.53" cy="15.07" rx=".05" ry=".01" transform="translate(-4.25 15.99) rotate(-33.39)"/>
    <ellipse class="cls-8" cx="24.55" cy="15.11" rx=".05" ry=".01" transform="translate(-4.04 11.42) rotate(-24.27)"/>
    <ellipse class="cls-8" cx="24.57" cy="15.15" rx=".05" ry=".01" transform="translate(-2.5 5.13) rotate(-11.35)"/>
    <ellipse class="cls-8" cx="24.58" cy="15.2" rx=".01" ry=".05" transform="translate(7.35 38.4) rotate(-85.14)"/>
    <ellipse class="cls-8" cx="24.57" cy="15.24" rx=".01" ry=".05" transform="translate(3.81 35.36) rotate(-75.9)"/>
    <ellipse class="cls-8" cx="24.56" cy="15.29" rx=".01" ry=".05" transform="translate(-.21 30.23) rotate(-62.99)"/>
  </g>
  <g>
    <path class="cls-12" d="m6.85,17.28s-.16.61.56.88,1.22.18,1.22.18c0,0,.29-.03.54-.2s.59-.48.55-.8c0,0-.37.58-1.05.61s-1.29-.01-1.83-.67Z"/>
    <ellipse class="cls-14" cx="8.29" cy="17.25" rx="1.44" ry=".86" transform="translate(-.34 .17) rotate(-1.13)"/>
    <path class="cls-12" d="m7.85,16.59s.6-.24,1.06.06c.12.07-.02.13-.08.14-.03,0-.13.05-.2.11-.08.07-.1.08-.11.11-.02.05-.06-.04-.15-.05s-.2.1-.23.06c-.05-.06-.14-.09-.15-.13-.03-.07-.25-.15-.14-.28Z"/>
    <path class="cls-12" d="m9.33,16.8s.22.14.22.39c0,.13-.11.32-.24.48-.1.11-.34.2-.35.14,0-.03.01-.12-.05-.21-.03-.05-.07-.08-.11-.11-.04-.03-.04-.06.05-.07.08,0,.16-.04.17-.13.02-.21-.09-.12-.12-.14s.03-.12.08-.13c.09-.01.21-.36.36-.21Z"/>
    <path class="cls-12" d="m8.69,17.93s-.71.2-1.22-.17c-.13-.09.05-.16.11-.17.03,0,.16-.05.25-.12.07-.05.12-.12.15-.16.01-.02-.01.08.17.08s.19-.05.2-.02c.03.06.04.12.05.16.02.09.43.26.28.41Z"/>
    <path class="cls-12" d="m7.24,17.57s-.18-.14-.15-.37c.01-.12.13-.28.26-.41.1-.09.32-.16.32-.1,0,.03-.02.1.03.19.05.09.14.16.16.18.05.03-.1.02-.13.1s.14.13.1.15c-.08.04-.17.06-.22.06-.08,0-.25.34-.37.2Z"/>
    <ellipse class="cls-8" cx="7.65" cy="17.02" rx=".01" ry=".05" transform="translate(-10.84 14.44) rotate(-57.85)"/>
    <ellipse class="cls-8" cx="7.63" cy="17.06" rx=".01" ry=".05" transform="translate(-11.05 17.43) rotate(-67.06)"/>
    <ellipse class="cls-8" cx="7.61" cy="17.1" rx=".01" ry=".05" transform="translate(-10.55 21.64) rotate(-80.04)"/>
    <ellipse class="cls-8" cx="7.6" cy="17.15" rx=".05" ry=".01" transform="translate(-1.82 .93) rotate(-6.24)"/>
    <ellipse class="cls-8" cx="7.6" cy="17.19" rx=".05" ry=".01" transform="translate(-4.3 2.64) rotate(-15.43)"/>
    <ellipse class="cls-8" cx="7.61" cy="17.24" rx=".05" ry=".01" transform="translate(-7.25 5.65) rotate(-28.22)"/>
    <ellipse class="cls-8" cx="8.25" cy="17.5" rx=".01" ry=".05" transform="translate(-4.13 2.63) rotate(-14.53)"/>
    <ellipse class="cls-8" cx="8.21" cy="17.51" rx=".01" ry=".05" transform="translate(-1.71 .91) rotate(-5.72)"/>
    <ellipse class="cls-8" cx="8.16" cy="17.51" rx=".05" ry=".01" transform="translate(-10.17 23.61) rotate(-83.41)"/>
    <ellipse class="cls-8" cx="8.11" cy="17.51" rx=".05" ry=".01" transform="translate(-11.16 18.49) rotate(-68.06)"/>
    <ellipse class="cls-8" cx="8.08" cy="17.49" rx=".05" ry=".01" transform="translate(-11.09 15.5) rotate(-59.27)"/>
    <ellipse class="cls-8" cx="8.04" cy="17.47" rx=".05" ry=".01" transform="translate(-10.2 11.38) rotate(-46.83)"/>
    <ellipse class="cls-8" cx="8.24" cy="16.86" rx=".01" ry=".05" transform="translate(-5.83 4.44) rotate(-22.51)"/>
    <ellipse class="cls-8" cx="8.27" cy="16.84" rx=".01" ry=".05" transform="translate(-3.74 2.43) rotate(-13.65)"/>
    <ellipse class="cls-8" cx="8.32" cy="16.83" rx=".01" ry=".05" transform="translate(-.38 .19) rotate(-1.29)"/>
    <ellipse class="cls-8" cx="8.37" cy="16.83" rx=".05" ry=".01" transform="translate(-9.99 20.86) rotate(-75.94)"/>
    <ellipse class="cls-8" cx="8.4" cy="16.84" rx=".05" ry=".01" transform="translate(-10.38 18.05) rotate(-67.17)"/>
    <ellipse class="cls-8" cx="8.45" cy="16.86" rx=".05" ry=".01" transform="translate(-10.2 14.05) rotate(-54.81)"/>
    <ellipse class="cls-8" cx="9.11" cy="17.17" rx=".05" ry=".01" transform="translate(-6.31 5.34) rotate(-24.55)"/>
    <ellipse class="cls-8" cx="9.12" cy="17.21" rx=".05" ry=".01" transform="translate(-4.25 3.05) rotate(-15.43)"/>
    <ellipse class="cls-8" cx="9.14" cy="17.26" rx=".05" ry=".01" transform="translate(-.75 .42) rotate(-2.51)"/>
    <ellipse class="cls-8" cx="9.14" cy="17.31" rx=".01" ry=".05" transform="translate(-9.84 22.08) rotate(-76.3)"/>
    <ellipse class="cls-8" cx="9.13" cy="17.35" rx=".01" ry=".05" transform="translate(-10.4 18.99) rotate(-67.06)"/>
    <ellipse class="cls-8" cx="9.11" cy="17.39" rx=".01" ry=".05" transform="translate(-10.32 14.59) rotate(-54.15)"/>
  </g>
  <g>
    <path class="cls-12" d="m14.07,11.91s-.16.61.56.88,1.22.18,1.22.18c0,0,.29-.03.54-.2s.59-.48.55-.8c0,0-.37.58-1.05.61s-1.29-.01-1.83-.67Z"/>
    <ellipse class="cls-14" cx="15.52" cy="11.89" rx="1.44" ry=".86" transform="translate(-.23 .31) rotate(-1.13)"/>
    <path class="cls-12" d="m15.08,11.23s.6-.24,1.06.06c.12.07-.02.13-.08.14-.03,0-.13.05-.2.11-.08.07-.1.08-.11.11-.02.05-.06-.04-.15-.05s-.2.1-.23.06c-.05-.06-.14-.09-.15-.13-.03-.07-.25-.15-.14-.28Z"/>
    <path class="cls-12" d="m16.55,11.43s.22.14.22.39c0,.13-.11.32-.24.48-.1.11-.34.2-.35.14,0-.03.01-.12-.05-.21-.03-.05-.07-.08-.11-.11-.04-.03-.04-.06.05-.07.08,0,.16-.04.17-.13.02-.21-.09-.12-.12-.14s.03-.12.08-.13c.09-.01.21-.36.36-.21Z"/>
    <path class="cls-12" d="m15.91,12.56s-.71.2-1.22-.17c-.13-.09.05-.16.11-.17.03,0,.16-.05.25-.12.07-.05.12-.12.15-.16.01-.02-.01.08.17.08s.19-.05.2-.02c.03.06.04.12.05.16.02.09.43.26.28.41Z"/>
    <path class="cls-12" d="m14.46,12.21s-.18-.14-.15-.37c.01-.12.13-.28.26-.41.1-.09.32-.16.32-.1,0,.03-.02.1.03.19.05.09.14.16.16.18.05.03-.1.02-.13.1s.14.13.1.15c-.08.04-.17.06-.22.06-.08,0-.25.34-.37.2Z"/>
    <ellipse class="cls-8" cx="14.87" cy="11.66" rx=".01" ry=".05" transform="translate(-2.91 18.05) rotate(-57.85)"/>
    <ellipse class="cls-8" cx="14.85" cy="11.69" rx=".01" ry=".05" transform="translate(-1.71 20.81) rotate(-67.06)"/>
    <ellipse class="cls-8" cx="14.83" cy="11.74" rx=".01" ry=".05" transform="translate(.7 24.31) rotate(-80.04)"/>
    <ellipse class="cls-8" cx="14.82" cy="11.78" rx=".05" ry=".01" transform="translate(-1.19 1.68) rotate(-6.24)"/>
    <ellipse class="cls-8" cx="14.83" cy="11.82" rx=".05" ry=".01" transform="translate(-2.61 4.37) rotate(-15.43)"/>
    <ellipse class="cls-8" cx="14.84" cy="11.87" rx=".05" ry=".01" transform="translate(-3.85 8.43) rotate(-28.22)"/>
    <ellipse class="cls-8" cx="15.47" cy="12.13" rx=".01" ry=".05" transform="translate(-2.55 4.27) rotate(-14.53)"/>
    <ellipse class="cls-8" cx="15.43" cy="12.14" rx=".01" ry=".05" transform="translate(-1.13 1.6) rotate(-5.72)"/>
    <ellipse class="cls-8" cx="15.39" cy="12.15" rx=".05" ry=".01" transform="translate(1.55 26.04) rotate(-83.41)"/>
    <ellipse class="cls-8" cx="15.34" cy="12.14" rx=".05" ry=".01" transform="translate(-1.66 21.83) rotate(-68.06)"/>
    <ellipse class="cls-8" cx="15.3" cy="12.13" rx=".05" ry=".01" transform="translate(-2.94 19.08) rotate(-59.27)"/>
    <ellipse class="cls-8" cx="15.26" cy="12.1" rx=".05" ry=".01" transform="translate(-4.01 14.95) rotate(-46.83)"/>
    <ellipse class="cls-8" cx="15.46" cy="11.49" rx=".01" ry=".05" transform="translate(-3.22 6.79) rotate(-22.51)"/>
    <ellipse class="cls-8" cx="15.5" cy="11.48" rx=".01" ry=".05" transform="translate(-2.27 3.98) rotate(-13.65)"/>
    <ellipse class="cls-8" cx="15.54" cy="11.47" rx=".01" ry=".05" transform="translate(-.25 .35) rotate(-1.29)"/>
    <ellipse class="cls-8" cx="15.59" cy="11.46" rx=".05" ry=".01" transform="translate(.68 23.8) rotate(-75.94)"/>
    <ellipse class="cls-8" cx="15.63" cy="11.47" rx=".05" ry=".01" transform="translate(-1.01 21.43) rotate(-67.17)"/>
    <ellipse class="cls-8" cx="15.67" cy="11.49" rx=".05" ry=".01" transform="translate(-2.75 17.68) rotate(-54.81)"/>
    <ellipse class="cls-8" cx="16.33" cy="11.81" rx=".05" ry=".01" transform="translate(-3.43 7.85) rotate(-24.55)"/>
    <ellipse class="cls-8" cx="16.35" cy="11.85" rx=".05" ry=".01" transform="translate(-2.56 4.78) rotate(-15.43)"/>
    <ellipse class="cls-8" cx="16.36" cy="11.89" rx=".05" ry=".01" transform="translate(-.51 .73) rotate(-2.51)"/>
    <ellipse class="cls-8" cx="16.36" cy="11.94" rx=".01" ry=".05" transform="translate(.88 25.01) rotate(-76.3)"/>
    <ellipse class="cls-8" cx="16.35" cy="11.98" rx=".01" ry=".05" transform="translate(-1.05 22.37) rotate(-67.06)"/>
    <ellipse class="cls-8" cx="16.33" cy="12.03" rx=".01" ry=".05" transform="translate(-2.98 18.22) rotate(-54.15)"/>
  </g>
  <g>
    <path class="cls-12" d="m15.04,15.65s-.16.61.56.88,1.22.18,1.22.18c0,0,.29-.03.54-.2s.59-.48.55-.8c0,0-.37.58-1.05.61s-1.29-.01-1.83-.67Z"/>
    <ellipse class="cls-14" cx="16.49" cy="15.62" rx="1.44" ry=".86" transform="translate(-.3 .33) rotate(-1.13)"/>
    <path class="cls-12" d="m16.05,14.96s.6-.24,1.06.06c.12.07-.02.13-.08.14-.03,0-.13.05-.2.11-.08.07-.1.08-.11.11-.02.05-.06-.04-.15-.05s-.2.1-.23.06c-.05-.06-.14-.09-.15-.13-.03-.07-.25-.15-.14-.28Z"/>
    <path class="cls-12" d="m17.52,15.17s.22.14.22.39c0,.13-.11.32-.24.48-.1.11-.34.2-.35.14,0-.03.01-.12-.05-.21-.03-.05-.07-.08-.11-.11-.04-.03-.04-.06.05-.07.08,0,.16-.04.17-.13.02-.21-.09-.12-.12-.14s.03-.12.08-.13c.09-.01.21-.36.36-.21Z"/>
    <path class="cls-12" d="m16.88,16.3s-.71.2-1.22-.17c-.13-.09.05-.16.11-.17.03,0,.16-.05.25-.12.07-.05.12-.12.15-.16.01-.02-.01.08.17.08s.19-.05.2-.02c.03.06.04.12.05.16.02.09.43.26.28.41Z"/>
    <path class="cls-12" d="m15.43,15.94s-.18-.14-.15-.37c.01-.12.13-.28.26-.41.1-.09.32-.16.32-.1,0,.03-.02.1.03.19.05.09.14.16.16.18.05.03-.1.02-.13.1s.14.13.1.15c-.08.04-.17.06-.22.06-.08,0-.25.34-.37.2Z"/>
    <ellipse class="cls-8" cx="15.84" cy="15.39" rx=".01" ry=".05" transform="translate(-5.62 20.62) rotate(-57.85)"/>
    <ellipse class="cls-8" cx="15.82" cy="15.43" rx=".01" ry=".05" transform="translate(-4.55 23.98) rotate(-67.06)"/>
    <ellipse class="cls-8" cx="15.8" cy="15.47" rx=".01" ry=".05" transform="translate(-2.17 28.36) rotate(-80.04)"/>
    <ellipse class="cls-8" cx="15.79" cy="15.52" rx=".05" ry=".01" transform="translate(-1.59 1.81) rotate(-6.24)"/>
    <ellipse class="cls-8" cx="15.8" cy="15.56" rx=".05" ry=".01" transform="translate(-3.57 4.76) rotate(-15.43)"/>
    <ellipse class="cls-8" cx="15.81" cy="15.61" rx=".05" ry=".01" transform="translate(-5.5 9.33) rotate(-28.22)"/>
    <ellipse class="cls-8" cx="16.44" cy="15.87" rx=".01" ry=".05" transform="translate(-3.46 4.63) rotate(-14.53)"/>
    <ellipse class="cls-8" cx="16.41" cy="15.88" rx=".01" ry=".05" transform="translate(-1.5 1.72) rotate(-5.72)"/>
    <ellipse class="cls-8" cx="16.36" cy="15.89" rx=".05" ry=".01" transform="translate(-1.3 30.31) rotate(-83.41)"/>
    <ellipse class="cls-8" cx="16.31" cy="15.88" rx=".05" ry=".01" transform="translate(-4.52 25.07) rotate(-68.06)"/>
    <ellipse class="cls-8" cx="16.27" cy="15.87" rx=".05" ry=".01" transform="translate(-5.68 21.75) rotate(-59.27)"/>
    <ellipse class="cls-8" cx="16.23" cy="15.84" rx=".05" ry=".01" transform="translate(-6.43 16.84) rotate(-46.83)"/>
    <ellipse class="cls-8" cx="16.43" cy="15.23" rx=".01" ry=".05" transform="translate(-4.58 7.45) rotate(-22.51)"/>
    <ellipse class="cls-8" cx="16.47" cy="15.22" rx=".01" ry=".05" transform="translate(-3.12 4.31) rotate(-13.65)"/>
    <ellipse class="cls-8" cx="16.51" cy="15.2" rx=".01" ry=".05" transform="translate(-.34 .38) rotate(-1.29)"/>
    <ellipse class="cls-8" cx="16.56" cy="15.2" rx=".05" ry=".01" transform="translate(-2.21 27.57) rotate(-75.94)"/>
    <ellipse class="cls-8" cx="16.6" cy="15.21" rx=".05" ry=".01" transform="translate(-3.86 24.61) rotate(-67.17)"/>
    <ellipse class="cls-8" cx="16.64" cy="15.23" rx=".05" ry=".01" transform="translate(-5.39 20.05) rotate(-54.81)"/>
    <ellipse class="cls-8" cx="17.3" cy="15.55" rx=".05" ry=".01" transform="translate(-4.9 8.59) rotate(-24.55)"/>
    <ellipse class="cls-8" cx="17.32" cy="15.58" rx=".05" ry=".01" transform="translate(-3.52 5.17) rotate(-15.43)"/>
    <ellipse class="cls-8" cx="17.33" cy="15.63" rx=".05" ry=".01" transform="translate(-.67 .77) rotate(-2.51)"/>
    <ellipse class="cls-8" cx="17.33" cy="15.68" rx=".01" ry=".05" transform="translate(-2.01 28.8) rotate(-76.3)"/>
    <ellipse class="cls-8" cx="17.32" cy="15.72" rx=".01" ry=".05" transform="translate(-3.9 25.54) rotate(-67.06)"/>
    <ellipse class="cls-8" cx="17.31" cy="15.76" rx=".01" ry=".05" transform="translate(-5.61 20.56) rotate(-54.15)"/>
  </g>
  <g>
    <path class="cls-5" d="m15.71,15.49s.08.18.04.32-.08.23-.06.39.03.23-.04.32-.13.16-.13.16c0,0-.2.17-.34.14s-.2-.12-.2-.12c0,0-.02-.03-.09-.07s-.18-.08-.18-.25.02-.25.14-.34.19-.19.22-.23.22-.08.22-.08c0,0,.12-.06.14-.1s.23-.26.27-.14Z"/>
    <path class="cls-7" d="m12.68,17.41s-.05.02-.09-.03-.23-.62-.23-.64-.15-.4-.16-.49c0,0,.06.05.04-.02s-.12-.17-.12-.39.06-.16.06-.16c0,0,.1.06.08-.04s-.03-.14.07-.1.11-.1.11-.1c0,0,.04-.11.17.19s.82,1.12.53,1.41c0,0-.11-.01-.28.1s-.19.27-.19.27Z"/>
    <path class="cls-3" d="m12.7,17.42s-.18.03.14.45c.31.46.74.51.74.51.16.52.67.37.67.37,0,0,.2.45,1.07.15.87-.3.6-.44.7-.44s.36-.37.52-.68,0-.68,0-.68c.09-.69-.33-.99-.33-.99.01-.09-.11-.14-.22-.36s-.27-.27-.27-.27c0,0,.08.18.04.32s-.08.23-.06.39.03.23-.04.32-.13.16-.13.16c0,0-.19.16-.34.14-.02.06.07.12.07.12-.08.2,0,.42,0,.42-.19.06-.21.36-.21.36,0,0-.39-.03-.48.09-.11-.24-.36-.15-.36-.15-.01-.35-1.04-.6-1.03-.61,0,0-.1-.01-.28.11s-.18.27-.18.27Z"/>
    <path class="cls-2" d="m15.22,16.84s0,.05.05.07.28-.13.32-.18.08-.2.1-.22-.03-.01-.13.13-.26.21-.35.21Z"/>
    <path class="cls-2" d="m16.21,16.17s0,.26-.16.49c0,0,.05,0,.09-.08s.16-.3.11-.36c-.05-.06-.05-.05-.05-.05Z"/>
    <path class="cls-2" d="m16.5,17.14s-.08.2-.47.25c0,0,.03.02.09.01.17-.02.4-.09.42-.16,0-.04.01-.07-.03-.11Z"/>
    <path class="cls-2" d="m15.96,18.48c-.2-.09-.38-.21-.55-.35,0,0,.38.48.48.47.07-.04.07-.12.07-.12Z"/>
    <path class="cls-2" d="m14.24,18.69s0-.37.13-.52c0,0-.17.12-.21.52,0,0,.03.03.09,0Z"/>
    <path class="cls-2" d="m13.59,18.32s.06-.31.25-.43c0,0-.21.09-.32.34-.03.09.07.08.07.08Z"/>
    <path class="cls-1" d="m15.62,15.51s.06-.06.08.01.03.09.04.15c.01.08-.05.2-.07.31-.05,0-.02-.16,0-.23.03-.08,0-.12,0-.15s-.06-.08-.03-.1Z"/>
  </g>
  <g>
    <path class="cls-5" d="m16.67,15.91s.08.18.04.32-.08.23-.06.39.03.23-.04.32-.13.16-.13.16c0,0-.2.17-.34.14s-.2-.12-.2-.12c0,0-.02-.03-.09-.07s-.18-.08-.18-.25.02-.25.14-.34.19-.19.22-.23.22-.08.22-.08c0,0,.12-.06.14-.1s.23-.26.27-.14Z"/>
    <path class="cls-7" d="m13.64,17.83s-.05.02-.09-.03-.23-.62-.23-.64-.15-.4-.16-.49c0,0,.06.05.04-.02s-.12-.17-.12-.39.06-.16.06-.16c0,0,.1.06.08-.04s-.03-.14.07-.1.11-.1.11-.1c0,0,.04-.11.17.19s.82,1.12.53,1.41c0,0-.11-.01-.28.1s-.19.27-.19.27Z"/>
    <path class="cls-3" d="m13.66,17.84s-.18.03.14.45c.31.46.74.51.74.51.16.52.67.37.67.37,0,0,.2.45,1.07.15s.6-.44.7-.44.36-.37.52-.68,0-.68,0-.68c.09-.69-.33-.99-.33-.99.01-.09-.11-.14-.22-.36s-.27-.27-.27-.27c0,0,.08.18.04.32s-.08.23-.06.39.03.23-.04.32-.13.16-.13.16c0,0-.19.16-.34.14-.02.06.07.12.07.12-.08.2,0,.42,0,.42-.19.06-.21.36-.21.36,0,0-.39-.03-.48.09-.11-.24-.36-.15-.36-.15-.01-.35-1.04-.6-1.03-.61,0,0-.1-.01-.28.11s-.18.27-.18.27Z"/>
    <path class="cls-2" d="m16.18,17.26s0,.05.05.07.28-.13.32-.18.08-.2.1-.22-.03-.01-.13.13-.26.21-.35.21Z"/>
    <path class="cls-2" d="m17.16,16.59s0,.26-.16.49c0,0,.05,0,.09-.08s.16-.3.11-.36c-.05-.06-.05-.05-.05-.05Z"/>
    <path class="cls-2" d="m17.46,17.56s-.08.2-.47.25c0,0,.03.02.09.01.17-.02.4-.09.42-.16,0-.04.01-.07-.03-.11Z"/>
    <path class="cls-2" d="m16.92,18.9c-.2-.09-.38-.21-.55-.35,0,0,.38.48.48.47.07-.04.07-.12.07-.12Z"/>
    <path class="cls-2" d="m15.2,19.12s0-.37.13-.52c0,0-.17.12-.21.52,0,0,.03.03.09,0Z"/>
    <path class="cls-2" d="m14.54,18.75s.06-.31.25-.43c0,0-.21.09-.32.34-.03.09.07.08.07.08Z"/>
    <path class="cls-1" d="m16.58,15.93s.06-.06.08.01.03.09.04.15c.01.08-.05.2-.07.31-.05,0-.02-.16,0-.23.03-.08,0-.12,0-.15s-.06-.08-.03-.1Z"/>
  </g>
  <g>
    <path class="cls-12" d="m18.89,13.31s-.16.61.56.88,1.22.18,1.22.18c0,0,.29-.03.54-.2s.59-.48.55-.8c0,0-.37.58-1.05.61s-1.29-.01-1.83-.67Z"/>
    <ellipse class="cls-14" cx="20.33" cy="13.29" rx="1.44" ry=".86" transform="translate(-.26 .4) rotate(-1.13)"/>
    <path class="cls-12" d="m19.89,12.63s.6-.24,1.06.06c.12.07-.02.13-.08.14-.03,0-.13.05-.2.11-.08.07-.1.08-.11.11-.02.05-.06-.04-.15-.05s-.2.1-.23.06c-.05-.06-.14-.09-.15-.13-.03-.07-.25-.15-.14-.28Z"/>
    <path class="cls-12" d="m21.37,12.84s.22.14.22.39c0,.13-.11.32-.24.48-.1.11-.34.2-.35.14,0-.03.01-.12-.05-.21-.03-.05-.07-.08-.11-.11-.04-.03-.04-.06.05-.07.08,0,.16-.04.17-.13.02-.21-.09-.12-.12-.14s.03-.12.08-.13c.09-.01.21-.36.36-.21Z"/>
    <path class="cls-12" d="m20.72,13.96s-.71.2-1.22-.17c-.13-.09.05-.16.11-.17.03,0,.16-.05.25-.12.07-.05.12-.12.15-.16.01-.02-.01.08.17.08s.19-.05.2-.02c.03.06.04.12.05.16.02.09.43.26.28.41Z"/>
    <path class="cls-12" d="m19.28,13.61s-.18-.14-.15-.37c.01-.12.13-.28.26-.41.1-.09.32-.16.32-.1,0,.03-.02.1.03.19.05.09.14.16.16.18.05.03-.1.02-.13.1s.14.13.1.15c-.08.04-.17.06-.22.06-.08,0-.25.34-.37.2Z"/>
    <ellipse class="cls-8" cx="19.68" cy="13.06" rx=".01" ry=".05" transform="translate(-1.85 22.78) rotate(-57.85)"/>
    <ellipse class="cls-8" cx="19.66" cy="13.09" rx=".01" ry=".05" transform="translate(-.06 26.1) rotate(-67.06)"/>
    <ellipse class="cls-8" cx="19.64" cy="13.14" rx=".01" ry=".05" transform="translate(3.31 30.21) rotate(-80.04)"/>
    <ellipse class="cls-8" cx="19.64" cy="13.19" rx=".05" ry=".01" transform="translate(-1.32 2.21) rotate(-6.24)"/>
    <ellipse class="cls-8" cx="19.64" cy="13.23" rx=".05" ry=".01" transform="translate(-2.81 5.7) rotate(-15.43)"/>
    <ellipse class="cls-8" cx="19.65" cy="13.27" rx=".05" ry=".01" transform="translate(-3.94 10.87) rotate(-28.22)"/>
    <ellipse class="cls-8" cx="20.29" cy="13.53" rx=".01" ry=".05" transform="translate(-2.75 5.52) rotate(-14.53)"/>
    <ellipse class="cls-8" cx="20.25" cy="13.55" rx=".01" ry=".05" transform="translate(-1.25 2.09) rotate(-5.72)"/>
    <ellipse class="cls-8" cx="20.2" cy="13.55" rx=".05" ry=".01" transform="translate(4.42 32.06) rotate(-83.41)"/>
    <ellipse class="cls-8" cx="20.15" cy="13.55" rx=".05" ry=".01" transform="translate(.06 27.18) rotate(-68.06)"/>
    <ellipse class="cls-8" cx="20.12" cy="13.53" rx=".05" ry=".01" transform="translate(-1.79 23.91) rotate(-59.27)"/>
    <ellipse class="cls-8" cx="20.08" cy="13.51" rx=".05" ry=".01" transform="translate(-3.51 18.91) rotate(-46.83)"/>
    <ellipse class="cls-8" cx="20.28" cy="12.9" rx=".01" ry=".05" transform="translate(-3.39 8.74) rotate(-22.51)"/>
    <ellipse class="cls-8" cx="20.31" cy="12.88" rx=".01" ry=".05" transform="translate(-2.47 5.16) rotate(-13.65)"/>
    <ellipse class="cls-8" cx="20.36" cy="12.87" rx=".01" ry=".05" transform="translate(-.29 .46) rotate(-1.29)"/>
    <ellipse class="cls-8" cx="20.41" cy="12.87" rx=".05" ry=".01" transform="translate(2.97 29.53) rotate(-75.94)"/>
    <ellipse class="cls-8" cx="20.44" cy="12.87" rx=".05" ry=".01" transform="translate(.65 26.72) rotate(-67.17)"/>
    <ellipse class="cls-8" cx="20.49" cy="12.89" rx=".05" ry=".01" transform="translate(-1.86 22.21) rotate(-54.81)"/>
    <ellipse class="cls-8" cx="21.15" cy="13.21" rx=".05" ry=".01" transform="translate(-3.58 9.98) rotate(-24.55)"/>
    <ellipse class="cls-8" cx="21.16" cy="13.25" rx=".05" ry=".01" transform="translate(-2.76 6.11) rotate(-15.43)"/>
    <ellipse class="cls-8" cx="21.17" cy="13.3" rx=".05" ry=".01" transform="translate(-.56 .94) rotate(-2.51)"/>
    <ellipse class="cls-8" cx="21.18" cy="13.34" rx=".01" ry=".05" transform="translate(3.2 30.76) rotate(-76.3)"/>
    <ellipse class="cls-8" cx="21.17" cy="13.38" rx=".01" ry=".05" transform="translate(.59 27.66) rotate(-67.06)"/>
    <ellipse class="cls-8" cx="21.15" cy="13.43" rx=".01" ry=".05" transform="translate(-2.12 22.7) rotate(-54.15)"/>
  </g>
  <g>
    <path class="cls-5" d="m13.14,15.85s-.18.06-.26.18-.12.21-.25.3-.2.13-.21.24-.04.2-.04.2c0,0,0,.26.11.35s.22.07.22.07c0,0,.04,0,.11.02s.18.08.3-.03.17-.18.16-.32.02-.27.03-.32-.08-.22-.08-.22c0,0-.03-.13-.02-.17s.04-.35-.08-.29Z"/>
    <path class="cls-7" d="m13.69,19.39s.02.05.08.04.62-.24.64-.25.4-.15.47-.21c0,0-.07-.01-.02-.04s.21-.03.38-.17.08-.15.08-.15c0,0-.12-.04-.03-.09s.12-.07.03-.12,0-.15,0-.15c0,0,.06-.1-.25,0s-1.38.13-1.41.53c0,0,.08.08.11.28s-.08.32-.08.32Z"/>
    <path class="cls-3" d="m13.67,19.38s.1.15-.43.2c-.55.07-.87-.22-.87-.22-.5.22-.72-.26-.72-.26,0,0-.47.15-.82-.7s-.07-.74-.13-.82.04-.51.17-.83.52-.45.52-.45c.46-.52.96-.4.96-.4.06-.06.18-.01.41-.07s.38.02.38.02c0,0-.18.06-.26.18s-.12.21-.25.3-.2.13-.21.24-.04.2-.04.2c0,0,0,.25.11.35-.04.06-.14.03-.14.03-.1.19-.31.28-.31.28.08.19-.13.39-.13.39,0,0,.27.27.25.42.25-.08.35.17.35.17.27-.22,1.13.39,1.13.37,0,0,.08.07.1.28s-.08.31-.08.31Z"/>
    <path class="cls-2" d="m12.45,17.11s-.04.04-.09,0-.09-.3-.07-.36.1-.19.1-.22.03.01-.01.18.01.33.08.4Z"/>
    <path class="cls-2" d="m12.3,15.92s-.19.18-.27.44c0,0-.03-.04,0-.12s.12-.32.19-.32c.08,0,.07,0,.07,0Z"/>
    <path class="cls-2" d="m11.37,16.34s-.1.19.12.52c0,0-.04,0-.07-.05-.1-.14-.2-.36-.15-.42.03-.03.04-.05.1-.05Z"/>
    <path class="cls-2" d="m10.72,17.63c.19.09.4.15.62.18,0,0-.62.03-.67-.05-.02-.08.05-.13.05-.13Z"/>
    <path class="cls-2" d="m11.7,19.07s.27-.24.3-.43c0,0,.02.21-.25.5,0,0-.04,0-.06-.07Z"/>
    <path class="cls-2" d="m12.41,19.31s.19-.25.16-.47c0,0,.07.22-.05.47-.05.08-.11,0-.11,0Z"/>
    <path class="cls-1" d="m13.18,15.93s0-.09-.06-.05-.08.04-.14.07c-.07.04-.12.17-.19.26.03.03.14-.09.17-.14.05-.07.08-.08.12-.09s.1,0,.1-.04Z"/>
  </g>
  <g>
    <path class="cls-5" d="m15.91,11.72s.18-.07.32-.02.22.09.38.08.24-.01.31.06.15.14.15.14c0,0,.16.21.12.34s-.13.19-.13.19c0,0-.04.02-.08.08s-.09.17-.26.16-.25-.03-.33-.16-.18-.2-.22-.24-.07-.22-.07-.22c0,0-.05-.12-.09-.15s-.24-.25-.12-.28Z"/>
    <path class="cls-7" d="m17.64,14.86s.01.05-.04.08-.64.19-.66.19-.41.12-.5.13c0,0,.05-.05-.01-.04s-.18.11-.4.09-.16-.07-.16-.07c0,0,.07-.1-.03-.08s-.14.02-.1-.07-.1-.12-.1-.12c0,0-.11-.04.2-.16s1.17-.74,1.45-.44c0,0-.02.11.09.28s.26.2.26.2Z"/>
    <path class="cls-3" d="m17.65,14.84s.02.18.46-.11c.47-.28.56-.71.56-.71.53-.13.42-.65.42-.65,0,0,.46-.17.22-1.06s-.4-.63-.4-.73-.34-.38-.64-.56-.68-.04-.68-.04c-.69-.13-1.01.27-1.01.27-.09-.02-.15.1-.37.2s-.29.25-.29.25c0,0,.18-.07.32-.02s.22.09.38.08.24-.01.31.06.15.14.15.14c0,0,.15.2.12.34.06.02.13-.06.13-.06.19.09.42.03.42.03.05.2.34.24.34.24,0,0-.05.38.06.48-.25.09-.17.34-.17.34-.35,0-.66,1-.67.99,0,0-.02.1.09.29s.25.2.25.2Z"/>
    <path class="cls-2" d="m17.23,12.29s.05,0,.07-.05-.11-.29-.16-.33-.2-.09-.21-.12-.01.03.12.13.19.27.19.37Z"/>
    <path class="cls-2" d="m16.62,11.27s.26.02.48.19c0,0,0-.05-.08-.1s-.29-.18-.35-.14c-.07.04-.05.05-.05.05Z"/>
    <path class="cls-2" d="m17.61,11.03s.19.09.22.49c0,0,.02-.03.02-.08,0-.17-.06-.41-.13-.43-.04,0-.07-.02-.11.02Z"/>
    <path class="cls-2" d="m18.91,11.65c-.1.19-.23.36-.38.52,0,0,.51-.35.5-.45-.03-.08-.12-.08-.12-.08Z"/>
    <path class="cls-2" d="m19.02,13.39s-.37-.03-.51-.16c0,0,.11.18.5.25,0,0,.04-.02,0-.09Z"/>
    <path class="cls-2" d="m18.61,14.02s-.3-.08-.41-.28c0,0,.08.21.32.34.08.03.09-.07.09-.07Z"/>
    <path class="cls-1" d="m15.93,11.81s-.05-.07.02-.08.09-.02.15-.03c.08,0,.2.06.31.09,0,.05-.16.01-.23,0-.08-.03-.11-.01-.15,0s-.08.05-.11.03Z"/>
  </g>
  <g>
    <path class="cls-5" d="m14.95,12.65s.09.17.06.31-.07.23-.04.39.04.23-.03.32-.12.17-.12.17c0,0-.19.18-.33.16s-.2-.11-.2-.11c0,0-.02-.03-.09-.07s-.18-.07-.19-.24,0-.25.12-.34.18-.2.21-.24.21-.1.21-.1c0,0,.11-.07.13-.11s.22-.27.26-.15Z"/>
    <path class="cls-7" d="m12.03,14.72s-.05.02-.09-.03-.26-.61-.26-.63-.17-.39-.18-.48c0,0,.06.04.04-.02s-.13-.17-.14-.39.05-.16.05-.16c0,0,.11.06.08-.04s-.04-.13.06-.1.11-.11.11-.11c0,0,.03-.11.18.18s.87,1.08.6,1.39c0,0-.11,0-.27.12s-.17.28-.17.28Z"/>
    <path class="cls-3" d="m12.05,14.73s-.18.04.16.45c.33.44.77.47.77.47.19.51.69.34.69.34,0,0,.22.44,1.07.09s.58-.47.68-.48.34-.38.48-.7-.04-.68-.04-.68c.05-.7-.38-.97-.38-.97,0-.09-.12-.14-.24-.34s-.28-.26-.28-.26c0,0,.09.17.06.31s-.07.23-.04.39.04.23-.03.32-.12.17-.12.17c0,0-.18.17-.33.16-.02.07.07.12.07.12-.07.2.02.42.02.42-.19.07-.2.37-.2.37,0,0-.39,0-.47.11-.12-.23-.36-.13-.36-.13-.03-.35-1.07-.54-1.06-.55,0,0-.1,0-.27.12s-.17.27-.17.27Z"/>
    <path class="cls-2" d="m14.53,14.02s0,.05.06.07.28-.14.31-.2.07-.21.09-.23-.03-.01-.12.13-.25.22-.34.23Z"/>
    <path class="cls-2" d="m15.48,13.3s0,.26-.13.5c0,0,.05-.01.09-.09s.14-.31.1-.36c-.05-.06-.05-.05-.05-.05Z"/>
    <path class="cls-2" d="m15.83,14.25s-.07.2-.46.28c0,0,.03.02.09.01.17-.03.4-.11.41-.18,0-.04,0-.07-.04-.11Z"/>
    <path class="cls-2" d="m15.36,15.62c-.2-.08-.39-.19-.56-.32,0,0,.41.46.5.45.07-.04.06-.13.06-.13Z"/>
    <path class="cls-2" d="m13.65,15.92s-.01-.37.1-.52c0,0-.17.13-.19.53,0,0,.03.03.09,0Z"/>
    <path class="cls-2" d="m12.98,15.59s.04-.31.23-.44c0,0-.2.1-.3.36-.02.09.08.08.08.08Z"/>
    <path class="cls-1" d="m14.86,12.67s.06-.06.08,0,.03.09.04.15c.02.08-.04.2-.05.32-.05,0-.03-.16-.02-.22.02-.08,0-.12-.02-.15s-.06-.07-.04-.1Z"/>
  </g>
  <g>
    <path class="cls-5" d="m14.21,10.69s-.17.09-.23.22-.08.23-.19.34-.17.17-.16.27,0,.21,0,.21c0,0,.05.26.17.32s.23.03.23.03c0,0,.04-.02.11,0s.19.05.29-.08.14-.21.1-.35-.03-.27-.03-.32-.12-.2-.12-.2c0,0-.05-.12-.05-.17s-.02-.35-.13-.28Z"/>
    <path class="cls-7" d="m15.38,14.08s.03.05.09.03.57-.35.58-.36.36-.22.43-.29c0,0-.07,0-.02-.04s.2-.06.34-.23.06-.16.06-.16c0,0-.12-.01-.04-.08s.11-.09.01-.12-.02-.15-.02-.15c0,0,.04-.11-.25.04s-1.34.37-1.3.78c0,0,.09.06.15.25s-.02.33-.02.33Z"/>
    <path class="cls-3" d="m15.36,14.08s.12.13-.39.27c-.52.16-.9-.06-.9-.06-.45.31-.76-.13-.76-.13,0,0-.44.23-.93-.55s-.2-.72-.27-.78-.05-.51.02-.85.43-.53.43-.53c.36-.6.88-.56.88-.56.05-.07.17-.04.39-.14s.38-.04.38-.04c0,0-.17.09-.23.22s-.08.23-.19.34-.17.17-.16.27,0,.21,0,.21c0,0,.05.24.17.32-.02.06-.13.06-.13.06-.06.2-.26.33-.26.33.11.17-.05.41-.05.41,0,0,.32.22.32.37.23-.12.37.1.37.1.23-.26,1.18.18,1.18.17,0,0,.09.05.15.26s-.02.32-.02.32Z"/>
    <path class="cls-2" d="m13.75,12.06s-.03.04-.09.02-.14-.28-.14-.34.07-.21.06-.24.03,0,.02.18.07.32.15.38Z"/>
    <path class="cls-2" d="m13.4,10.92s-.15.21-.18.48c0,0-.03-.04-.02-.12s.07-.33.13-.35c.08-.02.07,0,.07,0Z"/>
    <path class="cls-2" d="m12.56,11.49s-.06.21.21.49c0,0-.04,0-.08-.04-.12-.12-.26-.32-.23-.39.03-.03.03-.06.09-.07Z"/>
    <path class="cls-2" d="m12.15,12.87c.21.05.42.07.64.07,0,0-.6.14-.67.07-.03-.08.02-.14.02-.14Z"/>
    <path class="cls-2" d="m13.37,14.12s.23-.29.22-.48c0,0,.06.2-.15.54,0,0-.04.01-.07-.06Z"/>
    <path class="cls-2" d="m14.11,14.23s.15-.28.07-.49c0,0,.11.2.04.47-.03.09-.11.02-.11.02Z"/>
    <path class="cls-1" d="m14.27,10.77s-.01-.09-.07-.04-.08.05-.12.1c-.06.06-.09.18-.14.29.04.03.12-.11.14-.17.03-.08.07-.09.1-.11s.09-.02.09-.06Z"/>
  </g>
  <g>
    <path class="cls-5" d="m16.11,11.47s-.16.11-.2.25-.06.23-.16.36-.15.18-.13.29.02.21.02.21c0,0,.08.25.21.3s.23,0,.23,0c0,0,.03-.02.11-.01s.19.03.28-.11.12-.22.06-.36-.06-.27-.07-.32-.14-.19-.14-.19c0,0-.07-.12-.06-.16s-.06-.34-.16-.26Z"/>
    <path class="cls-7" d="m17.65,14.71s.04.04.09.02.52-.41.54-.42.34-.26.39-.33c0,0-.07,0-.03-.04s.19-.09.31-.27.04-.17.04-.17c0,0-.12,0-.05-.07s.1-.1,0-.12-.04-.15-.04-.15c0,0,.03-.11-.24.07s-1.29.51-1.2.91c0,0,.1.05.18.24s.01.33.01.33Z"/>
    <path class="cls-3" d="m17.63,14.71s.14.12-.36.31c-.5.22-.9.03-.9.03-.41.36-.77-.04-.77-.04,0,0-.41.28-.98-.44s-.28-.69-.36-.75-.11-.5-.08-.85.37-.58.37-.58c.29-.63.81-.66.81-.66.04-.08.17-.06.37-.18s.37-.09.37-.09c0,0-.16.11-.2.25s-.06.23-.16.36-.15.18-.13.29.02.21.02.21c0,0,.07.24.21.3-.02.06-.12.07-.12.07-.04.21-.22.36-.22.36.13.16,0,.41,0,.41,0,0,.34.18.36.33.22-.14.38.06.38.06.2-.29,1.19.05,1.19.04,0,0,.09.04.18.24s.01.32.01.32Z"/>
    <path class="cls-2" d="m15.81,12.88s-.03.05-.08.03-.17-.26-.17-.33.04-.21.03-.24.03,0,.04.17.11.31.19.36Z"/>
    <path class="cls-2" d="m15.33,11.78s-.13.22-.13.5c0,0-.04-.03-.03-.12s.03-.34.09-.36c.07-.03.07-.02.07-.01Z"/>
    <path class="cls-2" d="m14.56,12.44s-.04.21.26.47c0,0-.04,0-.08-.03-.13-.11-.3-.29-.27-.36.02-.04.03-.06.08-.07Z"/>
    <path class="cls-2" d="m14.3,13.86c.21.03.43.03.65,0,0,0-.58.21-.66.14-.04-.07,0-.14,0-.14Z"/>
    <path class="cls-2" d="m15.65,14.97s.19-.31.17-.5c0,0,.08.19-.09.55,0,0-.04.02-.07-.05Z"/>
    <path class="cls-2" d="m16.4,15s.11-.29.02-.49c0,0,.13.19.09.46-.02.09-.1.03-.1.03Z"/>
    <path class="cls-1" d="m16.18,11.54s-.02-.08-.07-.03-.07.06-.11.11c-.06.06-.07.19-.11.3.04.02.11-.13.12-.19.02-.08.06-.1.09-.12s.09-.03.08-.07Z"/>
  </g>
  <g>
    <path class="cls-12" d="m16.43,13.75s-.16.61.56.88,1.22.18,1.22.18c0,0,.29-.03.54-.2s.59-.48.55-.8c0,0-.37.58-1.05.61s-1.29-.01-1.83-.67Z"/>
    <ellipse class="cls-14" cx="17.88" cy="13.73" rx="1.44" ry=".86" transform="translate(-.27 .35) rotate(-1.13)"/>
    <path class="cls-12" d="m17.44,13.07s.6-.24,1.06.06c.12.07-.02.13-.08.14-.03,0-.13.05-.2.11-.08.07-.1.08-.11.11-.02.05-.06-.04-.15-.05s-.2.1-.23.06c-.05-.06-.14-.09-.15-.13-.03-.07-.25-.15-.14-.28Z"/>
    <path class="cls-12" d="m18.91,13.28s.22.14.22.39c0,.13-.11.32-.24.48-.1.11-.34.2-.35.14,0-.03.01-.12-.05-.21-.03-.05-.07-.08-.11-.11-.04-.03-.04-.06.05-.07.08,0,.16-.04.17-.13.02-.21-.09-.12-.12-.14s.03-.12.08-.13c.09-.01.21-.36.36-.21Z"/>
    <path class="cls-12" d="m18.27,14.4s-.71.2-1.22-.17c-.13-.09.05-.16.11-.17.03,0,.16-.05.25-.12.07-.05.12-.12.15-.16.01-.02-.01.08.17.08s.19-.05.2-.02c.03.06.04.12.05.16.02.09.43.26.28.41Z"/>
    <path class="cls-12" d="m16.82,14.05s-.18-.14-.15-.37c.01-.12.13-.28.26-.41.1-.09.32-.16.32-.1,0,.03-.02.1.03.19.05.09.14.16.16.18.05.03-.1.02-.13.1s.14.13.1.15c-.08.04-.17.06-.22.06-.08,0-.25.34-.37.2Z"/>
    <ellipse class="cls-8" cx="17.23" cy="13.5" rx=".01" ry=".05" transform="translate(-3.37 20.91) rotate(-57.85)"/>
    <ellipse class="cls-8" cx="17.21" cy="13.53" rx=".01" ry=".05" transform="translate(-1.96 24.11) rotate(-67.06)"/>
    <ellipse class="cls-8" cx="17.19" cy="13.58" rx=".01" ry=".05" transform="translate(.84 28.16) rotate(-80.04)"/>
    <ellipse class="cls-8" cx="17.18" cy="13.63" rx=".05" ry=".01" transform="translate(-1.38 1.95) rotate(-6.24)"/>
    <ellipse class="cls-8" cx="17.19" cy="13.67" rx=".05" ry=".01" transform="translate(-3.02 5.06) rotate(-15.43)"/>
    <ellipse class="cls-8" cx="17.2" cy="13.71" rx=".05" ry=".01" transform="translate(-4.44 9.76) rotate(-28.22)"/>
    <ellipse class="cls-8" cx="17.83" cy="13.97" rx=".01" ry=".05" transform="translate(-2.94 4.92) rotate(-14.53)"/>
    <ellipse class="cls-8" cx="17.79" cy="13.99" rx=".01" ry=".05" transform="translate(-1.31 1.84) rotate(-5.72)"/>
    <ellipse class="cls-8" cx="17.75" cy="13.99" rx=".05" ry=".01" transform="translate(1.81 30.02) rotate(-83.41)"/>
    <ellipse class="cls-8" cx="17.7" cy="13.99" rx=".05" ry=".01" transform="translate(-1.89 25.18) rotate(-68.06)"/>
    <ellipse class="cls-8" cx="17.66" cy="13.97" rx=".05" ry=".01" transform="translate(-3.37 22.01) rotate(-59.27)"/>
    <ellipse class="cls-8" cx="17.62" cy="13.95" rx=".05" ry=".01" transform="translate(-4.61 17.26) rotate(-46.83)"/>
    <ellipse class="cls-8" cx="17.82" cy="13.34" rx=".01" ry=".05" transform="translate(-3.75 7.84) rotate(-22.51)"/>
    <ellipse class="cls-8" cx="17.86" cy="13.32" rx=".01" ry=".05" transform="translate(-2.64 4.59) rotate(-13.65)"/>
    <ellipse class="cls-8" cx="17.9" cy="13.31" rx=".01" ry=".05" transform="translate(-.3 .41) rotate(-1.29)"/>
    <ellipse class="cls-8" cx="17.95" cy="13.31" rx=".05" ry=".01" transform="translate(.68 27.49) rotate(-75.94)"/>
    <ellipse class="cls-8" cx="17.99" cy="13.32" rx=".05" ry=".01" transform="translate(-1.26 24.73) rotate(-67.17)"/>
    <ellipse class="cls-8" cx="18.03" cy="13.33" rx=".05" ry=".01" transform="translate(-3.26 20.39) rotate(-54.81)"/>
    <ellipse class="cls-8" cx="18.69" cy="13.65" rx=".05" ry=".01" transform="translate(-3.98 9) rotate(-24.55)"/>
    <ellipse class="cls-8" cx="18.71" cy="13.69" rx=".05" ry=".01" transform="translate(-2.97 5.47) rotate(-15.43)"/>
    <ellipse class="cls-8" cx="18.72" cy="13.74" rx=".05" ry=".01" transform="translate(-.58 .83) rotate(-2.51)"/>
    <ellipse class="cls-8" cx="18.72" cy="13.78" rx=".01" ry=".05" transform="translate(.9 28.71) rotate(-76.3)"/>
    <ellipse class="cls-8" cx="18.71" cy="13.82" rx=".01" ry=".05" transform="translate(-1.31 25.67) rotate(-67.06)"/>
    <ellipse class="cls-8" cx="18.69" cy="13.87" rx=".01" ry=".05" transform="translate(-3.5 20.9) rotate(-54.15)"/>
  </g>
</svg>