<?xml version="1.0" encoding="UTF-8"?>
<svg id="Livello_2" data-name="Livello 2" xmlns="http://www.w3.org/2000/svg" viewBox="0 0 28.55 29.71">
  <defs>
    <style>
      .cls-1 {
        fill: none;
        stroke: #95b6d1;
        stroke-linecap: round;
      }

      .cls-1, .cls-2 {
        stroke-miterlimit: 10;
        stroke-width: .1px;
      }

      .cls-3 {
        fill: #f7f8f9;
      }

      .cls-4 {
        fill: #eaeaf4;
      }

      .cls-5, .cls-2 {
        fill: #f4f7f9;
      }

      .cls-6 {
        fill: #fff;
      }

      .cls-7 {
        fill: #e4e7ea;
      }

      .cls-8 {
        fill: #9393ba;
      }

      .cls-9 {
        fill: #d7dbdd;
      }

      .cls-10 {
        fill: #95b6d1;
      }

      .cls-11 {
        fill: #5b798c;
      }

      .cls-12, .cls-13 {
        fill: #77a8c7;
      }

      .cls-14, .cls-15 {
        fill: #82b7d9;
      }

      .cls-2 {
        stroke: #f4f7f9;
      }

      .cls-15, .cls-13 {
        opacity: .58;
      }
    </style>
  </defs>
  <g id="Who_is_at_risk" data-name="Who is at risk">
    <g id="Butchers_meat-packing_employees_personnel_in_slaughterhouses" data-name="Butchers, meat-packing employees, personnel in slaughterhouses">
      <g>
        <path class="cls-2" d="m18.2,3.93s-.02-.09-.24.11-.44.9-.44.9c0,0-.17.78,0,.97,0,0,0-.75.15-1.1s.36-.85.53-.88Z"/>
        <path class="cls-2" d="m18.18,3.94s0-.1-.25.06-.59.81-.59.81c0,0-.3.74-.16.95,0,0,.13-.74.34-1.05s.5-.77.67-.78Z"/>
        <path class="cls-5" d="m23.05,1.91c.06-.35-.49-1.08-1.04-1.36-.55-.28-3.15.54-4.39,1.97-.52.57.49,1.47.49,1.47l.19.65s.94-.44,2.07-.68c1.13-.24,3.07-1.43,3.07-1.43l-.4-.62Z"/>
        <path class="cls-15" d="m18.2,3.93s-.98-.86-.47-1.41c1.19-1.38,3.7-2.16,4.23-1.9s1.06.96,1,1.31c-.41.71-4.75,2-4.75,2Z"/>
        <path class="cls-13" d="m18.38,4.56s.91-.42,1.99-.65,2.96-1.38,2.96-1.38l-.39-.6s-1.61.98-2.88,1.29-1.67.46-1.87.71l.19.62Z"/>
        <path class="cls-13" d="m21.35,2.52s.4-.23.87-.44.3-.74.3-.74c0,0,.02.25-.45.56s-.73.62-.73.62Z"/>
        <path class="cls-13" d="m17.86,3.3s.28.45.39.46c.02,0,.03-.06.14-.12s.46-.28.95-.33c0,0-.7,0-.92.13-.2.12-.55-.15-.55-.15Z"/>
        <path class="cls-13" d="m18.2,3.93s-.02-.09-.24.11-.44.9-.44.9c0,0-.17.78,0,.97,0,0,0-.75.15-1.1s.36-.85.53-.88Z"/>
        <path class="cls-13" d="m18.18,3.92s0-.1-.25.06-.59.81-.59.81c0,0-.3.74-.16.95,0,0,.13-.74.34-1.05s.5-.77.67-.78Z"/>
      </g>
      <g>
        <path class="cls-6" d="m6.62,0c.97-.02,1.52-.04,1.89.37s1.41.84,1.41.84c0,0,.78.47,1.77.58s1.55,1.42,1.55,1.42l.8,2.29.71,2.77s.69,3.68.77,4.18.23,1.79.28,2.21.31,1.72.31,1.72c-.25,1.4-2.83.53-2.83.53l.6,6.31s.09,1.45-2.43,1.62l-2.53.17-.29.02-2.52.26c-2.52.26-2.67-1.19-2.67-1.19l-.48-6.32s-2.4,1.3-2.88-.04c0,0,.04-1.33.02-1.75S.01,14.27,0,13.77s.05-4.25.05-4.25l.23-2.85.41-2.39s.34-1.38,1.29-1.66,1.64-.87,1.64-.87c0,0,.95-.6,1.25-1.06S5.7.15,6.66,0"/>
        <g>
          <path class="cls-6" d="m3.96,24.7c.43-.41.99-.65,1.56-.83,1.24-.4,2.56-.51,3.87-.48s2.6.22,3.89.4"/>
          <path class="cls-6" d="m8.44.98c-.94,3-1.88,6.06-1.87,9.2.02,4.36,1.89,8.62,1.47,12.96"/>
          <path class="cls-6" d="m4.02,1.86c-.15.32-.32.63-.53.91.33.14.71.2,1.07.15-.21.35-.45.68-.72.99.62.15,1.16.52,1.62.95s.84.95,1.21,1.46"/>
          <path class="cls-6" d="m9.29,1.41c.2.29.43.56.68.81-.31.2-.66.31-1.03.33.27.31.56.6.88.86-.58.25-1.06.71-1.44,1.21s-.66,1.08-.95,1.65"/>
          <path class="cls-6" d="m1.81,4.4l.7,3.3c.26,1.24.53,2.5.46,3.77"/>
          <path class="cls-6" d="m2.13,10.14c-.02.26.11.51.26.73s.33.41.43.66c.09.22.1.46.12.69.06,1.13.07,2.27.03,3.4-.02.41-.04.83,0,1.24"/>
          <path class="cls-6" d="m12.66,2.84c-.39,1.81-.79,3.66-.62,5.51.08.89.29,1.76.5,2.62"/>
          <path class="cls-6" d="m13.12,9.64c.16.27.06.62-.09.9s-.36.53-.44.83c-.07.27-.03.56.02.84.23,1.45.45,2.9.68,4.35"/>
          <path class="cls-6" d="m13.37,15.85c.71-.47,1.62-.63,2.45-.42"/>
          <path class="cls-6" d="m.65,16.71c.68-.28,1.49-.22,2.13.15"/>
          <path class="cls-6" d="m.89,17.31c-.17.01-.36.05-.44.19-.07.13-.02.29.08.39.12.14.3.21.48.23s.36,0,.54-.03c.32-.06.64-.14.93-.27.07-.03.15-.07.17-.15.04-.11-.07-.22-.18-.26-.23-.08-.48-.09-.72-.1-.29-.02-.57-.02-.86,0Z"/>
          <path class="cls-6" d="m15.42,16.73c.1-.03.29-.12.27-.26-.02-.1-.16-.2-.25-.24-.2-.09-.45-.07-.66-.07-.34,0-.68.03-.97.2-.06.03-.12.09-.11.15,0,.04.04.08.07.11.18.14.41.19.64.19s.45-.03.68-.05c.11,0,.22,0,.33-.03Z"/>
          <path class="cls-6" d="m4.98.89c-.14.53.01,1.09.27,1.57s.62.89.93,1.34c.37.54.67,1.13.96,1.71"/>
          <path class="cls-6" d="m5.09,1.35c.19-.17.44-.24.69-.28.81-.15,1.64-.19,2.45-.09"/>
          <polygon class="cls-6" points="10.9 6.65 11.05 8.39 9.84 9.29 8.49 8.61 8.35 6.87 10.9 6.65"/>
        </g>
      </g>
      <g>
        <path class="cls-3" d="m6.66.38c.94-.02,1.47-.04,1.83.36s1.37.81,1.37.81c0,0,.76.45,1.72.56s1.51,1.38,1.51,1.38l.78,2.22.69,2.69s.67,3.58.74,4.06.22,1.74.27,2.15.3,1.67.3,1.67c-.24,1.36-2.75.51-2.75.51l.58,6.12s.09,1.41-2.36,1.57l-2.45.16-.28.02-2.44.25c-2.44.25-2.59-1.15-2.59-1.15l-.46-6.13s-2.33,1.26-2.79-.04c0,0,.04-1.29.02-1.7s-.08-1.68-.1-2.16.05-4.12.05-4.12l.22-2.77.39-2.32s.33-1.34,1.25-1.61,1.6-.84,1.6-.84c0,0,.93-.58,1.21-1.03s.81-.53,1.75-.67"/>
        <g>
          <path class="cls-10" d="m4.08,24.36c2.54-1.94,6.1-1.32,9.05-.89-2.97-.3-6.44-.94-9.05.89h0Z"/>
          <path class="cls-10" d="m8.43,1.31c-1.07,3.45-2.12,7.05-1.66,10.7.36,3.61,1.63,7.16,1.27,10.82.32-3.67-.98-7.2-1.37-10.81-.43-3.67.65-7.26,1.76-10.71h0Z"/>
          <path class="cls-10" d="m4.14,2.17l-.5.9s-.01-.04-.01-.04c.35.14.73.18,1.1.13,0,0-.05.07-.05.07l-.7.98-.02-.08c1.24.32,2.06,1.39,2.74,2.39-.74-.95-1.54-2-2.76-2.3-.09-.02-.08,0-.02-.08,0,0,.71-.95.71-.95l.04.05c-.37.04-.74-.02-1.08-.17,0,0,.02-.03.02-.03l.54-.87h0Z"/>
          <path class="cls-10" d="m9.25,1.73l.68.77.02.02c-.31.2-.66.33-1.03.35,0,0,.03-.06.03-.06l.86.82.05.05c-1.19.49-1.82,1.68-2.4,2.76.5-1.1,1.13-2.3,2.29-2.82,0,0-.01.08-.01.08l-.85-.85c-.07-.07-.07-.05.03-.06.35-.02.69-.12.98-.31v.04s-.65-.8-.65-.8h0Z"/>
          <path class="cls-1" d="m1.99,4.64l.68,3.21c.26,1.21.51,2.43.44,3.66"/>
          <path class="cls-1" d="m2.31,10.21c-.02.25.11.5.25.71s.32.4.42.64c.09.21.1.44.11.67.06,1.1.07,2.2.03,3.3-.01.4-.04.8,0,1.2"/>
          <path class="cls-1" d="m12.52,3.13c-.38,1.76-.77,3.56-.6,5.35.08.86.28,1.7.49,2.54"/>
          <path class="cls-1" d="m12.98,9.73c.15.26.06.6-.09.87s-.35.51-.43.81c-.07.26-.03.54.02.81.22,1.41.44,2.82.66,4.22"/>
          <path class="cls-10" d="m13.21,15.76c.66-.52,1.59-.68,2.38-.41-.82-.14-1.66,0-2.38.41,0,0,.72-.4,0,0Z"/>
          <path class="cls-10" d="m.87,16.59c.64-.33,1.48-.28,2.07.14-.65-.3-1.38-.35-2.07-.14,0,0,.68-.21,0,0Z"/>
          <path class="cls-7" d="m1.1,17.17c-.16.01-.35.04-.43.19-.06.12-.02.28.07.38.12.13.29.2.47.23s.35,0,.53-.03c.31-.06.62-.13.91-.26.07-.03.14-.07.16-.14.04-.11-.07-.22-.18-.26-.22-.08-.47-.08-.7-.1-.28-.02-.56-.02-.84,0Z"/>
          <path class="cls-7" d="m15.21,16.61c.1-.03.29-.12.27-.25-.02-.1-.16-.2-.24-.24-.2-.09-.44-.07-.65-.07-.33,0-.66.03-.95.2-.06.03-.12.08-.11.15,0,.04.04.08.07.1.17.14.4.18.62.19s.44-.03.66-.05c.11,0,.22,0,.32-.03Z"/>
          <path class="cls-10" d="m5.07,1.23c-.22,1.1.63,1.97,1.2,2.81.29.54.62,1.14.9,1.68-.33-.52-.66-1.11-.96-1.64-.59-.81-1.45-1.77-1.13-2.85h0Z"/>
          <path class="cls-10" d="m5.17,1.68c.85-.59,2.07-.49,3.06-.36-1.01,0-2.14-.11-3.06.36h0Z"/>
          <path class="cls-10" d="m10.82,6.82s.17,1.69.17,1.71c-.01,0-1.17.88-1.18.89-.02.01-.02.02-.04,0,0,0-1.31-.66-1.31-.66h-.02s0-.04,0-.04l-.13-1.69v-.04s2.48-.17,2.52-.18h0Zm0,0l-2.48.25.03-.04.16,1.69-.03-.04,1.3.67s-.04,0-.04,0l1.18-.87c-.02.13-.12-1.7-.13-1.67h0Z"/>
        </g>
      </g>
      <g>
        <g>
          <path class="cls-6" d="m5.82,21.29s.05.08-.04.34c-.15.45-.71.8-.79.85-.27.18-.56.33-.87.44-.32.12-.66.19-1,.26-.28.05-.56.11-.85.12s-.56,0-.84-.02c-.74-.05-.82-.37-.82-.37,0,0-.01-.04-.04-.11-.05-.15-.14-.44-.18-.75-.07-.45-.04-.88.13-1.42.09-.29.23-.56.41-.81.29-.4.72-.73,1.2-.85.3-.08.62-.11.93-.13.51-.04,1.12-.07,1.55.26.13.1.22.22.32.34.11.13.21.26.3.41.18.28.33.59.43.91.06.18.11.36.16.54,0,0,.34.14.4.34.07.26-.13.5-.29.68-.23.24-.5.44-.74.68-.35.35-.7.71-1.06,1.05-.46.43-1.11.55-1.72.6-.55.04-1.1.05-1.64-.12-.06-.02-.11-.04-.17-.06-.23-.09-.46-.25-.52-.51-.05-.24.06-.49.18-.69.05-.08.11-.16.16-.24.05-.07.1-.16.16-.22"/>
          <path class="cls-6" d="m3.43,18.82c-.14.12-.49.43-.62.54-.29.24-.52.5-.53.9,0,.09,0,.18.03.27h0s-.03-.09-.04-.13c-.1-.49.17-.78.53-1.06.14-.11.5-.41.64-.52,0,0,0,0,0,0h0Z"/>
          <path class="cls-6" d="m2.91,18.85c-.14.12-.49.43-.62.54-.29.24-.52.5-.53.9,0,.09,0,.18.03.27h0s-.03-.09-.04-.13c-.1-.49.17-.78.53-1.06.14-.11.5-.41.64-.52,0,0,0,0,0,0h0Z"/>
          <path class="cls-6" d="m.6,22.84c.05.28.36.37.6.42.26.05.52.07.77.06.65,0,1.29-.14,1.91-.33.62-.18,1.21-.5,1.66-.98.18-.18.32-.43.28-.7.05.26-.09.52-.27.7-.36.38-.8.68-1.29.86-.49.18-.99.32-1.51.4-.51.08-1.04.09-1.56-.01-.24-.05-.55-.15-.59-.43h0Z"/>
        </g>
        <g>
          <path class="cls-4" d="m5.71,21.31s.05.07-.04.32c-.15.44-.68.77-.76.82-.26.18-.54.32-.84.43-.31.12-.64.18-.96.25-.27.05-.54.1-.82.11s-.54,0-.81-.02c-.71-.05-.79-.35-.79-.35,0,0-.01-.04-.04-.11-.05-.15-.13-.43-.18-.72-.07-.43-.04-.85.12-1.37.09-.28.23-.54.4-.78.28-.39.69-.7,1.16-.82.29-.08.6-.1.89-.12.5-.04,1.08-.07,1.49.25.12.09.21.21.31.32.11.12.2.25.29.39.18.27.31.57.41.88.05.17.11.35.15.52,0,0,.33.14.38.32.07.25-.12.48-.28.65-.22.23-.49.43-.71.65-.34.34-.67.68-1.02,1.01-.44.41-1.07.53-1.65.58-.53.04-1.06.04-1.58-.11-.06-.02-.11-.04-.16-.06-.23-.09-.45-.24-.5-.49-.05-.24.05-.47.17-.67.05-.08.1-.16.16-.23.05-.07.1-.15.16-.21"/>
          <path class="cls-8" d="m3.41,18.92c-.13.12-.47.41-.6.52-.28.23-.5.48-.51.86,0,.09,0,.17.03.26h0s-.03-.08-.04-.13c-.09-.47.16-.75.51-1.02.13-.11.48-.39.62-.5,0,0,0,0,0,0h0Z"/>
          <path class="cls-8" d="m2.91,18.96c-.13.12-.47.41-.6.52-.28.23-.5.48-.51.86,0,.09,0,.17.03.26h0s-.03-.08-.04-.13c-.09-.47.16-.75.51-1.02.13-.11.48-.39.62-.5,0,0,0,0,0,0h0Z"/>
          <path class="cls-8" d="m.68,22.8c.05.27.34.36.57.4.25.04.5.06.75.06.63,0,1.24-.14,1.84-.32.6-.17,1.16-.49,1.59-.94.17-.18.31-.42.27-.67.05.25-.09.5-.26.68-.34.37-.77.65-1.24.83-.47.18-.96.3-1.45.38-.5.08-1,.08-1.5-.01-.23-.05-.53-.15-.57-.41h0Z"/>
        </g>
      </g>
      <g>
        <path class="cls-6" d="m28.48,6.68l-.31-.39c-.06-.08-.15-.11-.24-.11-.06,0-.13.02-.18.06-.23.18-.51.4-.75.89-.02.03-.03.06-.04.1-.02-1.27-.5-3.16-2.3-3.58-.22-.05-.44-.08-.66-.08-2.15,0-3.32,2.49-3.38,2.64-1.42,5.16-3.01,5.58-3.02,5.58-.11.02-.21.1-.24.21l-.25.84v-.03c-.1-.32-.25-.63-.38-.9-.21-.45-.39-.83-.37-1.22.03-.42.33-.85.81-1.14.49-.3,1.11-.45,1.7-.58.08-.02.15-.07.19-.13.04-.07.06-.15.04-.23l-.12-.49c-.03-.14-.16-.23-.29-.23-.02,0-.05,0-.07,0-.68.16-1.38.32-2.02.72-.79.48-1.28,1.23-1.33,2.01-.04.67.23,1.25.47,1.76.12.25.23.49.31.74.12.41.12.88-.02,1.31-.06.21-.18.4-.33.63-.16.25-.33.53-.44.87-.11.35-.08.7.08.99.09.16.23.31.41.42l-2.23,7.44c-.02.08-.01.16.02.23.04.07.1.12.18.14.03,0,3.34.93,5.35,1.78,1.45.61,3.33.7,4.33.7h0c.51,0,.84-.02.84-.02.09,0,.18-.06.23-.13.81-1.21,1.64-6.23,2.21-10.33.29-.05.55-.18.76-.38.16-.15.27-.32.32-.51.08-.3-.02-.55-.07-.7,0,0-.03-.1-.03-.1-.02-.11-.02-.29,0-.46.03-.27.07-.51.12-.75.05-.28.1-.55.13-.87.06-.61.06-1.27.01-1.85-.02-.3-.06-.59-.11-.91-.07-.51-.13-1-.12-1.53.02-.67.17-1.21.29-1.47.13-.26.27-.37.44-.5.06-.05.1-.12.11-.2s-.01-.16-.06-.22Zm-2.82.46l-3.74-.92c.3-.61,1.08-1.91,2.19-1.91.12,0,.24.02.37.05,1.3.32,1.26,2.06,1.18,2.78Zm1.17,4.46c.04.52.04,1.11-.01,1.66,0,.03,0,.06,0,.1-.38-1.35-.34-2.79-.21-3.88.02.45.07.86.13,1.27.04.28.08.56.1.86Z"/>
        <g>
          <path class="cls-4" d="m16.15,17.18c-.24-.08-.44-.23-.54-.42-.12-.21-.14-.48-.06-.75.09-.3.25-.55.4-.8.15-.23.28-.46.36-.7.15-.49.15-1.01.02-1.48-.08-.26-.2-.51-.32-.78-.24-.5-.48-1.02-.44-1.61.04-.68.49-1.34,1.19-1.77.6-.37,1.28-.53,1.94-.68l.12.49c-.62.15-1.26.29-1.79.62-.56.34-.92.86-.95,1.38-.03.46.18.9.4,1.37.13.27.26.56.35.85.17.56.16,1.19-.02,1.77-.09.31-.25.57-.41.82-.14.23-.28.45-.35.68-.04.14-.04.27.01.36.05.08.14.15.27.2l-.16.47Z"/>
          <path class="cls-4" d="m26.41,16.87c-.09,0-.18-.01-.27-.03l.11-.49c.23.05.49-.02.66-.17.06-.06.08-.1.09-.12.01-.06,0-.12-.05-.23-.03-.08-.06-.17-.07-.25-.04-.25-.02-.52-.01-.66.03-.3.08-.56.13-.82.05-.25.09-.51.12-.8.05-.57.06-1.17.01-1.71-.03-.3-.06-.58-.1-.87-.07-.52-.14-1.07-.13-1.65.02-.68.16-1.36.37-1.8.21-.42.45-.62.67-.78l.31.39c-.19.15-.37.29-.52.61-.14.3-.31.87-.32,1.59-.01.55.05,1.05.12,1.57.04.29.08.59.1.9.05.57.04,1.21-.01,1.8-.03.31-.08.58-.13.84-.05.25-.09.5-.12.78-.02.2-.02.39,0,.54,0,.06.03.11.05.16.05.14.12.31.06.52-.03.13-.11.25-.23.36-.23.21-.54.32-.84.32Z"/>
          <g>
            <path class="cls-4" d="m20.9,6.28l5.74,1.41s-1.06,3.58.13,6.48c0,0-1.33,11.32-2.54,13.13,0,0-2.98.21-5.03-.66s-5.39-1.8-5.39-1.8l3.83-12.77s1.74-.28,3.26-5.8Z"/>
            <path class="cls-4" d="m20.9,6.28l.6.15s1.1-2.84,3.05-2.36,1.36,3.45,1.36,3.45l.73.18s.3-3.21-2.06-3.76-3.68,2.35-3.68,2.35Z"/>
            <path class="cls-9" d="m19.59,16.13s1.75.99,3.97.98l-.87,2.76-1.92.04-1.66-.92.48-2.86Z"/>
            <path class="cls-9" d="m18.77,25.81c.23.11.51.03.65-.18.42-.59,1.28-1.78,2.07-2.69.47-.55-1.42,1.84-4.13,1.46s-2.76-.32-2.86-.08c-.1.22,2.54.68,4.27,1.49Z"/>
          </g>
        </g>
      </g>
      <g>
        <path class="cls-6" d="m23.71,29.69c-.1-.22-.56-1-1.34-1.73-.77-.77-1.14-1.66-1.18-1.76-.06-.17-.01-.32.14-.4.06-.03.12-.05.18-.05.1,0,.23.05.31.28.24.55.54.69.59.7-.02-.04-.08-.15-.24-.35-.8-.87-1.06-1.66-1.07-1.69,0,0-.12-.21-.05-.41.03-.1.1-.17.2-.22.01,0,.09-.02.11-.02.08,0,.17.04.25.12-.13-.19-.14-.22-.15-.24-.02-.07-.04-.28.17-.42.05-.03.11-.05.17-.05.17,0,.29.14.35.22.02.02.04.05.06.07,0-.01-.01-.03-.02-.04-.09-.24.04-.37.12-.41h0s.07-.06.2-.06c.09,0,.19.03.29.1.12.08.31.35.47.6-.03-.21.06-.31.15-.37.08-.5.17-.97.2-1.06.07-.23.15-.47.38-.47.18.04.32.13.34.36.1-.35.21-.66.3-.78.13-.17.27-.2.37-.2.01,0,.11.02.12.02.07,0,.24.11.22.37,0,.03,0,.06-.02.11,0-.02.02-.04.03-.06.1-.3.24-.42.4-.42.33.08.4.27.39.38,0,.02,0,.05-.09.33.08-.15.19-.24.32-.24.16.02.25.08.31.16.12.18.07.42.06.45,0,.02-.02.89-.58,2.03-.16.4-.14.48-.13.49,0-.06.31-.27.4-.96.03-.34.24-.38.33-.38,0,0,.09.01.1.01.18.04.28.17.26.36-.01.11-.12,1.13-.67,2.14-.48.82-.69,1.55-.75,1.75.17.25.32.45.32.45.02.03.03.07,0,.11-.4.77-1.83,1.21-2.21,1.21,0,0-.09-.01-.1-.02Zm-1.44-4.49c.04.09.08.14.11.16-.01-.02-.02-.05-.04-.09-.03-.05-.08-.14-.15-.25.01.02.09.18.09.18Zm3.51-2.17c-.05.19-.1.34-.12.42-.02.07-.02.12-.02.15.01-.03.05-.1.08-.24,0,0,.05-.26.06-.33Zm-.85.16c-.04.12-.06.24-.04.27,0-.02,0-.13.04-.27Z"/>
        <g>
          <path class="cls-12" d="m25.94,28.41s-.64-.87-.93-1.9-1.04-2.52-1.13-2.65-.23-.38-.41-.27-.08.35-.06.4.4.75.46.97c.03.09-.05.09-.05.09,0,0,0,.08-.09-.16s-.75-1.38-.98-1.55-.38-.03-.38-.03c0,0-.15.07-.07.29s.7,1.09.7,1.09c0,0,.19.25.15.36s-.18-.04-.18-.04c0,0-.23-.44-.47-.81-.18-.27-.38-.49-.41-.54-.07-.11-.22-.25-.38-.14s-.15.26-.13.3.73,1.11.87,1.36.06.25.06.25c0,0-.12.1-.3-.24s-.59-1.25-.89-1.1-.09.51-.09.51c0,0,.25.78,1.05,1.66.53.68.14.51.14.51,0,0-.37-.11-.66-.77-.09-.25-.24-.23-.35-.17s-.15.16-.1.28.42.99,1.16,1.73c.78.73,1.26,1.52,1.31,1.71.19.08,1.77-.36,2.19-1.15Z"/>
          <path class="cls-11" d="m25.85,28.42s-.29.4-.84.69-1.2.39-1.2.39c0,0,.29-.42.92-.75s1.12-.32,1.12-.32Z"/>
        </g>
        <g>
          <path class="cls-14" d="m22.96,27.73s.39-1.07.38-2.21.3-2.88.36-3.03.12-.45.34-.4.19.33.19.39-.18.88-.18,1.13c0,.1.08.08.08.08,0,0,.03.07.04-.18s.35-1.63.54-1.87.38-.15.38-.15c0,0,.18.03.16.27s-.38,1.32-.38,1.32c0,0-.12.31-.04.41s.17-.1.17-.1c0,0,.1-.51.23-.96.1-.33.24-.62.26-.67.04-.13.15-.32.34-.26s.23.22.22.26-.41,1.35-.48,1.64.02.28.02.28c0,0,.15.07.23-.33s.23-1.45.57-1.39.25.49.25.49c0,0-.02.87-.57,2-.34.85.01.56.01.56,0,0,.34-.22.44-.98.02-.28.18-.31.3-.28s.2.11.18.25-.13,1.13-.66,2.1c-.57.97-.83,1.92-.82,2.13-.17.13-1.91.16-2.57-.51Z"/>
          <path class="cls-12" d="m23.05,27.71s.41.32,1.06.45,1.34.03,1.34.03c0,0-.42-.33-1.17-.49s-1.24,0-1.24,0Z"/>
        </g>
      </g>
    </g>
  </g>
</svg>