<?xml version="1.0" encoding="UTF-8"?>
<svg xmlns="http://www.w3.org/2000/svg" viewBox="0 0 19.41 13.04">
  <defs>
    <style>
      .cls-1 {
        fill: none;
      }

      .cls-2 {
        fill: #fff;
      }

      .cls-3 {
        fill: #d1d0c7;
      }

      .cls-4 {
        fill: #a8a8a8;
      }

      .cls-5 {
        fill: #9c5f40;
      }

      .cls-6 {
        fill: #4c4848;
      }

      .cls-7 {
        fill: #7c7c7c;
        mix-blend-mode: lighten;
        opacity: .49;
      }

      .cls-8 {
        isolation: isolate;
      }
    </style>
  </defs>
  <g class="cls-8">
    <g id="Livello_2" data-name="Livello 2">
      <g id="Where_is_found" data-name="Where is found">
        <g id="ic_Oozing_skin_lesions_fistulous_withers" data-name="ic_Oozing skin lesions “fistulous withers">
          <g>
            <path class="cls-2" d="m9.08,13.04c-.32,0-.64-.02-.93-.07-1.73-.26-3.22-1.29-4.54-2.21C1.88,9.53.18,8.17.01,6.2c-.02-.34-.02-.64.02-.92C.52,1.87,3.96.09,7.11.09c.48,0,.96.04,1.41.12.17.03.34.07.51.1.48.1.97.2,1.44.2.15,0,.31-.01.46-.04.26-.04.52-.13.78-.22.31-.11.63-.21.97-.25.07,0,.15-.01.22-.01.41,0,.79.12,1.16.25.18.06.33.11.47.15.65.18,1.24.19,1.86.2h.49c.98.05,1.81,1.16,2.14,1.8.06.12.12.25.17.38.38,1,.29,2.16-.26,3.44l-.08.2c-.59,1.38-1.32,3.09-2.38,4.15-.93.97-2.27,1.4-3.68,1.79-1.08.3-2.41.68-3.7.68Z"/>
            <path class="cls-2" d="m9.08,12.94c-.32,0-.63-.02-.92-.07-1.71-.26-3.19-1.28-4.49-2.19C1.96,9.46.28,8.12.11,6.2c-.02-.34-.02-.63.02-.9C.61,1.94,4,.19,7.11.19c.48,0,.94.04,1.39.12.17.03.35.07.53.1.47.1.96.2,1.44.2.16,0,.32-.01.48-.04.27-.04.53-.13.79-.22.31-.1.62-.21.95-.25.07,0,.14-.01.21-.01.4,0,.77.12,1.13.25.15.05.31.1.47.14.66.18,1.26.19,1.89.21h.49c.93.05,1.73,1.12,2.06,1.75.06.12.12.25.17.37.37.98.28,2.11-.26,3.37l-.08.2c-.58,1.37-1.31,3.08-2.36,4.12-.91.96-2.24,1.38-3.64,1.76-1.07.3-2.4.67-3.68.67Z"/>
            <path class="cls-1" d="m11.27,6.5l.1.02"/>
            <g>
              <path class="cls-5" d="m19,2.83c.4,1.07.19,2.24-.25,3.29-.59,1.39-1.33,3.2-2.42,4.29-.92.96-2.3,1.38-3.59,1.73-1.48.42-3.03.84-4.56.61-1.65-.25-3.09-1.23-4.45-2.17C2.14,9.45.38,8.11.21,6.17c-.02-.29-.02-.59.02-.88C.78,1.51,5.1-.22,8.48.39c.82.15,1.66.4,2.48.27.59-.1,1.14-.4,1.74-.47s1.18.22,1.77.37c.84.23,1.57.19,2.4.22s1.61.99,1.97,1.68c.06.12.11.24.16.36Z"/>
              <path class="cls-7" d="m9.84,1.25c.69.26,1.34.63,2.06.78,1.15.23,2.42-.12,3.47.38.34.17.64.42,1,.54.53.18,1.21.1,1.54.52.22.29.15.71-.11.96s-.67.32-1.04.25c-.23-.04-.45-.13-.68-.17s-.49,0-.63.17c-.16.19-.12.47-.02.7s.25.44.28.69c.08.65-.7,1.18-.57,1.82.09.43.57.74.59,1.17.01.3-.21.56-.49.69s-.6.16-.92.17c-.75.02-1.51-.06-2.25-.24-.39-.09-.82-.21-1.16-.02-.46.25-.44.87-.69,1.31-.32.55-1.1.78-1.75.59s-1.15-.73-1.36-1.33c-.15-.43-.18-.91-.42-1.31-.24-.4-.66-.69-1.12-.86s-.94-.24-1.43-.3c-.59-.08-1.26-.19-1.6-.65-.23-.31-.24-.71-.25-1.08-.01-.47,0-.99.36-1.3.21-.18.51-.26.74-.42.58-.4.59-1.21.96-1.79.26-.41.69-.7.95-1.12.12-.19.12-.27.34-.35.25-.1.57-.13.84-.17,1.12-.15,2.29-.02,3.35.38Z"/>
              <path class="cls-6" d="m7.15,1.38c-.2.04-.4.08-.61.12-.46.09-1.01.26-1.14.71-.56.6-.96,1.33-1.17,2.12-.07.27-.12.56-.28.79-.18.26-.49.47-.48.78.01.28.3.47.57.55s.57.08.81.23c.39.23.55.76.98.91.23.08.49.03.72.12.28.12.42.43.52.72.2.59.32,1.21.69,1.71s1.08.82,1.61.51c.37-.21.54-.63.8-.96.38-.48.99-.77,1.61-.76.4,0,.8.13,1.19.23s.82.14,1.2,0,.7-.52.64-.92c-.02-.16-.09-.3-.1-.46,0-.27.18-.5.3-.75.33-.71,0-1.53-.04-2.32,0-.14,0-.28.08-.39.08-.11.21-.16.33-.21.44-.18.88-.36,1.32-.54-.93-.38-1.87-.71-2.84-.96-1.25-.32-2.53-.51-3.81-.56-.07,0-.43-.41-.54-.47-.23-.13-.5-.2-.77-.2s-.43.02-.69-.03c-.31-.07-.61-.02-.92.04Z"/>
              <path class="cls-3" d="m6.32,2.09c.25.06.32.63.56.7.09.03.22,0,.24.16.02.13-.07.29-.16.32s-.16-.03-.23-.06-.16-.05-.24.04c-.05.06-.09.17-.13.26s-.1.17-.16.15c-.04-.01-.06-.08-.09-.11-.12-.15-.35.15-.48.01-.06-.06-.07-.19-.09-.31-.04-.34.01-.67.24-.77.08-.04.16,0,.25-.05.05-.03.26-.32.27-.32Z"/>
              <path class="cls-1" d="m6.51,2.09c.08.05.1.12.11.2.01.08.07.11.1.18.08.18.28.25.47.28.03-.14.11-.23.27-.16-.1-.03-.12-.14-.2-.2-.04-.03-.09-.03-.13-.07-.05-.06-.06-.13-.1-.19-.06-.08-.26-.11-.36-.11-.06,0-.1.04-.17.07Z"/>
              <path class="cls-3" d="m6.48,2.06c.06.11.13.18.16.29.02.06.04.08.07.13.03.04.05.1.08.15s.08.06.11.09c.04.03.16.1.21.05.01-.01.02-.13.04-.24,0-.04.02-.09,0-.13-.04-.08-.11-.06-.22-.16-.05-.04-.13-.08-.17-.12-.07-.07-.14-.06-.28-.05Z"/>
              <path class="cls-1" d="m6.61,3.23c.06-.02.15.07.17.12-.04,0-.07,0-.2.04-.06-.02-.05-.16.03-.16"/>
              <path class="cls-3" d="m5.84,2.15c-.09.01-.06.21.08.15.03.09.11-.04.13-.06.04-.05.1-.05.13-.11.04-.11-.13-.07-.2-.06-.06.02-.1.06-.13.08Z"/>
              <path class="cls-3" d="m7.26,2.49c-.06.07,0,.09,0,.17,0,.05-.05.11-.06.16-.01.06-.01.13-.03.25.03.05.16.03.21-.09.04,0,.08.02.09.06.06-.06.07-.12.11-.19.02-.04.06-.06.07-.1.03-.12-.31-.32-.39-.26Z"/>
              <path class="cls-3" d="m6.86,1.81c-.01.07.02.09.06.23.02.04.06.07.18.13.02.02.07.07.09.09.04.06.01.07.28.09.04,0,.08.04.12.05.04.02.07.03.1,0,.06-.08-.09-.12-.13-.15.04-.04.11-.09.07-.16-.04-.06-.19-.04-.16-.13.01-.04.11-.08.13-.13-.12-.16-.32-.15-.67-.11-.03.01-.04.07-.07.09Z"/>
              <path class="cls-3" d="m5.41,2.7c-.1.05-.07.18-.15.25-.04.03-.1.02-.11.08-.01.06.07.11.12.12.09.02.09-.03.13-.1s.07-.11.09-.18c.01-.06.03-.16-.08-.17Z"/>
              <path class="cls-1" d="m5.44,3.15c-.14,0-.13.33,0,.27.02,0,.04-.07.05-.09.01-.04.01-.08-.04-.2"/>
              <path class="cls-3" d="m7.79,2.15s.02.08.02.11c0,.05,0,.08,0,.12,0,.07.01.08-.08.09-.06,0-.11,0-.17.03.09.03.08.13.14.2s.09.05.19-.06c.1-.05.27.05.38.04,0-.09.01-.14-.03-.23-.04-.08-.02-.13-.03-.22-.08-.02-.13-.05-.19-.09-.04-.02-.14-.08-.24,0Z"/>
              <path class="cls-3" d="m7.9,2.77c-.05.02-.1-.02-.18.14-.03.03-.03.11-.12.18-.02.05.03.09.08.08.06-.02.05-.08.13-.07.05,0,.06.06.17.03.04-.01.1.02.19-.05.03,0,.09.04.11.06.02-.04.04-.08.12-.14.02-.03.03-.11.01-.14-.14-.02-.27-.27-.5-.1Z"/>
              <path class="cls-3" d="m7.34,3.14c-.02.08-.13.09-.2.07,0,.06,0,.09-.14.32-.03.18.21.26.26.42.05.09.07.07.12-.01.07-.12.14-.19.17-.33.02-.07.02-.09.09-.1.05,0,.11.01.14-.04.03-.04,0-.1.01-.14-.05,0-.11-.03-.11-.08-.06-.01-.12,0-.17-.1-.02-.03-.1-.04-.16-.01Z"/>
              <path class="cls-3" d="m7.76,3.17c-.1.06.15.11.17.12,0,.05,0,.16-.07.18.01.06,0,.11-.08.11-.02.05-.08.08-.08.14,0,.04.05.07.08.08.09.04.07,0,.13-.05.04-.03.1-.05.15-.05.08,0,.19,0,.26.03.08.03.17.15.26.13.09-.02.14-.22.19-.28.05.01.08,0,.12-.02.05-.03.14-.07.19-.11.04-.03.05-.04.04-.09,0-.04-.03-.07-.05-.18-.03-.05-.07-.04-.13-.07-.09-.03-.15-.04-.19-.12-.02-.03-.02-.13-.04-.14-.09-.05-.14.1-.16.14-.03.06-.15.23-.2.09,0,.03-.08.11-.12.13-.06.02-.12-.03-.17-.04-.05,0-.1,0-.15,0-.04,0-.11-.04-.15-.01Z"/>
              <path class="cls-3" d="m8.43,1.91c0,.07,0,.13,0,.2,0,.05-.01.09-.03.15-.03.1,0,.18-.01.28,0,.03-.05.07-.01.13.04.04.05.04.21.04.04-.02.11.02.16.04.06.03.09.04.1.1.01.08,0,.1.1.12,0,.06.1.06.15.08.09.04.31.11.33.22,0,.03-.02.08-.01.11,0,.04.03.09.06.11.03-.03.05-.1.07-.14.02-.06.02-.14.04-.2s.09-.08.18-.16c.06-.04.16-.04.17-.13-.07-.05-.13-.04-.16-.11-.01-.03-.03-.07-.03-.1-.01-.09.02-.17-.02-.26-.05-.11-.21-.18-.33-.15-.03,0-.06.03-.1.04-.13,0-.2-.15-.22-.26s0-.08-.12-.12c-.06-.02-.12-.05-.18-.07-.07-.03-.13-.08-.21-.06-.03.01-.06.04-.12.15Z"/>
              <path class="cls-3" d="m7.57,1.57c.07.06.14.05.1.22-.02.07-.05.13.04.18.06.03.1,0,.18.02s.13.07.21.08c.03,0,.07.03.1.04.04,0,.06-.02.1-.02.01-.06.01-.14.08-.44-.02-.06-.09-.07-.14-.08-.04,0-.07-.01-.11-.02-.08,0-.14,0-.22,0-.09,0-.11-.07-.35.03Z"/>
              <path class="cls-3" d="m6.54,3.51s.21-.06.26-.03c.03.02.02.09.04.12.02.03.06.06.14.16.04.04.1.09,0,.1-.07.01-.08-.05-.12-.08-.05-.03-.28-.04-.32-.03-.06.01-.05.02-.06.09-.1.01-.09-.15-.06-.21.02-.04.07-.1.12-.12Z"/>
              <path class="cls-3" d="m5.5,3.55s.07.08.13.1c.08.03.2,0,.47.03.06.03.09.08.16.04-.01.04.03.08.04.21.01.04.06.05.05.1,0,.04-.06.04-.08.07-.07.12.05.15.14.19-.03.04-.11.07-.17.06-.13-.01-.26-.08-.39-.12.02-.07-.09-.06-.13-.07-.09-.02-.07-.08-.12-.16-.04-.07-.13-.07-.2-.1-.09-.04-.11-.11-.13-.21-.16-.03-.21-.03-.22-.31,0-.02-.11-.25.02-.17.06.03.04.1.06.15.02.06.09.08.14.12.03.04.02.09.1.08.04,0,.07-.04.13-.02Z"/>
              <path class="cls-1" d="m9.2,3.25c.06,0,.11.05.06.11-.08,0-.08-.07-.07-.13"/>
              <path class="cls-3" d="m9.17,1.92c-.02.1-.02.22.12.22.06,0,.12-.02.18-.02.08,0,.08-.04.09-.11-.07-.04-.15-.1-.23-.12-.06-.02-.1.03-.16.04Z"/>
              <path class="cls-3" d="m8.03,3.85c-.09-.03-.19.03-.26.03-.05,0-.09-.04-.14-.04-.03.05-.04.1-.22.27-.05.03-.08.04-.1.1-.01.04-.01.15,0,.18.06.08.25.04.32.1.06.05,0,.14.03.2.03.1.16.15.23.21.05.05.1.1.17,0,.02-.03,0-.08.02-.11.07-.16.48,0,.59.06.1.04.18.09.29.06.07-.02.08-.05.12-.12.08-.15-.07-.37.05-.51.07-.09.29-.17.39-.18-.07-.17-.26-.25-.43-.29-.05.1-.08.19-.2.23-.06.02-.16.03-.23.04-.1,0-.3.05-.39-.01-.05-.04-.03-.11-.02-.17-.06-.03-.17-.03-.23-.05Z"/>
              <path class="cls-3" d="m8.82,3.69c0,.08-.16.16-.04.21.1.04.12-.04.13-.12.06,0,.12.02.17-.02.03-.03.03-.06.08-.08s.21.05.24-.02c.01-.04-.03-.08-.06-.1-.05-.04-.15-.07-.21-.05-.04.01-.08.07-.12.09-.07.03-.16.04-.2.08Z"/>
              <path class="cls-3" d="m7.11,3.9c.02.05.06.14.07.19,0,.03,0,.07,0,.1,0,.04.04.08.04.12.01.09-.05.21-.16.14-.08-.04-.04-.13-.15-.17-.12-.04-.25-.07-.36-.12-.07-.03-.12-.03-.03-.15.02-.03.01-.06.04-.09.01-.01.13-.07.15-.08.04,0,.07.03.1.05.04.02.07.02.11.02.06,0,.11-.02.19-.02Z"/>
              <path class="cls-3" d="m9.69,2.12c.1.01.19.09.28.12.08.03.15.01.23,0,.06,0,.2-.04.3.06.02.04.07.03.09.08.02.08-.07.3-.09.37-.12,0-.23-.13-.35-.14-.1-.01-.07.09-.14.1-.03,0-.09-.02-.11-.04-.07-.05-.08-.07-.09-.14s-.03-.17-.06-.24c-.02-.07-.03-.13-.05-.18Z"/>
              <path class="cls-3" d="m9.98,2.8s.12,0,.13-.05c.04.01.09.03.23.08.05.03.05.08.01.11-.03.09.12.16.13.26.01.07,0,.11-.04.15-.08.06-.11.07-.09.19,0,.05.04.12.02.17-.12-.07-.22-.24-.35-.2-.05.02-.09.04-.21.08-.08-.04-.1-.26-.07-.34.04-.11.17-.12.2-.22.02-.07.04-.15.03-.23Z"/>
              <path class="cls-3" d="m9.64,3.35c-.02.08.02.36.29.36.03.02.05.03.09.06.18.15.4.23.61.34-.06.03-.02.16-.07.22s-.11,0-.18.01c-.1.21.01.56-.25.64-.18.06-.3-.02-.4-.18-.07-.11.06-.26.03-.4-.01-.04-.06-.06-.07-.15,0-.06.03-.14,0-.19-.04-.08-.19-.16-.26-.18.02-.07-.03-.22.1-.22.01-.07.01-.15.04-.21.01-.03.05-.1.08-.09Z"/>
              <path class="cls-1" d="m9.61,4.11s-.05-.07-.07-.1"/>
              <path class="cls-3" d="m9.92,3.59c.05,0,.14-.04.2-.02.05.02.09.12.07.17-.06-.01-.11-.07-.17-.09-.04-.01-.08-.02-.1-.06Z"/>
              <path class="cls-3" d="m8.33,3.88c.01.1.01.13.12.14.05,0,.09-.02.14-.03-.03-.09-.2-.1-.26-.11Z"/>
              <path class="cls-3" d="m10.93,2.77s-.17.18-.11.29c.02.07-.04.13-.09.26.03.07.22.13.28.16.24.11.49.26.7.42.19.1.32-.04.39-.21.05-.11.13-.31.09-.6,0-.08-.01-.14-.02-.22,0-.06,0-.11-.03-.16-.07-.15-.23-.16-.38-.18s-.18.05-.3.1c-.05.03-.12.04-.18.04-.09,0-.18-.01-.27-.03-.12-.02-.26-.03-.37-.09-.03.1.2.23.29.23Z"/>
              <path class="cls-3" d="m10.69,2.38s.04.05.2.08c.04,0,.11.06.16.04.04-.02.05-.11.05-.15,0-.11-.17-.14-.27-.13-.13.01-.09.1-.14.16Z"/>
              <path class="cls-1" d="m11.29,2.39s-.05.12,0,.14c.07.04.13-.04.19-.07.07-.04.07-.08,0-.11-.1-.04-.1.03-.17.05"/>
              <path class="cls-3" d="m6.57,4.26c.05.06.15.08.22.11.07.04.11.13.19.18s.13.03.22.02c.03,0,.32-.02.18.08.04.08.16.13.24.16-.03.11-.03.1-.17.1-.2,0-.36-.11-.56-.15-.14-.03-.31-.05-.41-.14-.08-.07-.18-.1-.29-.11.07.01.19-.05.23-.09.02-.03.03-.06.15-.15Z"/>
              <path class="cls-3" d="m5.13,3.73c.07,0,.11.13.15.17.06.06.18.07.21.16.02.05.01.07.05.12.02.02.06.03.09.05.08.06.21.1.32.12.07.01.1,0,.13.15.01.03.03.06.05.09,0,0,.15,0,.17,0,0,.08.24.11.3.15.11.07.22.14.36.15.05,0,.09,0,.13.03.02.01.09.04.1.06.03.06-.05.04-.09.07-.06.04-.08.11-.13.15-.08.08-.24.04-.33.02-.24-.07-.45-.23-.68-.34-.28-.13-.59-.18-.84-.38-.03-.02-.06-.06-.13-.14-.05-.03-.15-.03-.19-.09-.02-.03-.04-.12-.05-.15,0-.03-.04-.21.01-.24.04-.02.12.04.25-.1.03-.03.05-.09.11-.07Z"/>
              <path class="cls-3" d="m4.92,3.33c0,.1.15.38-.04.41-.06,0-.09,0-.24.03,0-.02.03-.11.04-.13.02-.03.06-.04.08-.08.01-.03-.01-.07,0-.11.02-.07.1-.08.17-.13Z"/>
              <path class="cls-3" d="m7.74,4.93c-.08.03-.16.07-.42.11,0,.06.02.12-.11.22,0,.04.05.13.1.15.04.01.08,0,.11-.02.04-.02.07-.05.15-.12.04,0,.06.02.15-.02.04-.04.05-.12.06-.17,0-.05,0-.09-.02-.14Z"/>
              <path class="cls-3" d="m7.84,5.03c-.01.05.01.13-.06.23-.03.06-.08.05-.15.14.04.04.11.06.17.07.05.01.11.02.16.03.03,0,.09,0,.12.02s.09.09.09.12c.05,0,.09-.06.14-.08.07-.03.1-.01.15.03.07.05.12.15.22.14.08,0,.15-.04.23-.05.05,0,.1,0,.14,0,.07,0,.12,0,.19-.02.03,0,.09-.05.2-.01.08,0,.13,0,.2.04.09.06.2.01.31.02.07,0,.11.03.16.07.03.02.08.06.12.05.03-.06.02-.12-.01-.18-.05-.07-.12-.13-.19-.19-.05-.04-.09-.08-.14-.13-.04-.04-.13-.08-.17-.2-.02-.03-.06-.05-.08-.07-.05-.04-.1-.07-.18-.17-.02-.04.03-.1.05-.13.03-.05,0-.07.04-.2-.04,0-.09-.02-.27.25-.02.03-.02.07-.02.1,0,.06,0,.07-.05.1-.06.04-.14.04-.21.05-.06,0-.11.03-.17.03-.04,0-.11.02-.15,0-.03-.02-.06-.09-.07-.11-.08-.02-.16-.02-.24-.04-.05-.02-.1-.05-.21-.11.04.05-.01.08-.05.1-.04.03-.06.09-.26.1Z"/>
              <path class="cls-3" d="m9.59,4.28c-.05.03-.06.1-.1.13-.07.05-.19,0-.25-.05.02-.06.1-.06.15-.08.06-.02.11-.04.2,0Z"/>
              <path class="cls-3" d="m9.23,4.43s.07.04.11.08c0,.03-.05.07-.06.09-.04.05-.04.1-.09.14.01-.05.02-.1.05-.3Z"/>
              <path class="cls-3" d="m9.95,5.07c.06.03.14.02.21.02.14.01.27.06.41.06.1,0,.18-.03.24-.12.04-.06,0-.14.01-.21.01-.04.04-.05.07-.08.04.08.04.18.06.27.02.07.02.12.02.19,0,.05,0,.08-.02.13-.02.07-.02.15-.03.23,0,.04-.02.1-.05.14-.04.05-.11.03-.17.04.04-.07-.13-.13-.16-.16-.06-.04-.11-.07-.17-.1-.08-.04-.18-.09-.23-.17-.03-.05-.05-.11-.1-.15-.03-.02-.07-.03-.08-.1Z"/>
              <path class="cls-3" d="m10.44,4.45c-.05.1-.01.24-.02.35,0,.04-.04.11.04.17.03,0,.11.04.15.01s.05-.1.07-.14c.03-.07.04-.16.11-.21.05-.04.11-.04.16-.07.08-.05.13-.15.21-.19.04-.02.11,0,.14-.05.04-.06,0-.14-.05-.17-.04-.02-.07,0-.11.01-.04.02-.07.04-.11.06-.06.04-.13.06-.19.11-.04.03-.08.07-.12.09s-.1.02-.15.02c-.04,0-.08,0-.12,0Z"/>
              <path class="cls-3" d="m10.55,3.36s-.04.07-.05.1c-.02.06-.01.12,0,.18,0,.06.02.17-.08.17-.03,0-.13-.1-.11,0,0,.04.07.06.11.08.07.04.15.07.29.13.05,0,.1-.04.22.05.04,0,.07,0,.11-.02.06-.02.12-.04.18-.05s.06.01.1.06c.03.04.07.08.09.12.03.06.05.13.09.35.07.01.15.02.22.03.06.01.13.09.12.19,0,.04.07.04.11.04.1,0,.23-.05.3-.12.03-.02.05-.06.07-.08.07-.08.16-.16.35-.28.05-.04.07-.05.14-.03.06,0,.12.03.18.05.05.02.1.05.21.04.02-.04.02-.11,0-.15-.01-.04-.04-.08-.13-.25-.09-.05-.2-.08-.3-.09-.05,0-.12-.04-.17,0s-.04.09-.07.14c-.03.05-.06.07-.11.09-.04.02-.08.02-.12.02-.07,0-.14.04-.21.06-.1.03-.21.06-.31.06-.06,0-.07-.02-.11-.07-.02-.03-.05-.06-.1-.16-.02-.03-.05-.04-.08-.06-.05-.02-.06-.03-.09-.07s-.07-.08-.26-.18c-.07-.11-.16-.12-.27-.16-.06-.02-.15-.04-.33-.17Z"/>
              <path class="cls-1" d="m10.61,2.76s.08.1.07.22c-.02.04-.01.09-.02.14-.05,0-.09-.03-.1-.07-.01-.03-.03-.08-.03-.11,0-.05.15-.12.08-.18Z"/>
              <path class="cls-3" d="m10.59,2.71s-.03.1-.08.26c0,.06,0,.05.18.18.02-.1.08-.24.04-.33-.02-.04-.05-.06-.14-.11Z"/>
              <path class="cls-3" d="m12.22,2.66c0,.05.01.11.02.16s.04.1.04.15c0,.06-.02.12-.01.18,0,.05.04.08.07.19.03.11-.01.24-.04.35-.01.04-.03.06-.05.09-.03.05-.08.1,0,.14.03.01.07.03.17-.02.03-.05.07-.09.14-.22.04-.02.11.02.14.02.05,0,.08-.02.13-.03.17-.04.31.09.54.02.05-.06.09-.11.16-.13.08-.02.15.01.21.07.07.06.14.14.24.12.13-.04.25-.16.4-.15.08,0,.14.05.21.08.04.01.08.02.12.02.11.02.17-.11.22-.19.04-.06.09-.11.13-.17s.07-.1.15-.15c0-.06-.09-.11-.15-.12-.15-.02-.3,0-.44-.02-.24-.04-.45-.16-.68-.25-.08-.03-.13-.06-.22-.04-.06.01-.07.03-.16.12-.04.02-.09.04-.14.05-.06,0-.12-.01-.27-.02-.05-.01-.11-.06-.13-.1-.05.08-.06.23-.04.32,0,.05.03.09.03.13,0,.04-.01.11-.05.14-.04.03-.16.03-.22.02-.04,0-.08-.02-.09-.07-.01-.04-.01-.09-.03-.22,0-.09.08-.13.09-.22,0-.08-.01-.18-.04-.25s-.1-.09-.16-.11c-.06-.03-.07,0-.2.02-.04,0-.09.03-.09.11Z"/>
              <path class="cls-3" d="m12.72,3.05c.08.01.14,0,.16.1,0,.05.05.13-.03.13-.06,0-.13-.01-.13-.23Z"/>
              <path class="cls-1" d="m13.33,2.52c-.06-.01-.16,0-.25.06,0,.03.03.07.13.15.03.02.1.02.14.02.05,0,.23-.03.15-.11-.07-.07-.13-.11-.23-.13"/>
              <path class="cls-3" d="m13.22,3.83c.05-.01.1-.03.15-.04.04,0,.08-.01.12-.02.05-.02.13-.02.17-.05.03.02.04.07.11.14.02.03,0,.08.02.12.03.08.17.14.22.19.02.02.08.06.09.17.01.08-.03.11-.1.14-.05.02-.07.07-.05.13.01.04.08.07.06.11-.01.03-.1.06-.13.06-.05,0-.1,0-.14-.01-.03,0-.1,0-.13-.02-.06-.04-.06-.14-.06-.2,0-.13-.06-.28-.14-.38-.05-.06-.15-.09-.2-.33Z"/>
              <path class="cls-3" d="m14.08,3.85s.1-.09.21-.11c.07,0,.13-.03.2,0,.05.02.1.04.16.06.05.01.09.03.14.04.1.02.14.03.19-.07.02-.04.01-.14.05-.17.02-.01.1,0,.11.02.02.03.02.09.01.12-.01.06-.05.11-.06.17,0,.04.01.07,0,.1-.01.09-.14.09-.19.14-.03.04-.03.1-.04.3,0,.04-.02.09-.05.11-.03.02-.14-.04-.16-.05-.06-.02-.11-.05-.21-.11-.03-.04-.09-.09-.24-.2-.04-.02-.04-.11-.07-.15-.04-.05-.11-.07-.16-.09-.03-.01-.13-.04-.08-.09.04-.04.15-.06.19-.03Z"/>
              <path class="cls-3" d="m15.3,3.29c-.04.05-.13.13-.11.2.02.06.13.07.15.3.02.02.17-.02.18-.02.06-.01.1-.02.13-.07.03-.05.08-.06.2-.07.06-.05-.12-.14-.15-.16-.06-.04-.12-.08-.19-.11-.06-.03-.14-.06-.21-.07Z"/>
              <path class="cls-3" d="m14.22,4.72c0-.08.16,0,.19,0,.07.03.06.05.05.12,0,.04,0,.08.03.12.02.05.05.09.06.14,0,.03,0,.07,0,.1,0,.09.09.14.13.21s.06.17.13.34c-.05.02-.18.03-.27-.05-.06-.05-.13-.09-.19-.14-.04-.03-.08-.04-.11-.15-.02-.04-.05-.06-.09-.17,0-.05,0-.11.02-.16.01-.03.03-.06.03-.1,0-.09,0-.18.02-.26Z"/>
              <path class="cls-3" d="m12.75,4.31c.15.02.32.04.5.26.02.04.06.06.18.18-.01.13-.2,0-.25-.01-.04-.01-.08,0-.12,0-.08.02-.16,0-.25,0-.07,0-.12.04-.19.04-.05,0-.1-.01-.15-.02s-.1-.01-.15-.03c.04-.08.1-.15.18-.2.05-.03.08-.07.12-.1.03-.03.04-.07.14-.12Z"/>
              <path class="cls-3" d="m13.36,4.36c-.02.06-.04.07-.01.13.01.04.03.07.05.1.04-.03.05-.11.04-.16,0-.04-.05-.08-.08-.08Z"/>
              <path class="cls-3" d="m14.25,4.37s-.04.09-.09.17c.03.03.11.03.15.03.06,0,.13.01.19.04-.01.03.07.1.09.12s.07.05.07.15c0,.04,0,.09,0,.13,0,.05.04.09.07.13.04.04.05.06.08.2.02.04.02.09.07.19.09.02.03-.32.03-.35,0-.06-.02-.11-.08-.25-.01-.04,0-.08,0-.12,0-.09-.12-.07-.15-.15-.03-.08-.12-.09-.19-.14-.05-.04-.11-.06-.15-.1-.03-.02-.05-.04-.09-.05Z"/>
              <path class="cls-3" d="m14.06,4.85c.06,0,.02.11-.05.38.02.04.05.09.05.14,0,.04,0,.07,0,.11,0,.05.03.11.07.14.03.02.11.01.11.06,0,.1-.43,0-.5,0-.03,0-.08,0-.12-.04-.06-.05-.12-.1-.17-.17-.06-.09-.14-.18-.22-.24-.11.04-.23.09-.34.01-.1-.08.03-.23.12-.26.03,0,.09,0,.22,0,.06,0,.12-.01.18-.02.05,0,.1,0,.14,0,.05,0,.09-.04.14-.05.06-.01.12-.03.18-.03.04,0,.07-.01.18-.01Z"/>
              <path class="cls-3" d="m13.23,5.27c.04.1.05.19.23.4.02.03.08.08.11.11.04.03.08.05.13.08s.07.03.03.18c-.02.06-.09.04-.14.07-.03.02-.06.04-.1.06-.14.05-.31,0-.45.07-.09.04-.16.1-.26.13-.09.02-.24.03-.3-.04-.04-.04-.08-.09-.24-.23-.05-.03-.14,0-.2,0s-.1,0-.15.02c-.07.04-.1.1-.21.09-.04-.06-.08-.14-.1-.21,0-.03,0-.07,0-.1,0-.07-.01-.12,0-.19,0-.04,0-.1.08-.17.14.01.3.07.43.12s.3.22.46.11c.05-.03.06-.12.09-.18.03-.04.14-.11.14-.17,0-.05-.1-.1-.14-.12-.07-.05-.14-.09-.21-.14-.03-.02-.06-.04-.09-.06-.05-.02-.1-.02-.15-.03.02-.13.24-.08.32-.11.03.06.06.12.1.17.04.07.08.11.16.15.05.03.1.06.16.07.04,0,.07,0,.11,0,.05,0,.08-.02.22-.05Z"/>
              <path class="cls-3" d="m12.18,5.12c.05.02.12.04.16.08.03.03.04.05.25.22-.01.04-.08.09-.16.2-.04.03-.17-.01-.22-.03s-.11-.04-.29-.1c-.1-.01-.16-.12-.26-.14-.07-.02-.08-.07-.04-.13.06-.08.17-.07.26-.05.03,0,.1.03.18,0,.03-.02.09,0,.11-.04Z"/>
              <path class="cls-3" d="m12.04,4.98c-.08.02-.16.07-.25.07-.12,0-.21-.08-.32-.11-.06-.02-.05.04-.08.08-.03.05-.1.11-.15.08-.03-.02-.07-.07-.12-.19,0-.06-.04-.09-.04-.16,0-.11.07-.12.22-.23.03,0,.05.04.16.09.06.02.11,0,.16.02.07.01.09.02.1.09.01.07.1.12.24.15.06,0,.02.05.07.09Z"/>
              <path class="cls-3" d="m12.67,4.9s.03.11.13.11c.04-.03.08-.05.18-.13-.08-.03-.25-.06-.32.03Z"/>
              <path class="cls-3" d="m13.83,5.77s.09.03.29,0c.08-.02.02.17,0,.21-.05.09-.18-.04-.22-.1-.03-.05-.04-.07-.07-.12Z"/>
              <path class="cls-3" d="m11.09,5.22s-.03.1-.04.15c0,.04-.03.09-.02.14.01.07.1.05.16.05.07,0,.11.02.09-.07-.01-.08-.05-.15-.09-.22-.02-.03-.05-.06-.12-.14,0,.04-.01.08,0,.1Z"/>
              <path class="cls-3" d="m11.51,5.13s-.12.02-.14.05c-.02.04,0,.06.02.1.02.05.01.07-.01.12-.01.03-.02.07-.02.1,0,.07-.02.14-.05.21-.03.06-.08.08-.24.13-.03.09-.08.17-.03.26.05.09.14.16.25.17.01-.02.04-.11.07-.1.06-.06.07-.12.08-.2,0-.07.03-.13.04-.2,0-.06,0-.11,0-.17,0-.04.02-.07.04-.1.03-.08,0-.15-.02-.24,0-.05.02-.09.03-.14Z"/>
              <path class="cls-3" d="m10.49,5.73c.09.01.16.07.24.1.03.01.08,0,.1.02.04.03.03.11.04.16,0,.03,0,.07.02.1.02.05.08.08.07.28-.06.02-.15,0-.3.03-.02.03-.04.09-.07.11-.04.02-.12-.01-.16-.03-.04-.02-.08-.05-.08-.09,0-.06.07-.06.08-.1.01-.03-.02-.09-.03-.11-.01-.05,0-.11,0-.17s0-.09-.01-.18c.01-.04.08-.08.1-.12Z"/>
              <path class="cls-3" d="m11.19,6.42s.14-.03.18-.06c.03-.03.02-.08.05-.1.05-.04.14.05.19.06.07.02.15-.05.21-.07.05-.01.1-.01.28-.02.04.02.1.03.2.13.07.07.17.14.27.16s.2,0,.38,0c.05.06-.09.14-.11.18-.02.05-.02.1.03.19-.03.01-.07,0-.1,0-.07,0-.13,0-.19-.02-.05,0-.1-.02-.14-.03-.08-.02-.17-.05-.25-.08-.07-.02-.14-.07-.21-.09-.04-.01-.09-.02-.13-.03-.06,0-.1.02-.15.05-.05.03-.12.06-.19.06-.06,0-.11,0-.22,0-.04-.04-.1-.07-.13-.11.02-.06.01-.15.03-.21Z"/>
              <path class="cls-3" d="m13.04,6.35c.06-.03.12-.04.18-.07.06-.02.11-.04.17-.03.05,0,.1.02.15.02.06,0,.1-.05.19-.17.03-.04.09-.02.14,0,.08.02.17.1.38,0,.04.06,0,.22-.02.29-.03.09-.12.14-.23.38-.04,0-.09,0-.12-.01-.1-.05-.16-.22-.3-.23-.03,0-.07-.02-.15,0-.04,0-.06,0-.1-.03-.07-.03-.13-.06-.28-.14Z"/>
              <path class="cls-3" d="m12.95,6.62c-.03.06,0,.12-.02.18.05.01.11,0,.21-.03.09-.02.12.08.12-.06,0-.08-.05-.14-.11-.19-.03-.03-.08-.02-.21.1Z"/>
              <path class="cls-3" d="m13.37,6.56c.02.05.05.06.09.05s.07-.01.12.01c.12.07.19.21.34.25,0,.06-.03.12-.1.14-.04.01-.1,0-.22.01-.06-.02-.11-.06-.24-.15-.02-.03-.02-.11.01-.31Z"/>
              <path class="cls-3" d="m14.32,6.04s.04.06.05.1c0,.05,0,.1,0,.14,0,.04.02.07.04.1.03.06,0,.08-.01.14.04,0,.1.03.14,0,.03-.02.05-.08.07-.1.03-.03.07-.06.13-.19.01-.04.02-.08.11-.11.03-.02.06-.07.06-.11,0-.05-.02-.06-.06-.08-.09-.03-.2-.02-.32-.16-.03-.02-.07-.02-.2.26Z"/>
              <path class="cls-3" d="m14.88,6.3s.02.09.03.12c.01.05.03.1.02.15,0,.04,0,.09-.04.25-.03.05-.09-.04-.12-.06-.04-.04-.07-.04-.05-.23-.02-.08.08-.18.16-.22Z"/>
              <path class="cls-3" d="m14.85,5.65s.04.23.14.22c.02-.07.01-.14-.14-.22Z"/>
              <path class="cls-3" d="m14.55,6.58s-.09.02-.15.14c-.03.1.06.16.14.19.06-.09.1-.23.01-.33Z"/>
              <path class="cls-3" d="m10.14,5.99c0,.05-.04.11,0,.15.02.03.04.07.07.08.06.01.05-.08.04-.12-.03-.06-.06-.11-.1-.12Z"/>
              <path class="cls-1" d="m10.97,6.48s-.09,0-.1.04.1.07.18.02c0-.03-.07-.04-.09-.06"/>
              <path class="cls-3" d="m13.16,6.92s-.05.1-.06.13c-.04.12-.05.23-.19.27-.04.02-.07.01-.2.15,0,.03.06.08.07.1.06.08.16.1.26.12.07.01.17.06.25.04.06-.01.18-.1.18-.16,0-.14-.25-.21-.2-.36.02-.06.04-.07.02-.13-.02-.03-.04-.06-.13-.16Z"/>
              <path class="cls-3" d="m13.36,7.02s0,.11,0,.15c0,.07.02.14.06.2.05.07.11.02.12-.05.01-.08-.01-.16-.05-.23-.02-.03-.06-.09-.13-.07Z"/>
              <path class="cls-3" d="m13.69,7.13c.11.02.35.11.39-.16.04,0,.14.05.16.13.02.05.09.09.13.13.03.03.07.06.07.2-.01.08-.01.14,0,.22,0,.07,0,.13-.03.2-.03.12.07.24.01.36-.1-.03-.2-.15-.26-.23-.04-.06-.03-.11-.05-.17-.03-.09-.15-.11-.2-.18-.02-.03-.03-.06-.05-.09-.02-.03-.05-.06-.07-.1-.02-.04-.02-.08-.05-.12s-.08-.12-.05-.17Z"/>
              <path class="cls-3" d="m14.24,6.61c-.07.02-.07.04-.08.1s-.03.07,0,.12c.03.04.1.05.15.16.01-.05.02-.1,0-.15s-.07-.07-.07-.12c0-.04.03-.09-.02-.11Z"/>
              <path class="cls-3" d="m14.67,6.85c0,.12-.18.01-.29.19-.04.09.06.14.11.21.03.04.06.1.06.15,0,.04-.03.07-.02.21.02.05.03.12.07.16.01-.06,0-.12,0-.17.01-.05.04-.1.05-.16.02-.09.04-.17.19-.38.05-.04.06-.1.07-.15-.09,0-.12.02-.25-.06Z"/>
              <path class="cls-3" d="m13.02,6.98c-.03.08-.08.13-.15.18-.09.07-.2.05-.31.06-.1.01-.19,0-.22.12-.01.04,0,.08-.03.12-.03-.1-.04-.22-.03-.33,0-.04.02-.09.01-.13.16.02.31.08.47.04.03,0,.06-.03.09-.04.05-.02.09-.02.16-.01Z"/>
              <path class="cls-3" d="m12.19,6.87c-.06-.03-.12-.04-.18-.07-.05-.02-.14-.09-.19-.08-.03,0-.07.05-.1.07-.07.05-.11.06-.2.04-.1-.02-.17-.03-.27-.02-.04,0-.13,0-.14.05-.02.07.14.11.22.16.03.01.15.04.18.03.05-.03.03-.06.1-.04.08.02.16.03.24.05.03.01.13.06.14.09.02.06-.04.11-.07.15-.04.05,0,.12.06.15.05.03.07-.03.09-.07.03-.07.02-.19.15-.36,0-.03.02-.1-.01-.14Z"/>
              <path class="cls-3" d="m12.2,7.08s-.07.13-.1.25c-.01.04-.03.08-.05.11-.02.03-.05.06-.05.1.04.02.07.02.12.02.05,0,.09.02.13.03.03-.14.05-.29-.04-.51Z"/>
              <path class="cls-3" d="m11.06,6.92c-.01.06,0,.14.02.2.02.05,0,.07,0,.12,0,.04,0,.07,0,.1,0,.04,0,.08,0,.12s-.02.09.11.2c.08,0,.16.02.24.03.03-.05-.06-.13-.07-.18-.01-.11.11-.09.19.08.06.02.08-.06.15-.16.01-.04,0-.09,0-.14,0-.06,0-.11-.07-.11s-.13.03-.2.04c-.05,0-.09,0-.14,0-.08,0-.11-.1-.14-.17-.02-.05-.02-.06-.11-.15Z"/>
              <path class="cls-3" d="m11.22,7.02s.03.07.08.09.13.03.18-.02c-.1-.02-.19-.07-.26-.07Z"/>
              <path class="cls-3" d="m11.78,7.44s-.03.09-.07.13c-.02.02-.05.06-.08.08-.05.03-.16,0-.16-.07,0,.04.01.07.04.18.01.09.05.11.14.22.02.04.06.09.12.08.05,0,.08-.07.14-.18,0-.05,0-.1.01-.15s0-.1-.14-.28Z"/>
              <path class="cls-1" d="m11.81,7.13c.09,0,.1.09-.11-.04.03-.05.13,0,.15.04"/>
              <path class="cls-3" d="m12.09,7.66c.07.01.26.03.39-.25.04,0,.14,0,.07.21-.03.05-.08.08-.15.15-.06.02-.16-.05-.31-.11Z"/>
              <path class="cls-3" d="m12.75,7.28s-.08,0-.14.1c.09.03.08-.07.14-.1Z"/>
              <path class="cls-3" d="m12.62,7.56s-.01.07-.03.1c-.03.07-.05.16-.02.23.02.05.08.15.15.14.08-.02.09-.11.14-.16.06-.06.04-.12-.02-.18-.05-.05-.14-.13-.21-.13Z"/>
              <path class="cls-3" d="m12.99,7.76c.12-.03.24.07.46-.02.04-.06.11.06-.04.31-.03.08-.11.05-.18.04-.07-.01-.13-.04-.18-.1-.04-.04-.02-.08-.06-.22Z"/>
              <path class="cls-3" d="m13.57,7.42s.06-.08.11-.07c-.02.12.09.18.09.5-.04,0-.09-.05-.11-.07-.04-.04-.09-.1-.09-.16,0-.07,0-.13,0-.19Z"/>
              <path class="cls-3" d="m13.86,7.69c0,.08.02.16,0,.24-.02.05-.02.08-.2.16,0,.05.03.11.03.16,0,.06.01.11.04.17s.08.1.1.16c.02.05-.02.1.15.14.02-.03.02-.09.03-.13s.03-.07.03-.11-.03-.07-.03-.2c0-.04.02-.06.04-.17,0-.04-.03-.07-.14-.29-.02-.03-.02-.08-.04-.12Z"/>
              <path class="cls-3" d="m14.09,8s.03.09,0,.24c-.02.08,0,.12.15.31.01-.05,0-.11.02-.16.02-.06,0-.09-.04-.13-.03-.03-.07-.05-.07-.1-.01-.06-.03-.15-.06-.16Z"/>
              <path class="cls-3" d="m14.38,8.24s.06.09.09.12c-.07.05-.16-.1-.09-.12Z"/>
              <path class="cls-3" d="m13.71,7.95s-.15.08-.17.05c-.01-.02.03-.14.17-.05Z"/>
              <path class="cls-3" d="m13.48,8.07c.06.02.11.05.12.12,0,.04,0,.08.06.2.01.05-.02.11-.02.16,0,.02.07.15.08.15-.17.05-.29-.07-.44-.1-.11-.02-.22-.05-.32-.08-.06-.02-.11-.06-.17-.05-.1.02-.14.14-.32.18-.07,0-.15-.02-.22-.02-.08,0-.15,0-.21.04-.04.03-.09.07-.15.06-.09,0-.09-.07.03-.18.07-.09.09-.19.12-.3.03-.13.08-.25.11-.37.05,0,.1.03.24,0,.03,0,.07.05.09.08.03.04.03.1.08.12.04.03.12.05.17.05.05,0,.11-.02.14-.06.04-.06.06-.03.12.02.08.06.18.11.28.13.04.01.07,0,.1-.03s.06-.05.13-.12Z"/>
              <path class="cls-4" d="m12.01,7.74c.03.05.04.04-.01.11,0-.04.01-.07.01-.11Z"/>
              <path class="cls-3" d="m12.03,7.99c-.01.06-.03.11-.05.15-.04.07-.09.12-.1.19-.02.14-.12.29-.35.28-.01-.02.01-.12.02-.15.03-.08.11-.12.16-.19.03-.04.05-.08.09-.2.03-.03.09-.03.23-.08Z"/>
              <path class="cls-3" d="m11.4,7.77c0,.06.02.14.06.18.06.06.08.1.08.19,0,.06,0,.13-.05.17s-.12.02-.25-.13c-.04-.09-.11-.13-.16-.28-.03-.02-.1-.02-.09-.15.03-.03.11-.02.15,0,.07.01.15.06.26.03Z"/>
              <path class="cls-3" d="m10.9,7.8c-.09-.01-.19-.06-.28-.05-.04,0-.07.02-.11.02-.09,0-.2-.05-.28,0-.03.02-.07.05-.07.09-.03.14.21.12.29.12.15,0,.28.06.42-.03.05-.03.03-.1.03-.16Z"/>
              <path class="cls-3" d="m14.54,7.97s-.02.08-.02.12c0,.05.03.09.05.13.04.08.1.15.06.23.05,0,.09-.25.07-.31-.03-.07-.11-.12-.15-.17Z"/>
              <path class="cls-3" d="m14.41,8.56s-.03.11-.05.16c-.02.05-.05.08-.11.09-.03,0-.08.02-.11.02,0-.04.03-.15-.06-.12,0,.05-.03.07-.07.1-.03.03-.05.06-.33-.01-.05.01-.08.05-.3-.01-.05-.01-.11-.04-.16-.06-.01.06-.01.13-.02.19s.04.09.09.12c.09.05.23.08.33.06.06-.01.11-.04.16-.05.08-.01.15-.01.23,0,.09,0,.18-.02.24-.08.03-.03.07-.04.1-.06.06-.04.13-.09.18-.14.03-.03.05-.08.16-.27-.04,0-.06.04-.1.06-.03.02-.08.02-.21.04Z"/>
              <path class="cls-3" d="m12.83,8.58c.08.02.23.05.22.16,0,.05-.04.14-.09.16-.14.06-.26-.25-.14-.33Z"/>
              <path class="cls-3" d="m12.59,8.71c-.06,0-.12.04-.18.03-.04,0-.08-.02-.12-.02-.09,0-.18.03-.26.05-.12.04-.21.03-.34,0-.06,0-.17-.07-.22-.04-.03.1.55.14.62.15.08.01.14.03.27-.01.06,0,.1.04.16.06.07.03.15.02.22.05.06.02.13.09.18.06-.08-.06-.13-.13-.2-.2-.04-.04-.08-.08-.12-.13Z"/>
              <path class="cls-3" d="m11.05,8.06c.03.05.07.09.14.23.04.07.06.05.13.09.04.02.06.05.04.19,0,.07,0,.06-.06.1-.04.03-.05.06-.09.08-.09.05-.21.01-.3,0,.04-.07.04-.16.02-.22-.03-.1-.06-.14-.03-.24.02-.09.06-.16.14-.21Z"/>
              <path class="cls-1" d="m10.79,8.06s-.18.02-.2.06c-.04.05.02.09.07.1.11.02.11-.07.14-.14"/>
              <path class="cls-3" d="m10.78,8.37s.02.07.02.11c0,.05-.03.06-.05.1-.02.05-.02.07-.01.12,0,.04.03.1-.03.12-.07.02-.19-.09-.25-.12-.06-.04-.18-.09-.22-.23-.02-.1-.13-.3.05-.34.1-.02.15.09.2.14.06.06.09.05.29.11Z"/>
              <path class="cls-3" d="m10.76,6.6s.09.05.13.06.12,0,.06.13c-.02.03-.03.07-.03.11-.01.08,0,.15,0,.23-.14.05-.26-.02-.4-.04-.1-.02-.3-.04-.36-.11-.04-.05-.01-.13,0-.19.02-.12-.04-.1-.13-.17-.06-.03-.16-.09-.14-.18.02-.07.05-.03.09-.04.08-.04.01-.12-.04-.18s-.09-.13-.11-.2c.12,0,.14.14.31.32.06.05.04.1.07.17s.08.06.14.08c.06.02.1.05.15.07.05.01.11.03.16.01.04-.01.04-.05.1-.05Z"/>
              <path class="cls-3" d="m10.93,7.21c-.15.07-.39,0-.53-.06-.09-.03-.2-.07-.3-.09-.02.05.04.1.06.13.03.05.09.1.11.17,0,.04,0,.08.03.11.04.04.13.02.17.03.03.01.04.05.14.07.05,0,.12.01.17.01.12,0,.11-.08.14-.17.01-.04.06-.08.07-.12,0-.04-.01-.06-.05-.09Z"/>
              <path class="cls-3" d="m10.33,8.69c.05.03.08.1.12.14.04.04.09.03.14.04.02.17-.09.24-.23.26-.09.01-.19.04-.28.06-.03,0-.11.04-.14.01-.04-.03-.01-.16,0-.21,0-.06,0-.11.05-.26.04-.03.09-.03.14-.04.07,0,.14-.06.21,0Z"/>
              <path class="cls-3" d="m10.07,7.75s-.06.05.01.48c0,.07,0,.13-.23.43-.07.04-.1-.08-.13-.1-.09-.05-.18.04-.27.04-.1,0-.21-.08-.35-.08-.09-.01-.14-.11-.2-.15-.04-.02-.17-.03-.13-.12.05-.02.07-.07.17-.1.08-.02.09-.08.1-.15.03-.19-.09-.32-.14-.49-.01-.05-.02-.1-.02-.16,0-.06,0-.12,0-.18,0-.09.01-.21.06-.28,0-.01.07-.12.1-.12.03,0,.09.07.11.09.08.05.21.1.31.09.07-.01.19-.06.3.1.03.04.08.06.06.17,0,.08.11.11.1.2,0,.07-.06.12-.04.19.02.05.08.08.09.13,0,0,.12-.07.1,0Z"/>
              <path class="cls-3" d="m9.63,8.67c.06.03.05.11.16.3,0,.05,0,.08,0,.13,0,.05,0,.1-.14.32-.03.05-.08.04-.23.05-.02-.01-.05-.07-.05-.1-.04-.03-.11-.05-.16-.07-.06-.03-.13-.03-.06-.24.03-.06.03-.05.11-.05.04,0,.11.03.15.02.08-.04,0-.11,0-.16.05,0,.11,0,.16-.02-.01-.05,0-.1.05-.18Z"/>
              <path class="cls-3" d="m10.04,7.14s.04.08.1.25c0,.03.03.08.05.1s.07.06-.05.11c-.04,0-.1,0-.13-.03-.07-.04-.02-.11-.08-.37-.03-.05-.04-.11-.07-.16-.03-.04-.09-.09-.07-.15.02-.05.1-.07.14-.04.02.02.06.07.07.09.03.05.04.14.03.2Z"/>
              <path class="cls-3" d="m9.4,5.76c-.07-.01-.13.01-.2,0-.05,0-.07.02-.12,0-.04,0-.08-.02-.16,0-.05.02-.11.01-.17.02-.05,0-.08.02-.13.02-.04,0-.11,0-.34-.04-.05.03-.15,0-.28-.02-.04-.01-.07-.05-.15-.06,0,.05,0,.09-.01.14,0,.03-.03.07-.02.15.02.07.02.14,0,.21,0,.05-.02.08.02.12.03.03.16.17.07.2-.03,0-.09,0-.12,0-.05,0-.08-.02-.11-.05-.03-.02-.08-.06-.11-.03-.04.04-.01.09,0,.13.05.15-.22.08-.31.12-.08.05-.16.08-.22.14-.08.09-.08.22-.12.32-.02.06-.05.1-.06.26.05.04.11.07.18.22,0,.04.04.06.07.08.03.02.06.04.07.13.02.04.12.07.16.09.05.03.09.07.14.17,0,.06-.01.15.31.28.03.02.05.05.08.06.1.05.26.03.36-.02.06-.03.06-.07.05-.14-.02-.13-.02-.27.11-.36.05-.04.17-.06.23-.06.05,0,.11.02.14-.03s0-.12-.05-.23c-.02-.03-.06-.06-.11-.17-.03-.08-.09-.13-.15-.19-.02-.02-.05-.06-.05-.09,0-.04.03-.09.05-.18.05-.08.17-.12.05-.38-.01-.04-.04-.07-.05-.11-.02-.05-.02-.11-.05-.38.04-.02.09-.07.13-.06.07.01,0,.19-.01.24,0,.07.02.11.06.17.03.05.05.08.06.14.02.1.1.25.12.31.06-.04.03-.13.04-.19,0-.05.02-.12.08-.24.02-.06-.02-.2.05-.24.03-.02.14.03.16.03.04.02.09.04.13.08.03.08.07.17.13.24.03.03.08.07.2.11.1,0,.22.02.31-.07-.02-.04-.06-.06-.07-.1-.01-.04-.02-.07.02-.18,0-.03-.04-.06-.05-.09-.02-.05-.04-.11-.04-.17,0-.04-.02-.12.02-.15-.05-.03-.11-.05-.17-.08-.04-.02-.07-.04-.18-.05Z"/>
              <path class="cls-3" d="m8.98,6.26c.05,0,.1.01.15.03.02.03.02.07.03.1.03.07.06.16.13.21.04.03.1.04.21.09.02.03.07.09.02.12s-.1-.01-.15-.02c-.05-.01-.09,0-.14-.03-.05-.02-.08-.07-.25-.1-.04.03-.08.01-.11-.03-.02-.04-.02-.08,0-.11.04-.04.05-.07.06-.13,0-.04-.01-.12.04-.13Z"/>
              <path class="cls-3" d="m8.64,6.84c-.02.07-.1.11-.11.19-.01.06.05.11.08.16.06.08.11.17.15.25.03-.05.03-.13.04-.19.01-.08,0-.15.03-.23s.07-.14.03-.17c-.02.03-.06.07-.09.08-.04.01-.09,0-.13-.09Z"/>
              <path class="cls-3" d="m8.88,7.91s0,.07-.06.15c-.04.02-.06.07-.09.1s-.04.06-.06.1c-.04.09-.19.06-.23-.01s-.05-.23.01-.28c.05-.04.12-.07.18-.07.07,0,.17.02.25,0Z"/>
              <path class="cls-3" d="m8.74,8.39s-.08-.01-.2,0c-.03.06-.02.16.27.49.04,0,.05-.08.09-.1.05-.04.12,0,.18,0,.05,0,.15.02.18-.14-.02-.04-.07-.03-.1-.04-.09-.02-.17-.09-.4-.23Z"/>
              <path class="cls-3" d="m9.48,8.69s-.12-.04-.13.06c.04,0,.11.04.13-.06Z"/>
              <path class="cls-3" d="m9.32,8.87c-.04.09-.09.03-.15.04-.07,0-.06.09-.08.13-.02.04-.05.04-.08.07-.03.04,0,.1,0,.14,0,.08,0,.18-.02.26,0,.04-.01.08-.03.11-.06,0-.12-.03-.18-.04s-.1-.02-.15-.04c-.04-.01-.07-.05-.11-.06-.08-.01-.13.08-.21,0-.05-.04-.08-.11-.14-.14-.05-.02-.15,0-.19-.03-.03-.03-.04-.15-.01-.19.06-.1.14-.01.2.02.07.04.15.07.22.1.07.02.14.03.29.05.04-.02,0-.12.02-.16.05,0,.08,0,.12-.03.03-.03.07-.08.09-.12.03-.05.06-.11.12-.13.06-.02.13-.01.31,0Z"/>
              <path class="cls-3" d="m9.91,9.29c.11.02.18.02.28-.01.04-.01.09-.04.13-.03.01.06-.04.1-.06.14-.04.07-.11.15-.2.15-.12,0-.16-.16-.14-.25Z"/>
              <path class="cls-3" d="m9.79,9.35s-.06.12-.09.15c-.04.04-.08.04-.13.04-.06,0-.21-.04-.19.05.01.06.05.05.04.11,0,.05-.03.1-.03.15,0,.05,0,.08-.01.2.09.09.13-.03.19-.08.02-.02.06-.04.08-.06.03-.03.03-.09.06-.11.05-.04.08-.02.15-.13.01-.05-.01-.06-.02-.1-.02-.05.02-.18-.05-.2Z"/>
              <path class="cls-3" d="m9.1,9.29c0,.06.11.08.15.1-.02.05,0,.14.03.19.02.05.02.07,0,.13,0,.05,0,.11,0,.16,0,.06-.03.12-.03.17,0,.08.07.17,0,.25-.03.03-.06.06-.14.18-.04.03-.2.2-.24.1-.02-.04.04-.11.05-.14.02-.04.04-.1.04-.14,0-.07-.05-.09-.21-.23-.01-.02-.12-.09,0-.12.04,0,.1,0,.2.06.02,0,.11.03.13.01.02-.02.02-.12.03-.15.03-.09.02-.18.02-.27,0-.1-.04-.21-.04-.3Z"/>
              <path class="cls-3" d="m8.92,9.7c-.09.01-.14-.06-.22-.07s-.16-.07-.35-.03c-.06,0-.08.02-.17-.1-.04-.04-.12,0,.05.55.04.03.08.05.12.01.08-.06.06-.22.2-.2.05,0,.09.01.13,0s.07,0,.12,0,.08.01.13.02c.07,0,.06-.03.07-.09,0-.04.04-.12-.09-.09Z"/>
              <path class="cls-3" d="m8.54,9.95s-.08.14-.06.18.17.07.22.01c0-.06,0-.11-.15-.19Z"/>
              <path class="cls-3" d="m8.38,10.17c.07.01.14.03.34.03.09-.02.1.1.09.16,0,.04-.02.08-.03.11-.02.06-.07.05-.13.04-.04,0-.07-.02-.11-.03s-.1-.01-.17-.11c-.01-.04-.04-.06-.07-.09-.07-.09.05-.07.08-.11Z"/>
              <path class="cls-3" d="m10.14,8.44s.02.08,0,.12c-.02.04-.06.04-.11.05,0-.04,0-.1.11-.17Z"/>
              <path class="cls-3" d="m8.46,8.51s.07.25.13.54c-.02.05-.15.08-.2.08-.09,0-.15-.05-.22-.09-.05-.03-.19-.1-.22-.16-.03-.08.06-.18.11-.22.09-.07.18-.05.39-.14Z"/>
              <path class="cls-3" d="m7.46,8.35s.06.08.11.11c.03.02.07,0,.1.02.03.03.02.07.03.11s.04.11.03.14c-.04.09-.15.08-.22.07-.14-.03-.24-.13-.17-.28.03-.07.09-.13.13-.18Z"/>
              <path class="cls-3" d="m7.78,8.87c-.07-.01-.13,0-.2,0-.08,0-.16-.02-.24-.03-.02.04.01.08.02.12.03.13.1.2.15.32.04.1.05.21.21.42.03.05.06.11.09.17s.05.16.14.28c.12.04.11-.18.09-.24-.02-.08-.03-.16-.05-.24-.03-.09-.1-.14-.12-.23-.02-.07-.08-.12-.1-.19-.03-.08.02-.07.05-.14.01-.03.01-.1.01-.14,0-.04,0-.07-.05-.1Z"/>
              <path class="cls-3" d="m7.78,5.62c-.08,0-.1.25-.09.32.02.11.04.22.05.32-.07,0-.1-.03-.17-.06.02-.09-.04-.08-.09-.15-.06-.09,0-.17.03-.24s.02-.16.11-.2c.03-.01.09-.01.15,0Z"/>
              <path class="cls-3" d="m7.42,5.47c-.06,0-.11.05-.16.02-.06-.03-.02-.06-.04-.1-.02-.04-.06-.09-.12-.09-.12,0-.05.1-.11.24-.01.06.01.14.02.2.02.1,0,.16,0,.27,0,.06,0,.05.04.09.17.16.21.05.24-.1.01-.07.03-.14.06-.21s.09-.1.11-.18c.02-.08-.04-.09-.04-.14Z"/>
              <path class="cls-3" d="m4.44,4.18s0,.09.01.12.04.06.04.11c0,.07-.04.13-.06.19-.04.13-.07.28-.16.38-.06.07-.05.11-.08.2-.04.13-.09.1-.19.18-.04.03-.06.08-.17.14-.02.03-.03.1-.04.14-.03.09-.09.15-.07.25s.06.17.15.2c.07.02.18,0,.24.05.08.06.08.19.18.24s.23,0,.33.03c.05.01.08.04.13.06.13.07.37-.02.23-.18-.05-.06-.11-.07-.12-.15,0-.05.01-.12.04-.17.03-.06.09-.1.08-.17,0-.1-.07-.2-.09-.29s-.01-.21-.04-.31c-.01-.04-.04-.08-.05-.13,0-.06.02-.1.03-.15.02-.09-.06-.25-.11-.34-.05-.1-.14-.19-.13-.31,0-.04.04-.17.02-.21s-.09-.02-.12,0c-.05.03-.04.07-.06.12Z"/>
              <path class="cls-3" d="m4.81,4.44c.06.06.03.08.05.14,0,.03.03.06.04.1s0,.08.05.27c.09.19.19-.09.26-.13-.05-.02-.02-.1-.05-.14-.02-.03-.06-.07-.08-.1-.05-.06-.17-.14-.26-.14Z"/>
              <path class="cls-1" d="m5.28,4.74s.15-.01.12.06c-.02.07-.11-.02-.12-.06"/>
              <path class="cls-3" d="m5.02,5.42c0,.1-.02.22.02.31.05.1.07.06.03.15-.04.06-.05.07-.12.11-.06.04-.05.04-.03.1,0,.03.02.08.04.1.03.04.09.03.12.07.04.04.06.16.12.19.1.06.11-.23.12-.29.02-.14.05-.27,0-.41-.04-.11-.11-.2-.17-.29-.03-.05-.11-.11-.12-.04Z"/>
              <path class="cls-3" d="m5.15,6.56c.06-.01.09.02.14-.02.04-.03.06-.08.08-.12.03-.05.02-.1.05-.16.03-.06.08-.11.11-.18.05.11.03.24.08.35.04.09.06.19.1.27.02.04.06.08.08.12.04.05.04.07.02.14-.01.08,0,.18-.02.25-.12,0-.2-.03-.29-.12-.07-.07-.17-.13-.23-.2s-.22-.24-.13-.33Z"/>
              <path class="cls-3" d="m5.93,7.05s-.04.18-.06.32c.02.03.08.07.11.05.05-.03,0-.07.01-.11,0-.04.04-.06.04-.1.02-.07-.03-.17-.1-.16Z"/>
              <path class="cls-3" d="m6.09,7.25c-.02.07,0,.13.04.18.04.06.08.06.15.09.03.02.05.06.09.07.05.02.12-.02.18-.01.07,0,.14.03.2.07.04.03.18.2.24.18.06-.02.03-.13.01-.16-.03-.07-.07-.07-.14-.16-.06-.06-.13-.07-.2-.12-.04-.03-.08-.06-.18-.14-.07-.06-.15-.06-.22-.15-.06-.02-.17.13-.16.17Z"/>
              <path class="cls-3" d="m7.11,7.89c-.01.06,0,.14,0,.2.01.1,0,.15.1.19.08.03.1,0,.15-.06.04-.05.07-.11.03-.17-.03-.05-.11-.05-.15-.08-.05-.05-.05-.14-.13-.08Z"/>
              <path class="cls-3" d="m7.3,6.26c-.06.05-.13.02-.2.02-.04,0-.07.02-.11.02-.05,0-.1-.02-.15-.03-.09-.01-.09.03-.1.13,0,.02-.03.11-.02.12.02.06.14.07.19.08.07.02.11,0,.18-.03.04-.02.08-.05.13-.06.06,0,.1.03.15-.02.05-.06.04-.21-.06-.24Z"/>
              <path class="cls-3" d="m5.08,5.07c-.11.16.33.2.38.24.03.03.02.07.03.11.01.07.05.13.08.19.05.08.17.31.29.17.06-.07.06-.19.15-.36,0-.06-.13-.13-.18-.16-.03-.02-.06-.05-.09-.07-.04-.02-.09,0-.12,0-.07-.02-.13-.11-.22-.14-.04-.01-.16-.03-.21-.02-.05.01-.06.07-.11.04Z"/>
              <path class="cls-3" d="m5.6,5c.08.1.18.11.29.14.09.02.12.06.18.14.04.06.1.16.12.23.06.01.1.04.13.09.03.08,0,.22.07.26s.17,0,.19-.09c.02-.06-.02-.14.08-.33-.05-.03-.12-.02-.17-.04s-.12-.09-.16-.13c-.08-.08-.12-.16-.23-.2-.11-.05-.23-.11-.35-.15-.05-.02-.09-.05-.15.07Z"/>
              <path class="cls-3" d="m6.71,5.36s.18,0,.18.01c0,0,.02.12.02.14,0,.05-.02.1-.03.15,0,.05,0,.09,0,.14,0,.07-.06.21-.15.15-.07-.05-.01-.25,0-.33,0-.05,0-.1-.01-.14,0-.04.02-.1,0-.12Z"/>
              <path class="cls-3" d="m6.81,6.02c.06,0,.07.02.12.06-.05.11-.12.02-.25.11-.04.05-.1.04-.15.08-.04.03-.03.05-.09.08-.05.02-.13.06-.19.07-.21.02-.32-.14-.5-.17-.02-.07-.08-.19,0-.25.06-.04.13,0,.17-.05.05-.08.02-.23.12-.25s.15.11.18.18c.05.11.14.12.28.07.1.01.12.07.19.11.06.03.08-.02.12-.02Z"/>
              <path class="cls-3" d="m6.6,6.35s-.07.06-.13.08-.12.04-.18.06c-.14.04-.22,0-.4-.01-.01.02,0,.13,0,.15.01.04.09.13.13.15s.08,0,.11.04c.04,0,.17.12.24.04.03-.05.07-.07.1-.13.03-.07.07-.12.1-.19.02-.04.08-.12.04-.19Z"/>
              <path class="cls-3" d="m6.67,6.63c.08.03.13.07.22.09,0,.04-.02.1-.03.15,0,.06-.02.07-.04.13-.03.08,0,.26-.14.24-.07,0-.07-.05-.1-.09-.03-.04-.07-.05-.12-.07-.13-.07,0-.12.04-.2.03-.06.03-.11.08-.16.03-.03.04-.06.09-.07Z"/>
            </g>
          </g>
        </g>
      </g>
    </g>
  </g>
</svg>