<?xml version="1.0" encoding="UTF-8"?>
<svg id="Livello_2" data-name="Livello 2" xmlns="http://www.w3.org/2000/svg" viewBox="0 0 26.25 26.83">
  <defs>
    <style>
      .cls-1 {
        fill: #f2f6f9;
      }

      .cls-2 {
        fill: #eadfd8;
      }

      .cls-3, .cls-4 {
        fill: #e6e8e8;
      }

      .cls-5 {
        fill: #ededed;
      }

      .cls-6 {
        fill: #edf4f2;
      }

      .cls-7 {
        fill: #fff;
      }

      .cls-8 {
        fill: #e5e8e8;
      }

      .cls-9 {
        fill: #d3d0cd;
      }

      .cls-10 {
        fill: #d4e8e7;
      }

      .cls-11 {
        fill: #0e0f0f;
      }

      .cls-12 {
        fill: #181919;
      }

      .cls-13 {
        fill: #5b798c;
      }

      .cls-14, .cls-15 {
        fill: #5da59e;
      }

      .cls-16 {
        fill: #77a8c7;
      }

      .cls-17 {
        fill: #4e8982;
      }

      .cls-18 {
        fill: #82b7d9;
      }

      .cls-19 {
        fill: none;
        stroke: #4e8982;
        stroke-width: .1px;
      }

      .cls-19, .cls-4, .cls-15 {
        stroke-miterlimit: 10;
      }

      .cls-4, .cls-15 {
        stroke: #fff;
      }
    </style>
  </defs>
  <g id="Who_is_at_risk" data-name="Who is at risk">
    <g id="ic_Veterinarians_and_laboratory_personnel" data-name="ic_Veterinarians and laboratory personnel">
      <g>
        <path class="cls-7" d="m24.08,12.75c-.18,0-.34-.02-.49-.07-.38-.15-.48-.47-.54-.65-.06-.21-.13-.42-.2-.61-.07-.19-.13-.33-.24-.44-.06-.06-.11-.07-.14-.07-.27.08-.43.16-.57.26-.07.05-.14.11-.21.17-.08.07-.15.13-.24.19-.14.1-.28.16-.43.19-.05,0-.11.01-.16.01-.13,0-.26-.03-.39-.08-.24-.09-.46-.26-.66-.48-.19-.21-.4-.47-.54-.75-.11-.22-.11-.49,0-.79-.11-.08-.13-.19-.08-.28l.32-.64c.04-.08.12-.13.22-.13,0,0,.02,0,.04,0,.02-.02.04-.05.06-.07.15-.15.35-.18.48-.19h.11c.09,0,.18,0,.26,0,.34.03.66.09.94.15.7.15,1.42.36,2.13.63.56.21,1.09.45,1.57.7.17.08.3.15.42.24.19.15.32.29.37.43.02.06.03.12.03.17.08.05.12.15.1.25l-.15.7c-.02.08-.08.15-.16.17-.03.1-.05.19-.09.29-.04.09-.1.25-.26.33-.33.17-.68.24-.98.3-.17.03-.35.06-.53.06Z"/>
        <g>
          <g>
            <path class="cls-10" d="m20.03,8.71s-.05.05-.06.09c-.14.25-.25.52-.38.77-.11.22-.18.5-.06.74.12.25.32.48.5.69.15.17.34.32.55.41.13.05.27.07.41.05.11-.02.22-.07.32-.14.16-.11.29-.25.45-.36.17-.12.35-.21.55-.28.19-.07.36-.03.51.11.16.15.24.34.31.54.08.2.14.42.21.63.05.16.12.37.29.45.3.12.64.09.95.03s.62-.13.91-.27c.07-.03.1-.13.13-.19.05-.11.08-.24.11-.36.06-.25.11-.51.14-.77,0-.08.04-.17.02-.25-.04-.12-.18-.24-.28-.31-.12-.09-.25-.15-.38-.22-.5-.26-1.02-.48-1.55-.69-.68-.26-1.38-.47-2.09-.62-.29-.06-.59-.12-.89-.14-.12,0-.23-.02-.35-.01-.12,0-.23.03-.3.11Z"/>
            <path class="cls-5" d="m23.63,12.59s-.05-.02-.08-.03c-.25-.1-.34-.39-.39-.56-.06-.2-.13-.42-.2-.62-.08-.2-.14-.36-.27-.48-.1-.1-.2-.12-.33-.07-.19.07-.36.15-.51.26-.07.05-.14.11-.22.17-.07.06-.15.13-.23.18-.13.09-.26.15-.39.17-.16.03-.33,0-.5-.06-.22-.09-.43-.24-.62-.45-.18-.21-.39-.46-.53-.72-.13-.25-.1-.57.06-.89.05-.1.1-.21.15-.32.07-.15.14-.31.23-.46.03-.05.06-.09.09-.12h0c.13-.13.29-.15.41-.16.12,0,.24,0,.36,0h.02c.32.03.64.09.91.15.7.15,1.41.36,2.12.63.56.21,1.08.45,1.56.69l.04.02c.12.06.25.13.36.21.12.09.28.23.34.39.04.1.02.2,0,.27,0,.02,0,.04,0,.05-.03.25-.08.52-.15.79-.03.12-.07.25-.12.38-.04.09-.09.22-.21.28-.31.16-.66.24-.95.29-.3.05-.64.09-.97-.01Zm-.97-2.09c.09.03.18.08.26.16.2.19.28.41.35.61.08.21.15.43.21.64.04.12.09.29.19.34.27.11.58.07.86.02.28-.05.58-.12.86-.26.01-.01.04-.07.05-.1.05-.11.08-.23.1-.34.06-.26.11-.51.14-.75,0-.02,0-.05.01-.08,0-.03.01-.08.01-.09-.02-.04-.08-.13-.22-.23-.09-.07-.2-.12-.31-.18l-.04-.02c-.47-.24-.98-.47-1.53-.68-.69-.26-1.39-.47-2.07-.61-.28-.06-.57-.12-.87-.14h-.02c-.11,0-.21-.02-.31-.01-.1,0-.16.03-.2.06-.01.01-.02.03-.03.05-.08.14-.15.29-.22.44-.05.11-.1.22-.16.33-.07.13-.16.38-.06.58.12.23.31.46.48.65.15.17.32.29.49.36.11.04.22.06.31.04.08-.01.16-.05.25-.11.07-.05.13-.1.2-.16.08-.07.16-.13.25-.19.18-.12.38-.22.59-.3.15-.05.29-.06.42-.01Z"/>
          </g>
          <rect class="cls-10" x="19.43" y="8.64" width=".28" height="1" rx=".14" ry=".14" transform="translate(6.18 -7.8) rotate(26.64)"/>
          <rect class="cls-10" x="25.8" y="10.71" width=".28" height="1" rx=".14" ry=".14" transform="translate(49.06 27.47) rotate(-168.27)"/>
          <path class="cls-6" d="m20.12,10.28s-.02,0-.02-.02c-.01-.02,0-.05.01-.06l1.34-.9s.05,0,.06.01c.01.02,0,.05-.01.06l-1.34.9s-.03,0-.04,0Z"/>
          <path class="cls-6" d="m20.83,10.39s-.02,0-.02-.02c-.01-.02,0-.05.01-.06l1.34-.9s.05,0,.06.01c.01.02,0,.05-.01.06l-1.34.9s-.03,0-.04,0Z"/>
          <path class="cls-6" d="m25.03,11.74s-.02-.01-.03-.02l-.61-1.49s0-.05.02-.06c.02,0,.05,0,.06.02l.61,1.49s0,.05-.02.06c0,0-.02,0-.03,0Z"/>
          <path class="cls-6" d="m24.34,11.42s-.02-.01-.03-.02l-.61-1.49s0-.05.02-.06.05,0,.06.02l.61,1.49s0,.05-.02.06c0,0-.02,0-.03,0Z"/>
        </g>
      </g>
      <g>
        <g>
          <path class="cls-4" d="m19.36,21.52c.18,1.17.54,2.32.65,3.5.01.15.02.32-.1.44-.1.09-.25.13-.39.15-.34.06-.68.08-1.02.07-.08,0-.17,0-.24-.04-.13-.06-.16-.21-.18-.33-.4-2.63-.8-5.26-1.2-7.89-.01-.09-.01-.09-.03-.18-.01-.08-.07-.15,0-.22.4-.39,1.37-1.47,2.03-1.83.33,1.89.21,4.43.48,6.34Z"/>
          <path class="cls-4" d="m6.13,21.52c-.18,1.17-.54,2.32-.65,3.5-.01.15-.02.32.1.44.1.09.25.13.39.15.34.06.68.08,1.02.07.08,0,.17,0,.24-.04.13-.06.16-.21.18-.33.4-2.63.8-5.26,1.2-7.89.01-.09.01-.09.03-.18.01-.08.07-.15,0-.22-.4-.39-1.37-1.47-2.03-1.83-.33,1.89-.21,4.43-.48,6.34Z"/>
          <path class="cls-15" d="m19.41,17.48l-.26-1.53s-.22-1.12-.49-2.09c-.26-.97-1.08-1.42-1.08-1.42l-1.08-.37s-1.46-.49-1.63-1.12-2.07-.79-2.07-.79c0,0-1.9.15-2.07.79s-1.63,1.12-1.63,1.12l-1.08.37s-.82.45-1.08,1.42c-.26.97-.49,2.09-.49,2.09l-.26,1.53s-.15.15.6.3c.75.15,1.53.49,1.53.49v2.09l-.15,3.78-.04,1.12s.34.26,1.35.3c1.01.04,2.65,0,2.65,0l.39.02h.56l.39-.02s1.65.04,2.65,0,1.35-.3,1.35-.3l-.04-1.12-.15-3.78v-2.09s.79-.34,1.53-.49c.75-.15.6-.3.6-.3Z"/>
        </g>
        <g>
          <g>
            <path class="cls-3" d="m19.38,21.53c.18,1.17.54,2.32.65,3.5.01.15.02.32-.1.44-.1.09-.25.13-.39.15-.34.06-.68.08-1.02.07-.08,0-.17,0-.24-.04-.13-.06-.16-.21-.18-.33-.4-2.63-.8-5.26-1.2-7.89-.01-.09-.01-.09-.03-.18-.01-.08-.07-.15,0-.22.4-.39,1.37-1.47,2.03-1.83.33,1.89.21,4.43.48,6.34Z"/>
            <path class="cls-3" d="m6.14,21.53c-.18,1.17-.54,2.32-.65,3.5-.01.15-.02.32.1.44.1.09.25.13.39.15.34.06.68.08,1.02.07.08,0,.17,0,.24-.04.13-.06.16-.21.18-.33.4-2.63.8-5.26,1.2-7.89.01-.09.01-.09.03-.18.01-.08.07-.15,0-.22-.4-.39-1.37-1.47-2.03-1.83-.33,1.89-.21,4.43-.48,6.34Z"/>
            <path class="cls-14" d="m19.43,17.48l-.26-1.53s-.22-1.12-.49-2.09c-.26-.97-1.08-1.42-1.08-1.42l-1.08-.37s-1.46-.49-1.63-1.12-2.07-.79-2.07-.79c0,0-1.9.15-2.07.79s-1.63,1.12-1.63,1.12l-1.08.37s-.82.45-1.08,1.42c-.26.97-.49,2.09-.49,2.09l-.26,1.53s-.15.15.6.3c.75.15,1.53.49,1.53.49v2.09l-.15,3.78-.04,1.12s.34.26,1.35.3c1.01.04,2.65,0,2.65,0l.39.02h.56l.39-.02s1.65.04,2.65,0,1.35-.3,1.35-.3l-.04-1.12-.15-3.78v-2.09s.79-.34,1.53-.49c.75-.15.6-.3.6-.3Z"/>
          </g>
          <path class="cls-17" d="m12.65,12c-.59,4.39-1.25,8.78-1.97,13.15.59-4.39,1.25-8.78,1.97-13.15,0,0-.72,4.38,0,0Z"/>
          <path class="cls-19" d="m14.31,10.86c-.9-.46-2.01-.47-2.92-.02-.11.05-.16.16-.15.28s.08.23.17.31.21.13.32.17c.23.09.46.15.7.19"/>
          <path class="cls-19" d="m8.55,15.53c-.11.32,0,.67.01,1.01.02.32-.05.64-.12.96-.05.21-.09.43-.14.64"/>
          <path class="cls-19" d="m16.36,15.43c-.07.25.02.52.13.76s.25.47.28.73c.02.19-.02.39.04.57.09.26.36.46.35.74"/>
          <path class="cls-17" d="m14.46,10.99c.34.79-.89.93-1.42.9-.2-.02-.47.1-.42.34-.1-.24.21-.43.42-.41.52-.04,1.63-.05,1.43-.84h0Z"/>
        </g>
      </g>
      <g>
        <g>
          <g>
            <polygon class="cls-1" points="13.22 13.9 13.06 13.64 13.09 13.5 13.66 13.15 13.8 13.18 13.96 13.44 13.93 13.58 13.35 13.93 13.22 13.9"/>
            <rect class="cls-1" x="13.17" y="13.39" width=".67" height=".31" transform="translate(-5.11 9.14) rotate(-31.77)"/>
            <path class="cls-1" d="m15.2,19.55c-.15-.02-.31-.06-.46-.12-.39-.15-.76-.41-1.07-.76-.41-.46-.67-1.02-.86-1.45,0,0-.35-.87-.42-1.04-.04-.09-.09-.19-.14-.29-.11-.21-.22-.43-.27-.67-.06-.33.03-.7.25-1.01.17-.23.39-.44.72-.64l.13-.08.14.03.16.26-.03.14-.13.08c-.26.16-.44.32-.57.5-.14.2-.2.42-.16.62.03.16.12.34.21.51.06.12.12.23.16.33,0,0,.35.88.42,1.04.17.4.41.91.77,1.31.35.4.78.65,1.21.71l.17.02.09.1v.31l-.11.1-.21-.03Z"/>
            <path class="cls-1" d="m14.78,19.34c-.37-.14-.73-.39-1.03-.73-.4-.45-.66-1-.84-1.43-.07-.17-.14-.35-.21-.52-.07-.17-.14-.35-.21-.52-.04-.1-.09-.2-.15-.29-.11-.2-.22-.41-.26-.64-.06-.3.03-.64.23-.93.16-.22.38-.42.69-.61l.13-.08.16.26-.13.08c-.28.17-.46.33-.6.52-.16.22-.22.47-.18.7.03.18.13.37.23.55.06.11.11.21.16.32.07.17.14.35.21.52.07.17.14.35.21.52.17.41.42.92.79,1.34.37.41.82.68,1.27.74l.17.02v.31l-.21-.03c-.15-.02-.29-.06-.43-.11Z"/>
            <polygon class="cls-1" points="16.97 13.58 16.94 13.44 17.1 13.18 17.24 13.15 17.81 13.5 17.84 13.64 17.68 13.9 17.54 13.93 16.97 13.58"/>
            <rect class="cls-1" x="17.24" y="13.2" width=".31" height=".67" transform="translate(-3.28 21.2) rotate(-58.23)"/>
            <path class="cls-1" d="m15.33,19.48v-.31l.09-.1.21-.02c.43-.06.86-.31,1.21-.71.36-.41.6-.92.77-1.31l.21-.52c.07-.18.14-.35.21-.53.05-.11.1-.22.16-.33.09-.17.19-.35.22-.52.04-.2-.02-.42-.16-.62-.12-.18-.3-.33-.57-.5l-.13-.08-.03-.14.16-.26.14-.03.13.08c.32.2.55.4.72.64.22.31.31.68.25,1.01-.05.24-.16.45-.27.66-.05.1-.1.2-.14.29-.07.17-.35.87-.42,1.04-.18.43-.45.99-.86,1.45-.31.35-.68.61-1.07.76-.15.06-.3.1-.46.12l-.25.03-.11-.1Z"/>
            <path class="cls-1" d="m16.11,19.34c.37-.14.73-.39,1.03-.73.4-.45.66-1,.84-1.43.07-.17.14-.35.21-.52.07-.17.14-.35.21-.52.04-.1.09-.2.15-.29.11-.2.22-.41.26-.64.06-.3-.03-.64-.23-.93-.16-.22-.38-.42-.69-.61l-.13-.08-.16.26.13.08c.28.17.46.33.6.52.16.22.22.47.18.7-.03.18-.13.37-.23.55-.06.11-.11.21-.16.32-.07.17-.14.35-.21.52-.07.17-.14.35-.21.52-.17.41-.42.92-.79,1.34-.37.41-.82.68-1.27.74l-.21.02v.31l.25-.03c.15-.02.29-.06.43-.11Z"/>
            <path class="cls-1" d="m13.74,13.52l-.11-.17-.02-.13.07-.1c.12-.09.19,0,.1.06-.02.02-.02-.09,0-.11.02-.04.06-.05.08-.08l.1-.09s.12-.1.17-.11c.06-.01.18.01.23.05.06.05.16.25.16.25l-.05.23-.16.1s-.08.06-.14.07c-.05,0-.09.04-.13.06l-.15.05-.13-.08Z"/>
            <path class="cls-1" d="m14.18,12.87l-.15.1s-.07.04-.09.07c-.03.05-.07.08-.11.11-.03.02-.06.03-.09.05s-.04.06-.02.09l.11.17c.04.06.1.02.14,0,.05-.03.11-.06.17-.08.04,0,.07-.03.11-.05l.16-.11s.04-.06.02-.09l-.16-.24s-.06-.04-.09-.02Z"/>
            <path class="cls-1" d="m16.88,13.55c-.05-.03-.09-.06-.14-.06-.06-.01-.1-.04-.14-.06,0,0-.14-.07-.17-.11-.03-.05-.06-.17-.05-.23.02-.07.1-.2.16-.25.03-.03.1-.08.14-.08.07,0,.24.13.24.13.05.03.09.05.12.1.02.03.05.06.16.11l.04.13-.03-.11.05.23-.11.17-.13.07-.14-.05Z"/>
            <path class="cls-1" d="m16.72,12.87l.15.1s.07.04.09.07c.03.05.07.08.11.11.03.02.06.03.09.05s.04.06.02.09l-.11.17c-.04.06-.1.02-.14,0-.05-.03-.11-.06-.17-.08-.04,0-.07-.03-.11-.05l-.16-.11s-.04-.06-.02-.09l.16-.24s.06-.04.09-.02Z"/>
          </g>
          <path class="cls-1" d="m20.3,26.83c-1.3,0-2.55-.53-3.44-1.46-.33-.35-.54-.68-.66-1.03-.15-.01-.33-.1-.48-.18-.72-.39-1.21-.87-1.45-1.43-.25-.57-.25-1.28,0-1.95.2-.54.55-1.05,1.08-1.57h.14s.18.18.18.18v.14c-.48.48-.79.94-.97,1.41-.21.56-.21,1.15-.01,1.61.2.47.62.87,1.25,1.21.05.03.11.06.17.09-.02-.5.19-.98.56-1.24.17-.12.39-.19.62-.19.1,0,.19.01.29.04.28.07.5.24.62.47.2.39.09.9-.25,1.23-.25.24-.6.37-1,.37-.05,0-.17,0-.18,0,.1.18.24.35.41.54.8.84,1.93,1.32,3.11,1.32.23,0,.46-.02.68-.06.46-.08,1.09-.27,1.49-.75.33-.4.49-.97.48-1.71-.03-1.77-1.01-3.54-2.51-4.49l-.03-.14.13-.21.14-.03c1.64,1.05,2.68,2.91,2.71,4.86.02.85-.18,1.53-.58,2.01-.49.59-1.23.82-1.76.91-.25.04-.5.06-.75.06Zm-3.01-3.96c-.13,0-.26.04-.37.11-.28.19-.43.6-.35,1,.05.06.16.08.26.09.04,0,.08,0,.12,0,.27,0,.52-.09.69-.24.2-.19.26-.48.16-.69-.06-.12-.18-.21-.33-.24-.06-.01-.11-.02-.17-.02Z"/>
          <path class="cls-1" d="m20.3,26.73c-1.25,0-2.5-.52-3.37-1.43-.32-.33-.53-.66-.64-.99-.21-.07-.39-.16-.53-.24-.7-.38-1.18-.84-1.41-1.38-.24-.55-.24-1.23,0-1.88.2-.52.54-1.03,1.05-1.54l.18.18c-.49.49-.81.96-1,1.45-.22.58-.22,1.2-.01,1.69.21.49.65.91,1.3,1.26.09.05.21.11.33.16-.08-.53.12-1.05.5-1.32.23-.16.54-.21.82-.14.25.06.45.21.56.42.18.35.08.81-.23,1.11-.26.25-.66.37-1.07.33-.07,0-.14-.02-.21-.03.11.24.28.49.52.74.98,1.03,2.47,1.53,3.88,1.3.48-.08,1.13-.28,1.55-.79.34-.42.51-1.01.5-1.78-.03-1.81-1.03-3.6-2.55-4.57l.13-.21c1.61,1.03,2.64,2.86,2.67,4.78.01.83-.17,1.48-.56,1.94-.47.57-1.18.79-1.7.87-.24.04-.49.06-.74.06Zm-3.8-2.62c.11.03.22.05.33.06.34.03.67-.07.88-.27.23-.22.3-.57.18-.81-.07-.14-.21-.25-.4-.3-.22-.05-.45-.02-.62.1-.32.22-.47.66-.4,1.1,0,.04.01.07.02.11Z"/>
          <g>
            <path class="cls-1" d="m20.17,19.75c-.43,0-.78-.35-.78-.79s.35-.79.78-.79.79.35.79.79-.35.79-.79.79Z"/>
            <circle class="cls-1" cx="20.17" cy="18.96" r=".69"/>
            <circle class="cls-1" cx="20.17" cy="18.96" r=".69"/>
            <circle class="cls-1" cx="20.17" cy="18.96" r=".59"/>
          </g>
        </g>
        <g>
          <g>
            <rect class="cls-8" x="13.17" y="13.37" width=".67" height=".31" transform="translate(-5.1 9.14) rotate(-31.77)"/>
            <path class="cls-12" d="m14.78,19.32c-.37-.14-.73-.39-1.03-.73-.4-.45-.66-1-.84-1.43-.07-.17-.14-.35-.21-.52-.07-.17-.14-.35-.21-.52-.04-.1-.09-.2-.15-.29-.11-.2-.22-.41-.26-.64-.06-.3.03-.64.23-.93.16-.22.38-.42.69-.61l.13-.08.16.26-.13.08c-.28.17-.46.33-.6.52-.16.22-.22.47-.18.7.03.18.13.37.23.55.06.11.11.21.16.32.07.17.14.35.21.52.07.17.14.35.21.52.17.41.42.92.79,1.34.37.41.82.68,1.27.74l.17.02v.31l-.21-.03c-.15-.02-.29-.06-.43-.11Z"/>
            <rect class="cls-8" x="17.23" y="13.19" width=".31" height=".67" transform="translate(-3.27 21.18) rotate(-58.23)"/>
            <path class="cls-12" d="m16.11,19.32c.37-.14.73-.39,1.03-.73.4-.45.66-1,.84-1.43.07-.17.14-.35.21-.52.07-.17.14-.35.21-.52.04-.1.09-.2.15-.29.11-.2.22-.41.26-.64.06-.3-.03-.64-.23-.93-.16-.22-.38-.42-.69-.61l-.13-.08-.16.26.13.08c.28.17.46.33.6.52.16.22.22.47.18.7-.03.18-.13.37-.23.55-.06.11-.11.21-.16.32-.07.17-.14.35-.21.52-.07.17-.14.35-.21.52-.17.41-.42.92-.79,1.34-.37.41-.82.68-1.27.74l-.21.02v.31l.25-.03c.15-.02.29-.06.43-.11Z"/>
            <path class="cls-11" d="m14.17,12.85l-.15.1s-.07.04-.09.07c-.03.05-.07.08-.11.11-.03.02-.06.03-.09.05s-.04.06-.02.09l.11.17c.04.06.1.02.14,0,.05-.03.11-.06.17-.08.04,0,.07-.03.11-.05l.16-.11s.04-.06.02-.09l-.16-.24s-.06-.04-.09-.02Z"/>
            <path class="cls-11" d="m16.71,12.85l.15.1s.07.04.09.07c.03.05.07.08.11.11.03.02.06.03.09.05s.04.06.02.09l-.11.17c-.04.06-.1.02-.14,0-.05-.03-.11-.06-.17-.08-.04,0-.07-.03-.11-.05l-.16-.11s-.04-.06-.02-.09l.16-.24s.06-.04.09-.02Z"/>
          </g>
          <path class="cls-12" d="m20.29,26.71c-1.25,0-2.5-.52-3.37-1.43-.32-.33-.53-.66-.64-.99-.21-.07-.39-.16-.53-.24-.7-.38-1.18-.84-1.41-1.38-.24-.55-.24-1.23,0-1.88.2-.52.54-1.03,1.05-1.54l.18.18c-.49.49-.81.96-1,1.45-.22.58-.22,1.2-.01,1.69.21.49.65.91,1.3,1.26.09.05.21.11.33.16-.08-.53.12-1.05.5-1.32.23-.16.54-.21.82-.14.25.06.45.21.56.42.18.35.08.81-.23,1.11-.26.25-.66.37-1.07.33-.07,0-.14-.02-.21-.03.11.24.28.49.52.74.98,1.03,2.47,1.53,3.88,1.3.48-.08,1.13-.28,1.55-.79.34-.42.51-1.01.5-1.78-.03-1.81-1.03-3.6-2.55-4.57l.13-.21c1.61,1.03,2.64,2.86,2.67,4.78.01.83-.17,1.48-.56,1.94-.47.57-1.18.79-1.7.87-.24.04-.49.06-.74.06Zm-3.8-2.62c.11.03.22.05.33.06.34.03.67-.07.88-.27.23-.22.3-.57.18-.81-.07-.14-.21-.25-.4-.3-.22-.05-.45-.02-.62.1-.32.22-.47.66-.4,1.1,0,.04.01.07.02.11Z"/>
          <g>
            <circle class="cls-11" cx="20.16" cy="18.95" r=".69"/>
            <circle class="cls-8" cx="20.16" cy="18.95" r=".59"/>
          </g>
        </g>
      </g>
      <g>
        <path class="cls-7" d="m12.91,5.11s-.05,0-.07-.03c-.02-.02-.06-.08-.06-.11s-.02-.09,0-.11c.5-.5,1.15-.77,1.77-1.03.08-.08.18-.16.28-.24l.09-.07c.17-.13.34-.27.49-.43.19-.2.3-.4.34-.6.03-.16.02-.32-.04-.47-.03-.08-.07-.14-.11-.17-.04-.03-.1-.05-.16-.05-.16.02-.25.06-.33.1,0,.02-.32.38-.48.7-.21.42-.32.69-.29.99.04.35-1.24.91-2.01,1.2-.03,0-.48.13-.97.13-.44,0-.78-.1-1.01-.29l-.87-1.69c-.03-.07-.5-1.49,2.07-2.57.59-.25,1.13-.38,1.59-.38.75,0,1.29.32,1.61.96.05.09.12.21.18.35.04.08.08.17.13.25.18-.09.38-.14.58-.14.16,0,.32.03.46.09.41.18.66.64.57,1.04-.04.19-.14.37-.32.56-.33.35-.76.57-1.09.73-.18.08-.36.16-.54.24-.24.2-.43.39-.58.58-.11.13-.15.23-.12.3,0,.03,0,.05,0,.08-.01.02-.03.04-.06.05-.02,0-.05.01-.09.01-.06,0-.12-.01-.13-.04-.08-.23.06-.44.18-.58.01-.02.03-.03.04-.05-.34.17-.68.37-.96.65-.02.02-.04.03-.07.03Zm2.99-3.34s.05.1.08.16c.08.2.09.42.05.63-.05.26-.19.51-.41.75-.01.01-.03.03-.04.04.19-.12.39-.25.55-.43.14-.15.22-.28.25-.42.06-.27-.12-.59-.4-.71-.02,0-.04-.02-.07-.03Z"/>
        <g>
          <path class="cls-9" d="m16.05,1.61c-.31-.14-.71-.11-1.04.09-.13-.23-.27-.55-.34-.64-.08-.12-.6-1.64-3.09-.59-2.51,1.06-2.02,2.44-2.02,2.44l.84,1.66c.58.49,1.88.14,1.88.14,0,0,1.98-.77,1.94-1.1-.04-.33.08-.62.3-1.04.16-.31.45-.66.53-.74.09-.04.19-.09.29-.1.12-.02.23,0,.31.06.06.04.11.11.14.22.06.17.08.35.04.52-.04.22-.17.44-.36.65-.15.16-.33.3-.5.44l-.09.07c-.09.07-.2.16-.3.25-.62.26-1.26.53-1.74,1.01l.07.07c.4-.4.93-.65,1.45-.88-.13.13-.27.27-.39.42-.1.12-.22.3-.16.49l.09-.03c-.04-.11,0-.23.14-.39.18-.22.39-.42.59-.6,0,0,0,0,0,0,.19-.08.38-.16.57-.25.33-.15.75-.37,1.06-.7.16-.17.26-.34.29-.51.08-.36-.15-.77-.51-.93Zm.42.91c-.03.15-.12.3-.27.46-.3.32-.71.53-1.03.68-.09.04-.18.08-.27.12.02-.01.03-.03.05-.04l.09-.07c.17-.14.36-.28.51-.45.21-.23.34-.46.39-.7.04-.19.02-.39-.05-.58-.04-.12-.1-.2-.18-.26-.05-.03-.1-.06-.16-.07.16-.01.32,0,.46.07.32.14.52.51.46.82Z"/>
          <path class="cls-2" d="m13.56.52c-.06-.42-1.15-.18-2.24.28-1.03.44-1.77,1.23-1.55,1.64.19.35,1.21.2,2.24-.28,1.04-.48,1.62-1.11,1.55-1.64Z"/>
        </g>
      </g>
      <g>
        <path class="cls-7" d="m2.41,13.5c-.09-.2-.51-.9-1.2-1.55-.71-.71-1.05-1.55-1.06-1.58-.06-.15-.01-.29.13-.37.06-.03.11-.05.17-.05.05,0,.11.01.16.06-.39-.55-.53-.97-.54-1,0,0-.1-.19-.05-.37.03-.09.09-.16.18-.2.01,0,.09-.02.1-.02.06,0,.12.02.18.06-.08-.12-.09-.14-.1-.16-.03-.09-.02-.27.16-.39.05-.03.1-.05.16-.05.16,0,.27.13.32.2,0,0,0,0,0,0-.07-.2.05-.32.12-.36h0s.07-.05.18-.05c.09,0,.18.03.26.09.11.07.27.31.41.53-.03-.18.05-.27.12-.32.07-.43.15-.87.18-.95.06-.19.14-.43.35-.43.16.03.28.1.31.29.09-.29.18-.56.26-.65.12-.15.25-.19.34-.19.01,0,.1.02.12.02.06,0,.22.1.2.34h0c.09-.25.21-.35.36-.35.32.08.37.28.36.35,0,.02,0,.04-.06.23.07-.1.15-.16.25-.16.14.02.23.07.28.15.11.16.07.38.06.41,0,.01-.01.51-.27,1.23.07-.16.2-.18.27-.18.26.05.35.17.33.34,0,.04-.09.98-.6,1.92-.43.74-.62,1.38-.67,1.56.15.21.29.39.29.39.02.03.03.07,0,.11-.36.69-1.65,1.09-1.99,1.09,0,0-.08-.01-.1-.02Zm-1.68-3.3c.19.43.42.57.5.61-.03-.04-.08-.13-.21-.29-.12-.13-.22-.25-.31-.37,0,.01.01.03.02.05Zm4.12-1.89c-.06.18-.14.36-.24.56-.14.35-.12.43-.12.43-.01-.06.26-.25.33-.86,0-.05.01-.1.03-.14Zm-.69-.33s.03-.08.04-.15v-.07c0,.07-.04.21-.04.23Z"/>
        <path class="cls-7" d="m5.36,8.43c.01-.12-.05-.2-.16-.23s-.25,0-.27.25c-.09.67-.39.87-.39.87,0,0-.31.25-.01-.5.5-1.01.51-1.79.51-1.79,0,0,.09-.39-.22-.44-.31-.05-.45.89-.51,1.25-.07.35-.21.29-.21.29,0,0-.08.02-.02-.25.06-.26.42-1.43.43-1.47,0-.04-.03-.19-.2-.24-.17-.05-.27.11-.31.23-.02.05-.14.31-.23.6-.12.4-.21.86-.21.86,0,0-.08.18-.15.09s.04-.37.04-.37c0,0,.32-.97.34-1.18.02-.22-.14-.24-.14-.24,0,0-.17-.07-.34.13s-.47,1.44-.48,1.67-.04.16-.04.16c0,0-.08.02-.07-.07,0-.22.16-.95.16-1.01s.03-.3-.17-.35-.25.21-.3.35c-.02.07-.1.48-.18.99-.01,0-.03,0-.04,0-.17.1-.08.31-.06.36,0,0,.02.05.04.08,0,.07-.01.14-.02.21-.21-.36-.49-.78-.61-.87-.2-.14-.34-.03-.34-.03,0,0-.14.07-.06.26.08.19.62.98.62.98,0,0,.17.22.13.32-.04.1-.16-.04-.16-.04,0,0-.2-.39-.42-.72-.16-.24-.34-.44-.37-.48-.07-.1-.2-.22-.34-.13-.14.09-.13.23-.12.27.01.04.65.99.78,1.21.12.22.05.23.05.23,0,0-.11.09-.26-.21-.16-.3-.53-1.12-.8-.99-.27.13-.08.45-.08.45,0,0,.22.7.94,1.49.47.6.12.46.12.46,0,0-.33-.1-.59-.68-.08-.22-.22-.21-.31-.15-.1.05-.13.14-.09.25.04.11.37.88,1.04,1.54.7.65,1.13,1.36,1.17,1.53.17.07,1.59-.32,1.96-1.03,0,0-.14-.19-.3-.48.1-.37.31-.97.68-1.59.48-.87.58-1.76.59-1.88Z"/>
        <g>
          <path class="cls-16" d="m4.4,12.38s-.57-.78-.84-1.7-.93-2.26-1.02-2.37-.2-.34-.37-.24-.08.31-.06.36.35.67.41.87c.03.08-.05.08-.05.08,0,0,0,.07-.08-.14s-.68-1.24-.88-1.38-.34-.03-.34-.03c0,0-.14.07-.06.26s.62.98.62.98c0,0,.17.22.13.32s-.16-.04-.16-.04c0,0-.2-.39-.42-.72-.16-.24-.34-.44-.37-.48-.07-.1-.2-.22-.34-.13s-.13.23-.12.27.65.99.78,1.21.05.23.05.23c0,0-.11.09-.26-.21s-.53-1.12-.8-.99-.08.45-.08.45c0,0,.22.7.94,1.49.47.6.12.46.12.46,0,0-.33-.1-.59-.68-.08-.22-.22-.21-.31-.15s-.13.14-.09.25.37.88,1.04,1.54c.7.65,1.13,1.36,1.17,1.53.17.07,1.59-.32,1.96-1.03Z"/>
          <path class="cls-13" d="m4.33,12.39s-.26.36-.75.62-1.08.35-1.08.35c0,0,.26-.37.83-.67s1-.29,1-.29Z"/>
        </g>
        <g>
          <path class="cls-18" d="m1.74,11.77s.35-.96.34-1.98.27-2.58.32-2.72.1-.41.3-.35.17.29.17.35-.16.79-.16,1.01c0,.09.07.07.07.07,0,0,.03.07.04-.16s.32-1.46.48-1.67.34-.13.34-.13c0,0,.16.03.14.24s-.34,1.18-.34,1.18c0,0-.1.28-.04.37s.15-.09.15-.09c0,0,.09-.46.21-.86.09-.3.21-.55.23-.6.04-.12.13-.28.31-.23s.2.2.2.24-.37,1.21-.43,1.47.02.25.02.25c0,0,.14.06.21-.29s.21-1.29.51-1.25.22.44.22.44c0,0-.02.78-.51,1.79-.3.76.01.5.01.5,0,0,.31-.2.39-.87.02-.25.16-.28.27-.25s.18.1.16.23-.11,1.01-.59,1.88c-.51.87-.74,1.72-.73,1.91-.15.12-1.71.15-2.3-.46Z"/>
          <path class="cls-16" d="m1.82,11.75s.37.28.95.4,1.2.03,1.2.03c0,0-.38-.3-1.04-.44s-1.11,0-1.11,0Z"/>
        </g>
      </g>
    </g>
  </g>
</svg>